<svg id="Layer_1" data-name="Layer 1"
  xmlns="http://www.w3.org/2000/svg" viewBox="0 0 983.79 983.79">
  <defs>
    <style>.cls-1{fill:#fff;}.cls-2{stroke:#000;stroke-linecap:round;stroke-miterlimit:10;stroke-width:4px;}</style>
  </defs>
  <rect width="983.79" height="983.79"/>
  <circle class="cls-1" cx="125.57" cy="125.57" r="125.57"/>
  <path d="M188.76,89.56,161.27,0H89.87L62.37,89.56a16.69,16.69,0,0,0,5.49,17.9c13.06,10.5,45.75,32.48,45.75,32.48v91.45H99.88a9.87,9.87,0,1,0,0,19.74h51.38a9.87,9.87,0,0,0,0-19.74H137.52V139.94s32.7-22,45.75-32.48A16.66,16.66,0,0,0,188.76,89.56Z"/>
  <circle class="cls-1" cx="366.33" cy="366.33" r="125.57"/>
  <path d="M391.61,472.47H378.09v-86a33.52,33.52,0,0,0,21.72-29.41,34.53,34.53,0,0,0-.05-3.94l-6.29-112.35H339.19L332.9,353.11a37,37,0,0,0,0,3.94,33.52,33.52,0,0,0,21.72,29.41v86H341.05a9.72,9.72,0,0,0,0,19.43h50.56a9.72,9.72,0,1,0,0-19.43Z"/>
  <circle class="cls-1" cx="366.33" cy="858.23" r="125.57"/>
  <path d="M451.32,762.12h-170c0,64.12,28.92,90.19,71.46,96.25V961.45H338.07a11.17,11.17,0,1,0,0,22.34h58.14a11.17,11.17,0,1,0,0-22.34H379.86V858.37C422.41,852.31,451.32,826.24,451.32,762.12Z"/>
  <circle class="cls-1" cx="617.46" cy="617.46" r="125.57"/>
  <path d="M690.07,517.29,673,491.9H561.93l-17.09,25.39a60.27,60.27,0,0,0-9.92,40.19h0a60.26,60.26,0,0,0,32,46.86l37.8,19.81v97.77H590.75a10.56,10.56,0,0,0,0,21.11h54.93a10.56,10.56,0,0,0,0-21.11H630.24V624.15L668,604.34a60.27,60.27,0,0,0,22-87.05Z"/>
  <circle class="cls-1" cx="125.57" cy="617.46" r="125.57"/>
  <path d="M35.43,514.49c0,37.29,18,57.59,46.82,67.11,3,21.4,14.06,32.08,29.7,36.19V720.55H97.12a11.24,11.24,0,0,0,0,22.48h58.51a11.24,11.24,0,1,0,0-22.48H139.18V617.79c15.65-4.11,26.72-14.79,29.71-36.19,28.76-9.52,46.81-29.82,46.81-67.11Z"/>
  <line class="cls-2" x1="172.57" y1="479.87" x2="143.87" y2="569.08"/>
  <circle class="cls-1" cx="858.23" cy="858.23" r="125.57"/>
  <path d="M884.63,964.05H870.18V872.53s45.3-2.78,45.3-139.87H801c0,137.09,45.3,139.87,45.3,139.87v16.65h0v74.87h-13a9.87,9.87,0,1,0,0,19.74h51.38a9.87,9.87,0,1,0,0-19.74Z"/>
  <circle class="cls-1" cx="858.23" cy="366.33" r="125.57"/>
  <path d="M939.08,299.8H777.38l4.12,52.85h0a9.47,9.47,0,0,1,9.47,9.22l12.48,130H911l13.82-130.12a9.47,9.47,0,0,1,9.46-9.13h.1Z"/>
  <circle class="cls-1" cx="617.46" cy="125.57" r="125.57"/>
  <circle cx="540.46" cy="40.32" r="39.84"/>
  <circle cx="635.83" cy="67.85" r="14.5"/>
  <path d="M708.88,47.36a10.91,10.91,0,0,0-8-18.3H539.52a10.91,10.91,0,0,0-8,18.3l75.32,81.85v99.84H591.45a11,11,0,0,0,0,22.08h57.47a11,11,0,1,0,0-22.08H633.56V129.21Z"/>
</svg>