<svg id="Layer_1" data-name="Layer 1"
  xmlns="http://www.w3.org/2000/svg" viewBox="0 0 982.64 982.64">
  <defs>
    <style>.cls-1{fill:#fff;}</style>
  </defs>
  <rect width="982.64" height="982.64"/>
  <circle class="cls-1" cx="125.42" cy="125.42" r="125.42"/>
  <circle class="cls-1" cx="365.9" cy="365.9" r="125.42"/>
  <circle class="cls-1" cx="365.9" cy="857.22" r="125.42"/>
  <circle class="cls-1" cx="616.74" cy="616.74" r="125.42"/>
  <circle class="cls-1" cx="125.42" cy="616.74" r="125.42"/>
  <circle class="cls-1" cx="857.22" cy="857.22" r="125.42"/>
  <circle class="cls-1" cx="857.22" cy="365.9" r="125.42"/>
  <circle class="cls-1" cx="616.74" cy="125.42" r="125.42"/>
  <path d="M74.45,123.94c11.53,9.27,40.41,28.69,40.41,28.69V233.4H102.73a8.72,8.72,0,0,0,0,17.44h45.38a8.72,8.72,0,0,0,0-17.44H136V152.63s28.88-19.42,40.41-28.69a14.74,14.74,0,0,0,4.85-15.81L157,29H93.89L69.6,108.13A14.74,14.74,0,0,0,74.45,123.94Z"/>
  <path d="M343.27,473.92a8.7,8.7,0,0,0,0,17.4h45.26a8.7,8.7,0,1,0,0-17.4h-12.1v-77a30,30,0,0,0,19.45-26.33,34.69,34.69,0,0,0-.05-3.53L390.2,266.47H341.6L336,367.06a32,32,0,0,0,0,3.53,30,30,0,0,0,19.44,26.33v77Z"/>
  <path d="M354.46,876.53v87.21H342a9.45,9.45,0,0,0,0,18.9h49.19a9.45,9.45,0,0,0,0-18.9H377.35V876.53c36-5.13,60.46-27.18,60.46-81.43H294C294,849.35,318.46,871.4,354.46,876.53Z"/>
  <path d="M660.7,621.6a52.4,52.4,0,0,0,19.16-75.66L665,523.86H568.46l-14.85,22.08A52.36,52.36,0,0,0,545,580.87h0a52.36,52.36,0,0,0,27.77,40.73l32.86,17.22v85h-12.1a9.18,9.18,0,0,0,0,18.35h47.75a9.18,9.18,0,0,0,0-18.35H627.84v-85Z"/>
  <path d="M169.11,525.37a4.93,4.93,0,0,0-9.39-3L150,552.58H50.65c0,30.93,15,47.77,38.84,55.66,2.48,17.76,11.66,26.62,24.64,30v85.24H101.82a9.33,9.33,0,0,0,0,18.65h48.54a9.33,9.33,0,1,0,0-18.65H136.71V638.27c13-3.41,22.16-12.27,24.64-30,23.86-7.89,38.84-24.73,38.84-55.66H160.35Z"/>
  <path d="M867.7,885.14s39.69-2.44,39.69-122.58H807.05c0,120.14,39.69,122.58,39.69,122.58v80.2H835.33a8.65,8.65,0,0,0,0,17.3h45a8.65,8.65,0,1,0,0-17.3H867.7v-80.2Z"/>
  <path d="M788.85,367.23a8.42,8.42,0,0,1,8.43,8.22l11.13,115.87h95.86l12.33-116a8.43,8.43,0,0,1,8.43-8.14h.08l4.16-47.09H785.17Z"/>
  <path d="M681.73,72H583.31a32.13,32.13,0,1,0-16.7,37.87L606,152.64v80.41H593.61a8.9,8.9,0,0,0,0,17.79H639.9a8.9,8.9,0,0,0,0-17.79H627.52V152.64l60.67-65.93A8.78,8.78,0,0,0,681.73,72Z"/>
</svg>