<svg xmlns="http://www.w3.org/2000/svg" viewBox="0 0 982.64 982.64">
  <defs>
    <style>.cls-1{isolation:isolate;}.cls-2{fill:#56c7ff;}.cls-3{mix-blend-mode:soft-light;opacity:0.45;}</style>
  </defs>
  <g class="cls-1">
    <g id="Layer_1" data-name="Layer 1">
      <rect class="cls-2" width="982.64" height="982.64"/>
      <g class="cls-3">
        <path d="M65.2,130.24c16,4.84,54.53,13,54.53,13l34.21,84.7L141.22,233a9.86,9.86,0,0,0,7.39,18.29l12.72-5.14h0l22.14-9,12.72-5.13a9.86,9.86,0,0,0-7.38-18.29L176.09,219l-34.22-84.7s22-32.59,30.22-47.19a16.66,16.66,0,0,0-1.62-18.63L114.93,0H101L45.37,22.49l8.05,93.23A16.66,16.66,0,0,0,65.2,130.24Z"/>
        <path d="M331.42,369.84A33.53,33.53,0,0,0,362.54,389l32.18,79.65-12.52,5a9.71,9.71,0,0,0,7.27,18L402,486.59l21.79-8.8,12.52-5.06a9.7,9.7,0,0,0-7.27-18l-12.52,5.05-32.18-79.65a33.47,33.47,0,0,0,9.1-35.36,34.8,34.8,0,0,0-1.52-3.63L344.06,239.46l-50.28,20.31L330,366.17A34.76,34.76,0,0,0,331.42,369.84Z"/>
        <path d="M400.36,978.57l25.05-10.12.75-.3,14.39-5.82a11.16,11.16,0,1,0-8.36-20.69l-14.39,5.81-.75.3-38.57-95.46c37.14-21.53,54.16-56.49,30.17-115.87L251.23,800c24,59.38,60.52,72.7,102.19,62.39L392,957.88l-13.64,5.51a11.16,11.16,0,0,0-6.17,14.53,11,11,0,0,0,3.68,4.72h14.42Z"/>
        <path d="M625.26,737.2A10.55,10.55,0,0,0,639,743l12.89-5.21,23.67-9.56.71-.29,13.59-5.49A10.54,10.54,0,1,0,682,702.92l-13.6,5.5-.71.28-36.58-90.55,27.6-32.49A60.21,60.21,0,0,0,646.5,496.8l-25.33-17.12L518.32,521.23,512,551.15a60.2,60.2,0,0,0,5.85,40.92h0A60.23,60.23,0,0,0,565,623.52l42.42,4.2L644,718.26l-12.89,5.21A10.55,10.55,0,0,0,625.26,737.2Z"/>
        <path d="M194.28,700.52l-14.49,5.85-.75.3-38.45-95.16c13-9.66,19.21-23.69,14-44.63,23.08-19.58,32.2-45.13,18.25-79.66l-45.46,18.36-2.52-34.65a4.93,4.93,0,0,0-9.83.72l2.75,37.81L5.86,554.67c14,34.53,38.27,46.57,68.47,44.62,10.77,18.71,25,24.46,41.05,22.41l38.45,95.16-13.74,5.55a11.23,11.23,0,0,0,8.41,20.82l13.74-5.55,25.21-10.18.76-.31,14.48-5.85a11.23,11.23,0,1,0-8.41-20.82Z"/>
        <path d="M921.27,945.34l-12.72,5.14-.66.27-28-69.34L873.65,866s40.9-19.53-10.39-146.49l-106,42.85C808.51,889.31,851.5,875,851.5,875l6.23,15.41h0l28,69.33-12.06,4.88a9.83,9.83,0,0,0-.43,18.07h8.35L893.13,978l22.15-9,.66-.26,12.72-5.14a9.86,9.86,0,1,0-7.39-18.29Z"/>
        <path d="M781.05,381.94a9.43,9.43,0,0,1,12.21,5l60.22,115.74,30.61-12.36,40.23-16.26,28.78-11.63L917.22,336.76a9.46,9.46,0,0,1,5.34-12l.09,0L907.2,274l-149.74,60.5,23.59,47.4Z"/>
        <path d="M528.44,112.18a39.55,39.55,0,0,0,14.65-10.31l65.15,30.91,37.36,92.46L631.37,231a11,11,0,1,0,8.27,20.45l14.22-5.75,24.77-10,14.22-5.75a11,11,0,1,0-8.26-20.45l-14.23,5.74L633,122.77l39.13-104A10.89,10.89,0,0,0,657.86,4.85L544.7,50.57a39.79,39.79,0,1,0-16.26,61.61Z"/>
        <path d="M386.71,1.44,390.28,0H375.86A11.11,11.11,0,0,0,386.71,1.44Z"/>
        <path d="M881.07.21,881.6,0h-8.35A9.78,9.78,0,0,0,881.07.21Z"/>
        <polygon points="101.04 982.64 114.93 982.64 111.5 978.42 101.04 982.64"/>
      </g>
    </g>
  </g>
</svg>