<svg xmlns="http://www.w3.org/2000/svg" viewBox="0 0 485.73 625.84"><path d="M485.67,215a9.66,9.66,0,0,0-11.31-8.39l-2.58.59a14.16,14.16,0,0,0,1.28-9.8,14.33,14.33,0,0,0-3.38-6.43,14.23,14.23,0,0,0-2.27-15.67,14.21,14.21,0,0,0,.95-9.14c-1.63-7.12-8-11.85-14.83-11-.81.1-1.65.22-2.53.36l-3-16.8,23.06-36.13a6.68,6.68,0,0,0-6.8-10.18l-11.19,2,1.62-11.84a1.79,1.79,0,0,0-3.55-.48l-1.77,13-30.78,5.47A19.12,19.12,0,1,0,401.93,129a19.22,19.22,0,0,0,3.38-.3,18.8,18.8,0,0,0,7.24-2.9l20.38,15.53,1.77,10a15.74,15.74,0,0,0-6.52-5,10.16,10.16,0,0,0-9.1.95l-.07.05a8.92,8.92,0,0,0-4,5.79c-.52,2.81.35,6,2.45,9.05,3.72,5.34,3.66,6.62,3.17,7.86a41.32,41.32,0,0,1-5,8.28c-5.36,7.5-12,16.82-8.27,34.88.43,2.1.92,5.19,1.44,9.18a42,42,0,0,1-3.88,24.3c-6.44,12.91-18.19,20.12-34.91,21.43a72.09,72.09,0,0,1-8.76.13c-2.11-3.13-4.59-5.37-7.22-5.82-2.45-.42-5.22.33-8,1.63-1.74-3.57-4.84-9.64-9.08-16.66a8.63,8.63,0,0,0,1.36-5.36c-.32-3.83-3.1-7.49-7.83-10.31-5.23-3.12-10.65-8-18.42-16.73,7.3-5.17,10.92-14.86,12.08-18.53,16.84-2.78,22.59-8,22.92-8.29a2.39,2.39,0,0,0,.34-3.09c-6.13-9-17.55-14.78-28.6-18.42a20.38,20.38,0,0,0-8.62-33.77c4-32.75,15.28-55.77,24.13-69.4,9.8-15.08,18.84-22.26,18.93-22.33a2.4,2.4,0,0,0-.57-4.1c-15-6.17-30,1.83-37.26,6.93,2.87-28.2-1.3-36.62-1.82-37.54a2.39,2.39,0,0,0-2.8-1.11C302,8.1,293.39,15.19,285.33,26.39a108.65,108.65,0,0,0-6.08,9.47C273.68,6.43,265.89.91,265,.35a2.39,2.39,0,0,0-2.58.06C245.29,12,238.53,34.91,236.17,46.12c-12.81-20-22-21.74-23.08-21.87a2.38,2.38,0,0,0-2.27,1C200.31,40.58,200,59,200.67,68.37c-6.67-4.3-15.44-6.64-15.91-6.77a2.41,2.41,0,0,0-3,2c-3.42,24.33,6.44,48.19,15.32,63.92a171.88,171.88,0,0,0,18.6,26.69c-1.1,1-2.15,2-3.2,3-7,6.73-12.52,12.05-24.83,13.89-5.85.87-10.07,4.26-11.58,9.29a14.25,14.25,0,0,0,4,14.46,12.56,12.56,0,0,0,5.94,3,12.58,12.58,0,0,0-2,5.28,14.25,14.25,0,0,0,6.24,13.65,12.45,12.45,0,0,0,6.65,2,12.47,12.47,0,0,0-1,6.07,14.25,14.25,0,0,0,9,12,13,13,0,0,0,11-.94c-.26,17.12-2,27-6.53,37.72a14.18,14.18,0,0,0,1.17,13.88c-.11.47-.23,1-.35,1.43a219.73,219.73,0,0,1-28.7,65.4l-.63,1a233.62,233.62,0,0,1-15.72,21.26c-7-2.46-14.48-7.12-19.42-10.18a50.25,50.25,0,0,0-6.14-3.51,23.66,23.66,0,0,0-9.77-1.82c-16.2-42.43-18.43-74-19.9-95-1.5-21.2-2.4-34-18-34.54-7.28-.25-13.22,2.1-17.18,6.8A21.47,21.47,0,0,0,70,249.74a20.06,20.06,0,0,0-9.8-5.59,23.41,23.41,0,0,0-23.28,7.38c-2.59,3.12-5.91,9.06-4.58,18.16a19.94,19.94,0,0,0-10.34-3,22,22,0,0,0-19.48,11C.09,282.1-2.77,291.4,5.48,304.14h0c20.5,33.65,37,56.35,55,75.91,13.69,14.83,28.39,28,48.4,43.16a11,11,0,0,0,1.29,10.51c2.58,3.56,7,5.23,12.24,4.59.27,0,.52-.05.78-.07a73.5,73.5,0,0,0,3.8,34,77.54,77.54,0,0,0,13.54,24,2.4,2.4,0,0,0,1.78.79,2.46,2.46,0,0,0,.91-.18l32.1-13.17a268.7,268.7,0,0,0,28.34,13.81c-3,8.57-4.24,20.22,4.3,30.41a23.87,23.87,0,0,0,18.15,9v6c-2.68,20.7-7.08,28-30.77,36.42-1.76.62-3.42,1.17-5,1.69-8.84,2.9-15.83,5.19-17.94,14.87a16.56,16.56,0,0,0,4.16,15.36,17.4,17.4,0,0,0,12.67,4.83,27.84,27.84,0,0,0,4.18-.35c.31.46.64.91,1,1.35,3.39,4.12,9.07,6.83,15.56,7.43,1.36.13,2.69.19,4,.19,7.23,0,13.4-1.93,17.3-5.49a13.83,13.83,0,0,0,2.07-2.34c3.25,5.56,10,8.85,19.11,9h.45c6.1,0,11.11-2,14.5-5.83,4.05-4.54,5.67-11.54,4.59-19.71a84.54,84.54,0,0,0-5-19.62c-3-8.34-5.62-15.64-3.26-41.29.9.09,1.81.15,2.72.15a21.86,21.86,0,0,0,14.5-5.27,24.71,24.71,0,0,0,8.84-18.58q7.73.13,15.5-.26c.45,7.14,3.31,13.08,8.34,17.27a19.67,19.67,0,0,0,12.89,4.8,21.37,21.37,0,0,0,3.4-.28c2.37,25.71-.25,33-3.25,41.36a84.54,84.54,0,0,0-4.95,19.62c-1.08,8.17.54,15.18,4.58,19.72,3.4,3.81,8.41,5.82,14.51,5.82h.45c9.13-.15,15.86-3.44,19.11-9a14.29,14.29,0,0,0,2.07,2.35c3.9,3.55,10.07,5.48,17.3,5.48,1.29,0,2.63-.06,4-.19,6.49-.6,12.16-3.31,15.56-7.43a16.22,16.22,0,0,0,1-1.35,26.49,26.49,0,0,0,4.18.35,17.41,17.41,0,0,0,12.67-4.83,16.56,16.56,0,0,0,4.16-15.36c-2.11-9.67-9.1-12-17.95-14.86-1.6-.53-3.26-1.08-5-1.7-23.69-8.41-28.09-15.72-30.77-36.42V531.9A24.78,24.78,0,0,0,378.4,524c9.39-11.37,6-25,2.43-33.12A131.83,131.83,0,0,0,410,460a73.54,73.54,0,0,0,10.76,2.16,2.37,2.37,0,0,0,2.12-.88c.49-.62,8.92-11.68,8.87-44.45,8.1-22.17,13.84-47.89,17.09-76.59A518.71,518.71,0,0,0,450,239.07c-.38-6.15.68-9,4-11l-.91-1.57h0l1,1.54a20.22,20.22,0,0,1,10.45-2.58l12.05.23h.09a9.66,9.66,0,0,0,9-10.75Zm-107.38,275-.05-.06.05.06Z"/></svg>