<svg xmlns="http://www.w3.org/2000/svg" viewBox="0 0 59.3 78.99"><defs><style>.cls-1{isolation:isolate;}.cls-2{mix-blend-mode:soft-light;opacity:0.45;}</style></defs><g class="cls-1"><g id="Layer_2" data-name="Layer 2"><g id="Layer_1-2" data-name="Layer 1"><g class="cls-2"><path d="M0,24.33c4.09,10,11.16,13.44,19.9,12.82,3.15,5.41,7.29,7.05,11.93,6.43L43.11,71.1h0l-4,1.63a3.25,3.25,0,0,0,2.47,6l4-1.63h0l7.29-3h0l.22-.09,4.19-1.72a3.25,3.25,0,0,0-2.47-6L50.62,68l-.22.09h0L39.12,40.59c3.74-2.81,5.53-6.89,4-13,6.66-5.7,9.26-13.12,5.17-23.11Z"/><line x1="32.92" x2="35.03" y2="27.04"/></g></g></g></g></svg>