<svg xmlns="http://www.w3.org/2000/svg" viewBox="0 0 50.18 84.72"><defs><style>.cls-1{isolation:isolate;}.cls-2{mix-blend-mode:soft-light;opacity:0.45;}</style></defs><g class="cls-1"><g id="Layer_2" data-name="Layer 2"><g id="Layer_1-2" data-name="Layer 1"><path class="cls-2" d="M45.69,72,41.5,73.75,30.57,47.1a11.21,11.21,0,0,0,3-11.87A10.9,10.9,0,0,0,33,34L16.82,0,0,6.9,12.33,42.51a10.8,10.8,0,0,0,.48,1.23,11.23,11.23,0,0,0,10.47,6.35L34.21,76.74h0L30,78.46a3.25,3.25,0,1,0,2.47,6l4.19-1.72h0l7.29-3,4.19-1.72a3.25,3.25,0,0,0-2.47-6Z"/></g></g></g></svg>