<svg xmlns="http://www.w3.org/2000/svg" viewBox="0 0 57.57 81.49"><defs><style>.cls-1{isolation:isolate;}.cls-2{mix-blend-mode:soft-light;opacity:0.45;}</style></defs><g class="cls-1"><g id="Layer_2" data-name="Layer 2"><g id="Layer_1-2" data-name="Layer 1"><path class="cls-2" d="M41.81,5.24,34,0,2.29,13,.38,22.23A18.62,18.62,0,0,0,2.25,34.85h0a18.58,18.58,0,0,0,14.6,9.63L30,45.71,41.38,73.6h0l-4,1.63a3.25,3.25,0,0,0,2.47,6l4-1.63h0l7.29-3,.22-.09,4.19-1.72a3.25,3.25,0,0,0-2.47-6l-4.19,1.72-.22.09L37.24,42.72,45.7,32.65A18.58,18.58,0,0,0,41.81,5.24Z"/></g></g></g></svg>