<svg xmlns="http://www.w3.org/2000/svg" viewBox="0 0 52.14 84.5"><defs><style>.cls-1{isolation:isolate;}.cls-2{mix-blend-mode:soft-light;opacity:0.45;}</style></defs><g class="cls-1"><g id="Layer_2" data-name="Layer 2"><g id="Layer_1-2" data-name="Layer 1"><path class="cls-2" d="M41.36,23.87,21.77,0,0,8.93,2.82,39.68a5.49,5.49,0,0,0,3.91,4.77c5.29,1.57,18,4.18,18,4.18L36.18,76.52h0L32,78.24a3.25,3.25,0,1,0,2.47,6l4.19-1.72h0l7.29-3,4.18-1.72a3.25,3.25,0,1,0-2.47-6l-4.18,1.72L32,45.64S39.25,34.85,41.92,30A5.52,5.52,0,0,0,41.36,23.87Z"/></g></g></g></svg>