<svg xmlns="http://www.w3.org/2000/svg" viewBox="0 0 697.7 290.94"><path d="M408.88,248.48c7.47-7.13,6.8-21.58,1.7-31.39a17.81,17.81,0,0,0-10.19-8.56,38.88,38.88,0,0,0-25.75-.23c-5.18,1.71-8.27,5-8.63,10.46a221.09,221.09,0,0,0,.29,24.69c0,4.64-.12,9.27,0,13.9.13,4.28.34,8.58.88,12.83s3.48,6.78,7,6.79,6.55-2.85,7.08-7.13c.29-2.3.42-4.62.49-6.94.15-4.85.21-4.45,5.12-5.49,3.87-.82,5,.6,6.16,3.65s5.29,12.75,7.55,15.39c2,2.33,4.54,3.58,7.73,2.41s4.51-3.72,4.4-6.91a12.1,12.1,0,0,0-1.3-4.68c-1.37-3-2.36-5.33-4.18-8.87C405.14,254.19,404.9,252.28,408.88,248.48Zm-14.55-6.65a22.37,22.37,0,0,1-5.13,1.69c-6.09,1.16-8.36-.65-8.39-6.51,0-1.61,0-8.38-.15-11.42-.13-2.87,1.1-4,3.82-4.12s5.59-.5,8.31.32c4.63,1.38,6.07,5,6.61,9.08C400.07,235.94,398.11,240.08,394.33,241.83Z" fill="#fff"/><path d="M285.2,209.14c-8.81-5.74-18.11-4.45-27.15-.25a11.37,11.37,0,0,0-5.59,6.5,31.43,31.43,0,0,0-1.79,9.64c-.74,11.82.84,23.53,1.81,35.26.41,5.06.92,10.18,2.67,15a7.39,7.39,0,0,0,8.44,4.78c3.36-.79,4.88-3.27,4.58-7.58-.19-2.67-.43-5.34-.65-8h.05c-.18-3-.3-6.07-.57-9.1-.18-2,.22-2.54,2.57-2.55,3.95,0,7.81-.14,11.5-1.41,8.4-2.89,14.62-8.06,15.54-17.44C297.62,223.64,294.05,214.9,285.2,209.14Zm-8.28,28.28a26.13,26.13,0,0,1-7.63,1c-2.59.05-4.07-.68-4-3.88,0-3.51-.18-7-.21-10.53a3.81,3.81,0,0,1,1.43-3.55c4.54-3.12,13.48-.68,15.89,4.34C285.1,230.47,282.93,235.53,276.92,237.42Z" fill="#fff"/><path d="M464.9,208c-3-.13-21.53.66-27.72,1-3.61.19-7.32.44-10.77,1.81s-5.52,3.62-5.62,7.35c-.1,3.28,2.4,6.13,6.15,7.26a23.58,23.58,0,0,0,9.75,1c3.53-.44,4.17,1,4.16,4.24,0,12.54.62,25.06,1.51,37.57.41,5.82,3.92,9.54,8.7,9.33s7.76-3.82,7.71-9.69c-.1-11.68-.5-23.36-1.59-35-.67-7.07-.73-7.07,6.45-7.65.49,0,1,0,1.46-.08,5.42-.46,8.94-4,8.78-8.81S470.15,208.24,464.9,208Z" fill="#fff"/><path d="M356.31,264.66c-6.7-18.76-9.08-23.23-15.94-41.93-1.47-4-2.7-8.21-4.85-11.34-2.86-4.36-9.82-4.36-12.5-.82a36.47,36.47,0,0,0-3.26,4.89c-8.2,15.26-20.46,44.76-22.83,50.33a7.19,7.19,0,0,0,3.27,9.42c3.23,1.65,6.9.52,9.08-2.85a28.82,28.82,0,0,0,1.86-3.35c.53-1.14,1-2.22,1.52-3.26a2,2,0,0,1,1.93-1.13c3.42.17,6.83.34,10.24.45,1.69.06,8,.31,14,.44a2.43,2.43,0,0,1,2.16,1.4c1.29,2.79,2.73,4.92,3.19,6a6.82,6.82,0,0,0,8.86,4.11c3.39-1.26,5.14-4.76,4.3-8.71A29,29,0,0,0,356.31,264.66Zm-22-12.59c-4.53-.23-9.76-.66-14.27-.88a1.28,1.28,0,0,1-1.1-1.79c2.19-5.31,4.94-11.56,8-18.67a1.23,1.23,0,0,1,2.33.12c1.94,6.1,4.22,13.57,6.28,19.49A1.29,1.29,0,0,1,334.29,252.07Z" fill="#fff"/><path d="M532.92,209.46c-11.34,0-25.84.25-46.53.25-5.58,0-7,3.81-4.29,7.21,4.23,5.27,8.93,9.42,13.51,14.38,5.05,5.47,7.23,8.44,7.4,16,.07,3.17-.07,12.63.09,15.87.43,8.81-9.72,3.12-9.72,10.7,0,4.59,5.39,4.06,15.91,4.18,8.95.1,15.87,1.13,16.4-3.56.85-7.57-9.81-3.06-10-9.65-.17-6.06-.29-10.68-.37-16.59-.09-7.22,2.78-11.63,4.63-13.68,6.74-7.47,9.12-10,14.83-16.58C538.63,213.57,539.77,209.46,532.92,209.46Z" fill="#fff"/><path d="M312.09,59.17c.13,4.28.34,8.58.88,12.82s3.47,6.78,7,6.8,6.55-2.85,7.09-7.13c.29-2.3.41-4.63.49-6.94.15-4.86.21-4.45,5.12-5.49,3.87-.82,5,.6,6.16,3.65s5.29,12.74,7.54,15.38c2,2.34,4.55,3.59,7.74,2.42s4.51-3.72,4.4-6.92a12,12,0,0,0-1.3-4.67c-1.38-3-2.37-5.33-4.18-8.87-2.16-4.21-2.41-6.12,1.58-9.92,7.46-7.13,6.8-21.58,1.7-31.39a17.84,17.84,0,0,0-10.19-8.56,38.82,38.82,0,0,0-25.75-.23c-5.18,1.7-8.28,5-8.63,10.46a223.51,223.51,0,0,0,.28,24.69C312.05,49.9,311.94,54.54,312.09,59.17Zm18.15-35.89c2.77-.08,5.59-.49,8.31.32,4.63,1.39,6.07,5,6.61,9.09.67,5.07-1.29,9.21-5.07,11A22.53,22.53,0,0,1,335,45.34c-6.09,1.15-8.36-.66-8.4-6.51,0-1.62,0-8.38-.14-11.43C326.28,24.53,327.51,23.37,330.24,23.28Z" fill="#fff"/><path d="M595.16,71.28c7-7.61,9.54-16.76,9.76-26.12-.07-9.16-1.83-17.36-7-24.6C586.53,4.73,568.9,8.23,559.65,19,547.77,32.81,548,57.08,560,70.79,569.87,82,585.07,82.28,595.16,71.28ZM566.4,45.08a38.18,38.18,0,0,1,2.35-13.94c1.79-4.63,5.29-7.5,9.43-7.55,5-.06,8.37,2.68,10.09,6.77,4.32,10.35,3.05,20.45-2.7,30a7.92,7.92,0,0,1-8,3.84A10.13,10.13,0,0,1,569,58,26.4,26.4,0,0,1,566.4,45.08Z" fill="#fff"/><path d="M441,75.56a7.47,7.47,0,0,0,8.44,4.55c3.36-.75,4.88-3.12,4.57-7.22-.18-2.54-.42-5.08-.64-7.62h.05c-.18-2.89-.3-5.78-.57-8.67-.18-1.9.22-2.42,2.57-2.42a36.83,36.83,0,0,0,11.5-1.35c8.4-2.75,14.62-7.67,15.54-16.6,1-9.86-2.56-18.18-11.41-23.66s-18.11-4.24-27.15-.24a11,11,0,0,0-5.59,6.19,28.67,28.67,0,0,0-1.79,9.18c-.74,11.25.84,22.4,1.81,33.57C438.73,66.09,439.24,71,441,75.56Zm11.33-52.22c4.54-3,13.48-.65,15.89,4.13,2.73,5.4.56,10.23-5.45,12a28,28,0,0,1-7.63.94c-2.59,0-4.07-.65-4-3.7,0-3.34-.18-6.68-.21-10A3.53,3.53,0,0,1,452.32,23.34Z" fill="#fff"/><path d="M497.28,27.24h0a23.74,23.74,0,0,0,9.75,1c3.53-.44,4.16,1,4.16,4.23,0,12.54.62,25.07,1.5,37.58.42,5.82,3.92,9.54,8.71,9.33s7.76-3.82,7.71-9.69c-.1-11.68-.5-23.37-1.59-35-.67-7.07-.73-7.07,6.45-7.66.48,0,1,0,1.46-.07,5.42-.46,8.94-4,8.78-8.82-.15-4.66-3.73-8-9-8.24-3-.13-21.52.66-27.72,1-3.61.18-7.31.44-10.76,1.81s-5.52,3.62-5.62,7.35C491,23.26,493.53,26.1,497.28,27.24Z" fill="#fff"/><path d="M293.51,74a29.75,29.75,0,0,0,7.18-14.77,7,7,0,0,0-4.41-8.34c-3.19-1.06-6.29.5-8,4.11-.89,1.9-1.48,4-2.46,5.78-2.59,4.82-6.25,5.84-11,3.24-10.43-5.7-14.58-25.15-7.42-34.78a11.5,11.5,0,0,1,13.38-4.06,20.47,20.47,0,0,1,6.77,4.28c2.45,2.09,5.24,2.85,8.06.95s3.57-4.85,2.69-8.17a12,12,0,0,0-3.53-6c-7.63-6.82-16.27-9.81-26.32-6.53-12.57,4.12-20.58,16.67-20.61,31.92.25,2.21.37,4.45.77,6.63,2.58,13.85,8.52,25.26,22.22,30.83C279.33,82.54,287.23,80.69,293.51,74Z" fill="#fff"/><path d="M386.27,37.79c1.57,1.48,4.58,5.57,4.56,8.46,0,5.92.17,15.45,0,21.5-.19,6.6-11.29,2.08-10.41,9.65.55,4.69,7.77,3.66,17.08,3.56,10.95-.12,16.57.41,16.57-4.18,0-7.58-10.57-1.89-10.12-10.7.17-3.24,0-12.7.09-15.86.18-7.6,1.92-7.76,7.18-13.23,4.77-5,9.21-10.23,13.61-15.5,2.85-3.4,4.34-10.14-.12-10.1-21.55.15-41.72.68-53.52.95-4.82.11-5.11,4.42-1.31,9.05C376.08,29,382,33.73,386.27,37.79Z" fill="#fff"/><path d="M351.74,169.92c7-7.6,9.54-16.76,9.77-26.12-.07-9.16-1.83-17.36-7-24.6-11.37-15.83-29-12.33-38.25-1.57-11.88,13.82-11.61,38.09.4,51.8C326.46,180.66,341.65,180.92,351.74,169.92Zm-26.16-13.3A26.28,26.28,0,0,1,323,143.73a37.9,37.9,0,0,1,2.35-13.94c1.78-4.64,5.29-7.51,9.42-7.55A10.26,10.26,0,0,1,344.85,129c4.33,10.35,3.06,20.45-2.69,30a8,8,0,0,1-8,3.84A10.14,10.14,0,0,1,325.58,156.62Z" fill="#fff"/><path d="M509.19,126.83c3.53-.44,4.17,1,4.16,4.24,0,12.54.62,25.06,1.51,37.57.41,5.82,3.92,9.54,8.7,9.33s7.76-3.81,7.71-9.68c-.1-11.69-.49-23.37-1.59-35-.67-7.07-.73-7.07,6.45-7.65.49,0,1,0,1.46-.08,5.42-.46,8.94-4,8.78-8.81s-3.72-8-9-8.25c-3-.12-21.53.66-27.72,1-3.61.19-7.32.44-10.77,1.81s-5.52,3.62-5.62,7.35c-.09,3.28,2.4,6.13,6.15,7.26A23.42,23.42,0,0,0,509.19,126.83Z" fill="#fff"/><path d="M445.8,176.18c3.79-.33,6.39-3.15,6.53-7.56a94.19,94.19,0,0,0-.1-9.66c-.29-5.32.94-12.38,5.55-15.4,2.46-1.6,3.19-2,4.16.77,3,8.44,6.21,16.83,9.34,25.24a14.76,14.76,0,0,0,2.72,5.26,7,7,0,0,0,7.9,2,6.39,6.39,0,0,0,4.56-6.46c0-2.92-1.31-5.62-2.18-8.3A239.07,239.07,0,0,0,472.92,134c-1.13-2.41-.66-3.79,1.31-5.49a88,88,0,0,0,7.28-7.3c3-3.31,3.23-7,.67-9.72-2.42-2.52-6.8-2.72-10.36-.4-2.43,1.59-4.24,3.8-6.24,5.83-4.58,4.63-9.2,9.23-13.81,13.84a.52.52,0,0,1-.89-.3c-.33-4.89-.56-9.78-1-14.66-.37-4-3-6.55-6.57-6.7-3.85-.16-6.72,2.34-7.48,6.68a10.86,10.86,0,0,0-.11,2.61c.61,9.3.14,18.62.44,27.92.25,7.76.36,15.54,1.79,23.21C438.78,174.06,441.86,176.52,445.8,176.18Z" fill="#fff"/><path d="M391.41,108.36c-12.58,4.11-20.58,16.66-20.61,31.92.25,2.21.37,4.44.77,6.62,2.58,13.85,8.52,25.26,22.22,30.83,8.48,3.45,16.38,1.6,22.66-5.11a29.78,29.78,0,0,0,7.18-14.78,7,7,0,0,0-4.41-8.34c-3.19-1.05-6.29.5-8,4.12-.89,1.89-1.48,3.94-2.46,5.78-2.59,4.81-6.25,5.84-11,3.24-10.43-5.7-14.58-25.15-7.42-34.79a11.53,11.53,0,0,1,13.38-4.06,20.64,20.64,0,0,1,6.77,4.28c2.45,2.09,5.24,2.86,8.07,1s3.56-4.84,2.68-8.17a12,12,0,0,0-3.52-6C410.1,108.06,401.46,105.07,391.41,108.36Z" fill="#fff"/><path d="M294.91,149.5c-3.19-1.05-6.28.5-8,4.12-.89,1.89-1.47,3.94-2.46,5.78-2.59,4.81-6.25,5.84-11,3.24-10.43-5.7-14.58-25.15-7.42-34.79a11.53,11.53,0,0,1,13.38-4.06,20.53,20.53,0,0,1,6.77,4.28c2.45,2.09,5.24,2.86,8.07,1s3.57-4.84,2.68-8.17a11.89,11.89,0,0,0-3.52-6c-7.64-6.82-16.28-9.81-26.32-6.52-12.58,4.11-20.58,16.66-20.62,31.92.25,2.21.37,4.44.78,6.62,2.57,13.85,8.52,25.26,22.21,30.83,8.49,3.45,16.38,1.6,22.66-5.11a29.88,29.88,0,0,0,7.19-14.78A7,7,0,0,0,294.91,149.5Z" fill="#fff"/><path d="M689.06,162.82c-4.74.05-9.5-.31-14.22.48-2.69.45-3.84-.3-3.82-3.43.07-12.42,0-24.84.77-36,0-4.34.1-7.39,0-10.43a7.55,7.55,0,0,0-14.57-2.87,12.52,12.52,0,0,0-1,3.12c-2,11-2.34,22.26-2.63,33.43-.18,6.68-.78,13.41.48,20.05,1,5.58,3.53,10.33,9.55,11.72a57.07,57.07,0,0,0,27.46,0c4.62-1.19,7.14-5,6.51-9.23S693.8,162.78,689.06,162.82Z" fill="#fff"/><path d="M637,125.39c-.13-4.61-.34-9.26-1.73-13.71a7.86,7.86,0,0,0-7.65-5.68,7.47,7.47,0,0,0-7.3,5.61,32.47,32.47,0,0,0-1.4,8.23c-.52,17.3.44,34.56,1.52,51.8.36,5.59,3.88,9,8.34,8.81s7.1-3.57,7.71-9.06c1-8.75.39-17.52.55-24C637,138.54,637.15,132,637,125.39Z" fill="#fff"/><path d="M561.45,169.47c.53-1.14,1-2.22,1.52-3.26a2,2,0,0,1,1.93-1.13c3.42.17,6.83.34,10.24.45,1.69.06,8,.31,14,.44a2.43,2.43,0,0,1,2.16,1.4c1.29,2.79,2.73,4.92,3.19,6a6.81,6.81,0,0,0,8.86,4.11c3.39-1.25,5.14-4.76,4.3-8.71a29,29,0,0,0-1.06-3.7c-6.7-18.76-9.08-23.23-15.94-41.93-1.47-4-2.7-8.21-4.85-11.34-2.86-4.36-9.82-4.36-12.5-.82a38.49,38.49,0,0,0-3.26,4.89c-8.2,15.26-20.46,44.76-22.83,50.33a7.19,7.19,0,0,0,3.28,9.42c3.22,1.65,6.89.52,9.07-2.85A28.82,28.82,0,0,0,561.45,169.47Zm7.78-19.61c2.19-5.31,4.94-11.56,8-18.67a1.24,1.24,0,0,1,2.34.12c1.93,6.1,4.21,13.57,6.27,19.49a1.29,1.29,0,0,1-1.23,1.73c-4.53-.23-9.76-.66-14.27-.88A1.28,1.28,0,0,1,569.23,149.86Z" fill="#fff"/><path d="M205.55,98.69a4.19,4.19,0,0,0-4.74-3.85h-.05l-1.14.21a6.23,6.23,0,0,0-.57-7.22,6.29,6.29,0,0,0-.69-6.93,6.24,6.24,0,0,0,.59-4,6,6,0,0,0-6.3-5.12c-.35,0-.72.06-1.11.1l-1-7.43,10.83-15.41a2.94,2.94,0,0,0-2.79-4.61l-5,.66.94-5.17a.79.79,0,1,0-1.55-.28l-1,5.66-13.62,1.81A8.4,8.4,0,1,0,165.79,57.6a8.32,8.32,0,0,0,5.09,1.74,8.44,8.44,0,0,0,1.12-.08,8.24,8.24,0,0,0,3.23-1.13l8.65,7.21.58,4.41a6.8,6.8,0,0,0-2.76-2.31,4.43,4.43,0,0,0-4,.24h0a4,4,0,0,0-1.85,2.47,5.42,5.42,0,0,0,.9,4c1.53,2.42,1.48,3,1.24,3.51a17.94,17.94,0,0,1-2.37,3.54c-2.5,3.19-5.61,7.15-4.31,15.15.15.93.3,2.3.46,4.06a18.54,18.54,0,0,1-2.18,10.6c-3.08,5.54-8.38,8.48-15.75,8.73a31.76,31.76,0,0,1-3.84-.12,5.35,5.35,0,0,0-3.06-2.69,6.07,6.07,0,0,0-3.53.56c-.69-1.6-1.93-4.33-3.66-7.49a3.79,3.79,0,0,0,.7-2.33c-.06-1.69-1.21-3.35-3.23-4.68-2.24-1.47-4.53-3.73-7.77-7.7,3.31-2.13,5.09-6.31,5.67-7.9,7.45-.89,10.07-3.06,10.22-3.2a1.06,1.06,0,0,0,.21-1.35C143,78.8,138.08,76,133.3,74.23a8.95,8.95,0,0,0-3.13-15c2.4-14.3,7.79-24.19,12-30a43.37,43.37,0,0,1,8.74-9.44,1,1,0,0,0-.17-1.81c-6.48-3-13.18.22-16.5,2.32C136,8,134.34,4.2,134.13,3.79a1.06,1.06,0,0,0-1.21-.54c-3.95,1-7.85,4-11.61,8.76a44.22,44.22,0,0,0-2.85,4C116.58,3,113.27.44,112.87.18a1,1,0,0,0-1.13,0C104,4.9,100.6,14.84,99.34,19.71c-5.23-9-9.24-10-9.71-10a1,1,0,0,0-1,.41c-4.91,6.51-5.42,14.6-5.3,18.72a28.07,28.07,0,0,0-6.85-3.28,1.06,1.06,0,0,0-1.35.82C73.15,37,77,47.61,80.61,54.69a75.67,75.67,0,0,0,7.64,12.08c-.5.42-1,.85-1.46,1.27-3.2,2.82-5.73,5-11.17,5.61a5.91,5.91,0,0,0-5.26,3.86,6.23,6.23,0,0,0,1.48,6.42,5.48,5.48,0,0,0,2.55,1.42,5.62,5.62,0,0,0-1,2.28,6.26,6.26,0,0,0,2.48,6.11,5.44,5.44,0,0,0,2.78,1A6,6,0,0,0,78,97.68a5.82,5.82,0,0,0,3.2,5.18,6.15,6.15,0,0,0,5.64-.29c-.31,6.48-1.61,15.11-1.94,17.25-17.75,10.23-21,24.71-24.81,41.44-.73,3.25-1.49,6.6-2.39,10a39.87,39.87,0,0,1-2-5c-6.36-19-6.72-33-7-42.28s-.39-15-7.24-15.51a9,9,0,0,0-7.68,2.65,9.47,9.47,0,0,0-2.28,4.9,8.84,8.84,0,0,0-4.19-2.64,10.31,10.31,0,0,0-10.37,2.79,9.87,9.87,0,0,0-2.36,7.88,8.73,8.73,0,0,0-4.48-1.52A9.67,9.67,0,0,0,1.32,127c-1.16,1.89-2.6,5.92.78,11.67,14.66,26.66,25.35,40,45.94,56.62-1.18,2-2.48,4-3.93,6a6.42,6.42,0,0,0-2.1.79,6.46,6.46,0,0,0-10.26,4.75l-.4,5.79a4.64,4.64,0,0,0,.59,2.59,8,8,0,0,0-1.53,4.24,4.42,4.42,0,0,0,6,4.45c5.52-2.23,9.37-.88,10.71-.24l-.42,5.8a1.08,1.08,0,0,0,.4.9l-3.3,57.3a3.09,3.09,0,0,0,2.93,3.28H47a3.11,3.11,0,0,0,3.1-2.84l5-57.25h0a1.05,1.05,0,0,0,.56-.83l.59-5.67,1.4-.67a4.59,4.59,0,0,0,3.61,1.76,4.75,4.75,0,0,0,1-.11h0c3.09-.82,3.16-.84,3.2-.86a18.93,18.93,0,0,0,3.73-1.56c.54.87,1.1,1.76,1.69,2.66,6.25,9.48,17,22.09,33,28.31a39.39,39.39,0,0,0,9.47,2.24,17,17,0,0,1-2.57,2.51c-5.44,4.26-6.84,8.51-4.29,13a7.69,7.69,0,0,0,4.81,3.82,5.89,5.89,0,0,0,3.83-.36,8.73,8.73,0,0,0,7.43,4.66,7,7,0,0,0,3.33-.84,6.78,6.78,0,0,0,2.82-2.87,6.19,6.19,0,0,0,1.17,1.05,6.75,6.75,0,0,0,3.9,1.18,9.28,9.28,0,0,0,1.06-.07c1.24,3.64,4.86,5.62,8.35,6a14.19,14.19,0,0,0,1.42.07,7.89,7.89,0,0,0,5.7-2,8.16,8.16,0,0,0,6,2.29l.66,0c4.87-.26,7.28-2.61,8.09-5.23l.52,0h0c4.7,0,6.58-2.63,7.29-4.19a9.32,9.32,0,0,0-1.67-9.65,8,8,0,0,0-8.66-2.3,10.27,10.27,0,0,1-4.81.18c-1.92-.53-3.68-1.41-4.13-6.13,0-2.8.13-8.87,2.23-13.65a133.24,133.24,0,0,1,11.24-20c4.42-6.8,7.91-12.16,9.12-19.47a40.27,40.27,0,0,0-.24-13.35l.66-1.42c4.65-10.22,8.12-22.45,10.31-36.34a227.26,227.26,0,0,0,2.46-44.38c0-2.73.48-4,2-4.78l-.34-.66h0l.37.65a9,9,0,0,1,4.67-.94l5.24.34h.08a4.19,4.19,0,0,0,4.12-4.49ZM61.31,165.48s-.06.15-.16.43l.3-1.31C61.41,164.89,61.36,165.18,61.31,165.48Zm76.59,97.76c-1.69-4-2.09-5.73-3.22-11.05l-.2-1c-1.26-5.95-2.44-11.58-8.35-12.06a6.7,6.7,0,0,0-6.39,2.74c0-2.74,0-7.47.26-13.55h.26a63,63,0,0,0,13-1.26c.58,2.57,1.22,5,1.85,7.38,1.62,6.13,3.3,12.46,3.74,21A27.54,27.54,0,0,1,137.9,263.24Z" fill="#fff"/></svg>