<svg xmlns="http://www.w3.org/2000/svg" viewBox="0 0 1282.75 82.24"><path d="M526.1,79.11c7.69.93,15.64-2,21.84-8.7,6.73-7.34,9.71-16,10.5-25,.11-1.23.18-2.46.21-3.7a52.69,52.69,0,0,0-2.79-17.61,38.15,38.15,0,0,0-4.92-9.38,30.36,30.36,0,0,0-8.51-8.17c-.37-.23-.74-.45-1.12-.66a23.39,23.39,0,0,0-5.37-2.18,22.21,22.21,0,0,0-2.26-.49l-.43-.07c-7.56-1.08-15.19,1.64-21,6.6L512,10a31.57,31.57,0,0,0-3,3,36.26,36.26,0,0,0-3.71,5.22c-.35.6-.68,1.21-1,1.82s-.58,1.16-.85,1.75c-.53,1.15-1,2.34-1.43,3.55-.21.61-.41,1.22-.6,1.85-.13.43-.26.85-.37,1.29-.26.94-.48,1.9-.68,2.87,0,.24-.1.49-.14.73-.2,1.08-.37,2.17-.49,3.27-.09.76-.17,1.52-.22,2.29-.08,1.27-.12,2.54-.11,3.81a49,49,0,0,0,2,13.44,40,40,0,0,0,8.05,14.93A26.47,26.47,0,0,0,526.1,79.11Zm-9.7-37.44A41.51,41.51,0,0,1,519,26.38c2-5.09,5.81-8.23,10.34-8.29,5.53-.06,9.19,2.94,11.07,7.43,4.75,11.35,3.35,22.43-3,32.92a8.7,8.7,0,0,1-8.8,4.21,11.11,11.11,0,0,1-9.38-6.84A28.78,28.78,0,0,1,516.4,41.67Z" fill="#fff"/><path d="M651.11,77.27l.77-.1a8.37,8.37,0,0,0,1.43-.39,7.84,7.84,0,0,0,.93-.43c.2-.11.39-.23.58-.35a7.3,7.3,0,0,0,1.36-1.18,7.86,7.86,0,0,0,1.49-2.55c.09-.25.17-.5.24-.76a11.1,11.1,0,0,0,.36-2.53c0-1,.06-2,.07-2.81,0-.45,0-.88,0-1.3V63.66c0-.41,0-.81,0-1.22,0-1.22-.08-2.51-.17-4.06-.26-4.63.55-10.47,3.43-14.34a11.55,11.55,0,0,1,1.64-1.78q.36-.3.75-.57c.09-.06.17-.14.27-.2h0c1.34-.88,2.22-1.42,2.89-1.36a1.15,1.15,0,0,1,.35.1,1.26,1.26,0,0,1,.33.22l.24.3a6.7,6.7,0,0,1,.75,1.58c2.47,7,5.07,13.86,7.66,20.77L679.06,70c.38,1,.74,2,1.2,3a11.68,11.68,0,0,0,.78,1.43,8.33,8.33,0,0,0,1,1.31,8.15,8.15,0,0,0,4.85,2.69,6.85,6.85,0,0,0,1.36.06,8.58,8.58,0,0,0,2.45-.51,6.93,6.93,0,0,0,5-6.46c0-.21.05-.41.05-.63a19.6,19.6,0,0,0-1.62-6.89c-.27-.74-.54-1.48-.78-2.21-1.58-4.9-3.36-9.72-5.29-14.5-2.22-5.5-4.64-10.94-7.17-16.33-1.24-2.65-.72-4.17,1.44-6,1.07-.92,2.09-1.89,3.09-2.88,1.68-1.67,3.29-3.4,4.89-5.13a10.67,10.67,0,0,0,2.21-3.49,7.38,7.38,0,0,0,.38-1.41,6.41,6.41,0,0,0,.09-1.38,6.7,6.7,0,0,0-2-4.38,7.21,7.21,0,0,0-3.46-2,8.67,8.67,0,0,0-1.62-.24h-.13a10.6,10.6,0,0,0-6.15,1.77C677,7.61,675,10,672.83,12.24l0,0c-5,5.08-10.1,10.13-15.15,15.19a.6.6,0,0,1-.29.16.86.86,0,0,1-.16,0,.54.54,0,0,1-.53-.49c-.17-2.59-.32-5.19-.49-7.79,0-.75-.1-1.51-.15-2.26-.14-2-.28-4-.47-6a9.83,9.83,0,0,0-.27-1.58,8.44,8.44,0,0,0-1.16-2.64,7.35,7.35,0,0,0-1.31-1.46,6.84,6.84,0,0,0-1.15-.78,7,7,0,0,0-1.91-.71q-.33-.08-.69-.12l-.72-.06a8.54,8.54,0,0,0-1.53.07,7.39,7.39,0,0,0-2.7.92,8.72,8.72,0,0,0-4,6.34,11.89,11.89,0,0,0-.13,2.86c.09,1.27.15,2.55.2,3.82.2,5.11.18,10.21.17,15.32,0,1.29,0,2.57,0,3.86,0,2.54,0,5.09.11,7.63.27,8.5.4,17,2,25.45a11.35,11.35,0,0,0,1.13,3.3c.13.23.27.46.41.68a7.3,7.3,0,0,0,5.52,3.33A10.28,10.28,0,0,0,651.11,77.27Z" fill="#fff"/><path d="M618.92,73.36c4.28-4.58,6.62-10.15,7.88-16.21a8.14,8.14,0,0,0-1.72-7.07,5.67,5.67,0,0,0-.48-.5c-.18-.16-.36-.32-.56-.47A7.29,7.29,0,0,0,622,48a7.16,7.16,0,0,0-2-.35,6,6,0,0,0-2.07.3,5.27,5.27,0,0,0-.72.27c-.19.09-.39.19-.58.3a7.71,7.71,0,0,0-1.29,1,6.94,6.94,0,0,0-.53.55,10,10,0,0,0-1.62,2.49c-.25.52-.47,1-.68,1.58-.43,1.07-.82,2.16-1.28,3.21-.23.53-.47,1-.74,1.55-2,3.62-4.45,5.29-7.51,5.06a11.47,11.47,0,0,1-4.56-1.51c-11.43-6.25-16-27.59-8.13-38.16A13.16,13.16,0,0,1,593.76,21a12.21,12.21,0,0,1,7-1.94,14.37,14.37,0,0,1,4.2.75,19.09,19.09,0,0,1,5.71,3.28c.58.46,1.14.94,1.71,1.42a9.15,9.15,0,0,0,3.9,2.09,6.21,6.21,0,0,0,5-1.05,7.33,7.33,0,0,0,2.82-3.35,7.22,7.22,0,0,0,.45-1.73,9.89,9.89,0,0,0-.33-3.88,14.45,14.45,0,0,0-.61-1.86,14.61,14.61,0,0,0-.85-1.73,11.77,11.77,0,0,0-.93-1.37l-.24-.3A11.52,11.52,0,0,0,620.33,10a45.62,45.62,0,0,0-3.9-3.1,28,28,0,0,0-15.08-5.5,25.06,25.06,0,0,0-3.86.12,29,29,0,0,0-9.4,2.68,30.33,30.33,0,0,0-7.71,5.16l-.28.23c-.64.61-1.26,1.24-1.85,1.9a33.22,33.22,0,0,0-2.8,3.62,32.76,32.76,0,0,0-1.85,3,40.12,40.12,0,0,0-4.37,13.92,46.12,46.12,0,0,0-.39,5.82c.2,1.75.33,3.51.55,5.25.08.67.18,1.35.3,2a60.39,60.39,0,0,0,5,15.77c.64,1.28,1.34,2.5,2.09,3.69a36.25,36.25,0,0,0,5.55,6.87,34.65,34.65,0,0,0,4.15,3.4A38.8,38.8,0,0,0,594.06,79c.58.23,1.16.45,1.74.64a21.83,21.83,0,0,0,10,1,19.72,19.72,0,0,0,4.67-1.27,22.61,22.61,0,0,0,5.77-3.5A28.33,28.33,0,0,0,618.92,73.36Z" fill="#fff"/><path d="M487.45,48.93A7.46,7.46,0,0,0,485.6,48a7.1,7.1,0,0,0-2-.35h-.31a6.16,6.16,0,0,0-1.86.32l-.4.15a5.33,5.33,0,0,0-.79.4,7.19,7.19,0,0,0-1.3.95,9.15,9.15,0,0,0-.78.85,10.73,10.73,0,0,0-1.37,2.19c-1,2.08-1.61,4.33-2.69,6.34h0A12.55,12.55,0,0,1,471.81,62h0a6.56,6.56,0,0,1-5.17,1.87,11.51,11.51,0,0,1-4.55-1.5C454.58,58.32,450,47.74,450,38v0c0-5.12,1.22-10,3.92-13.66a13.06,13.06,0,0,1,3.8-3.49,12.36,12.36,0,0,1,6.68-1.72,14.71,14.71,0,0,1,4.2.75,18.87,18.87,0,0,1,5.71,3.29c.58.45,1.15.93,1.71,1.41A9.24,9.24,0,0,0,480,26.59a6.19,6.19,0,0,0,4.94-1.05,7.36,7.36,0,0,0,2.83-3.35,8.89,8.89,0,0,0,.12-5.61,16.22,16.22,0,0,0-.62-1.86,13.86,13.86,0,0,0-.85-1.73,12.69,12.69,0,0,0-.93-1.37l-.23-.3A12.55,12.55,0,0,0,484,10a40,40,0,0,0-6.49-4.78,26.33,26.33,0,0,0-16.34-3.7A31.12,31.12,0,0,0,445.75,7.9a29.42,29.42,0,0,0-2.92,2.67,33.48,33.48,0,0,0-5.59,7.59,39.23,39.23,0,0,0-3.37,8.75c-.35,1.38-.64,2.8-.86,4.25-.05.3-.1.61-.14.91a46.13,46.13,0,0,0-.38,5.82c.07.6.13,1.21.18,1.82.18,1.82.33,3.65.66,5.44a56.94,56.94,0,0,0,6.24,18.09A35.72,35.72,0,0,0,457.7,79c.58.24,1.16.45,1.74.64a21.86,21.86,0,0,0,9.85,1,19.82,19.82,0,0,0,4.83-1.29,21.75,21.75,0,0,0,4.38-2.43,25.92,25.92,0,0,0,2.75-2.26c.44-.42.88-.86,1.31-1.32a29,29,0,0,0,5.08-7.55,39.33,39.33,0,0,0,2.8-8.66A7.91,7.91,0,0,0,487.45,48.93Z" fill="#fff"/><path d="M70.41,41.87c0,5.09-.12,10.17,0,15.25.15,4.7.37,9.41,1,14.07.47,3.73,2.69,6.31,5.6,7.15a8.16,8.16,0,0,0,2.12.3A7.37,7.37,0,0,0,85.5,75a10.42,10.42,0,0,0,1.41-4.13c.07-.56.13-1.13.18-1.69.19-2,.29-3.95.35-5.92,0-1,.06-1.86.13-2.51a7.84,7.84,0,0,1,.16-1,2.35,2.35,0,0,1,.24-.6,1.66,1.66,0,0,1,.32-.45,1.76,1.76,0,0,1,.3-.24,4.49,4.49,0,0,1,1.34-.53l.63-.15c.63-.15,1.41-.3,2.34-.49l.16,0a10.8,10.8,0,0,1,2.09-.24q.34,0,.66,0a4,4,0,0,1,.91.21,2.77,2.77,0,0,1,.43.18c1.24.63,1.94,2,2.67,3.83.35.91.93,2.34,1.64,4,.23.54.48,1.1.73,1.68s.48,1.09.74,1.65c.32.72.66,1.44,1,2.16l.39.82c.34.7.68,1.39,1,2a27.3,27.3,0,0,0,2.75,4.52,10,10,0,0,0,2.73,2.3,6.64,6.64,0,0,0,1,.46,7,7,0,0,0,1.09.29l.57.07a7.38,7.38,0,0,0,3.08-.48,8.66,8.66,0,0,0,1.23-.56,6.56,6.56,0,0,0,2.56-2.41,6,6,0,0,0,.5-1,9,9,0,0,0,.53-3.59A13.3,13.3,0,0,0,120,68c-.82-1.76-1.51-3.33-2.29-5-.48-1-1-2.12-1.59-3.33l-.71-1.4q-.23-.44-.42-.84c-1.14-2.34-1.6-4-1-5.79a11.44,11.44,0,0,1,3.15-4.25,18.59,18.59,0,0,0,4.69-7.67,25.15,25.15,0,0,0,1-3.82,31.86,31.86,0,0,0,.44-4.62A39,39,0,0,0,119,13a18.64,18.64,0,0,0-2-3.12,19,19,0,0,0-5-4.32c-.47-.29-1-.55-1.46-.8a23.13,23.13,0,0,0-2.64-1.15A42.84,42.84,0,0,0,92,1.06a44.32,44.32,0,0,0-12.4,2.25,14,14,0,0,0-7.29,4.92,11.48,11.48,0,0,0-1.65,3.43,14.92,14.92,0,0,0-.53,3.13q-.21,3.34-.25,6.69C69.75,28.28,70.09,35.08,70.41,41.87Zm20-24.11c3-.1,6.14-.54,9.11.35,5.08,1.52,6.67,5.53,7.25,10,.74,5.55-1.41,10.09-5.55,12A24.77,24.77,0,0,1,95.54,42c-6.68,1.27-9.17-.72-9.21-7.14,0-1.77,0-9.2-.16-12.54C86,19.13,87.37,17.85,90.36,17.76Z" fill="#fff"/><path d="M334.79,56.18c.19.56.38,1.11.58,1.65.44,1.16.92,2.3,1.45,3.41q.42.87.87,1.71c.26.48.53,1,.8,1.43a37.12,37.12,0,0,0,3.95,5.49c5.39,6.16,12.25,9.31,19.15,9.41h0a23,23,0,0,0,2.48-.1l.24,0a23.86,23.86,0,0,0,6.21-1.5A27.73,27.73,0,0,0,381,70.41a38.64,38.64,0,0,0,7.45-11.81A43.77,43.77,0,0,0,391,49.39a55.63,55.63,0,0,0,.7-7.64C391.61,34.6,390.61,28,388,21.89a37.54,37.54,0,0,0-4-7.13,27.93,27.93,0,0,0-13.2-10.47c-.48-.17-1-.32-1.43-.45a24.18,24.18,0,0,0-13.93.3c-.27.08-.53.17-.8.27a27.86,27.86,0,0,0-5.08,2.36A30.12,30.12,0,0,0,342,13.05c-6.08,7.08-9.26,16.66-9.58,26.4,0,.68,0,1.37,0,2a48.23,48.23,0,0,0,.75,8.14A46.34,46.34,0,0,0,334.79,56.18Zm14.63-14.51A41.51,41.51,0,0,1,352,26.38c2-5.09,5.8-8.23,10.34-8.28,5.53-.07,9.19,2.93,11.07,7.42,4.74,11.35,3.35,22.43-3,32.92a8.7,8.7,0,0,1-8.8,4.21,11.12,11.12,0,0,1-9.39-6.84A28.75,28.75,0,0,1,349.42,41.67Z" fill="#fff"/><path d="M221.11,80.09a8,8,0,0,0,1.65-.58,5.79,5.79,0,0,0,1.24-.78,5.66,5.66,0,0,0,1.9-3.2,10.83,10.83,0,0,0,.22-3.36c-.13-1.86-.3-3.73-.46-5.59l-.24-2.76h.05c0-.74-.09-1.49-.13-2.24-.09-1.63-.18-3.26-.3-4.89-.06-.79-.12-1.58-.19-2.37-.11-1.19,0-1.87.57-2.25a4.15,4.15,0,0,1,2.24-.41,51.16,51.16,0,0,0,9.55-.69,28.24,28.24,0,0,0,3.07-.79c.92-.31,1.81-.64,2.68-1a33.72,33.72,0,0,0,3.73-1.76,24.92,24.92,0,0,0,2.76-1.76,22,22,0,0,0,2.43-2.06,20.16,20.16,0,0,0,2-2.38,18.82,18.82,0,0,0,3.4-9.27C258.43,21.14,254.51,12,244.81,6A26,26,0,0,0,230,2a29.93,29.93,0,0,0-4.09.39A44.73,44.73,0,0,0,215,5.74a10,10,0,0,0-2.44,1.54,12.82,12.82,0,0,0-3.3,4.41c-.13.28-.27.56-.38.84s-.26.66-.38,1a31.45,31.45,0,0,0-1.51,8c0,.37,0,.74-.08,1.11-.66,10.11.38,20.13,1.36,30.16.21,2.22.43,4.44.62,6.67A67.46,67.46,0,0,0,211,72.65c.25.82.51,1.64.81,2.45A8.23,8.23,0,0,0,219,80.26h.7A8.5,8.5,0,0,0,221.11,80.09Zm3.16-62.28c5-3.25,14.79-.71,17.43,4.54,3,5.93.62,11.22-6,13.19a30.13,30.13,0,0,1-8.37,1c-2.84,0-4.47-.71-4.43-4,0-3.67-.19-7.34-.23-11C222.69,20.12,222.89,18.72,224.27,17.81Z" fill="#fff"/><path d="M266.84,14.13c-.1,3.6,2.64,6.72,6.75,8h0a28.86,28.86,0,0,0,5.32,1.08,23.61,23.61,0,0,0,5.38-.05c2.9-.36,4,.46,4.4,2.38,0,.16.05.32.07.5a13.56,13.56,0,0,1,.09,1.77c0,5.16.1,10.32.27,15.47.28,8.59.77,17.18,1.38,25.75.32,4.58,2.4,8,5.48,9.43a9.08,9.08,0,0,0,1,.39l.5.14a8.77,8.77,0,0,0,2.59.27,9.05,9.05,0,0,0,2.71-.51,8.1,8.1,0,0,0,1.08-.49,7.66,7.66,0,0,0,1.52-1.06c2-1.82,3.18-4.75,3.15-8.56q0-4.81-.15-9.61c-.23-9.62-.7-19.22-1.6-28.8-.73-7.76-.8-7.75,7.08-8.4.53,0,1.07,0,1.6-.07.37,0,.73-.08,1.09-.14a10.25,10.25,0,0,0,7-4.09,8.91,8.91,0,0,0,1.54-5.45,10.17,10.17,0,0,0-.23-1.85c-.07-.29-.15-.58-.24-.86a8.64,8.64,0,0,0-2.92-4.11,9.2,9.2,0,0,0-1.37-.89l-.54-.27a10.46,10.46,0,0,0-1.51-.57,9.81,9.81,0,0,0-1.13-.27A14.28,14.28,0,0,0,315.22,3c-2.49-.1-14.44.35-23.16.73h-.19L288,3.93h-.09l-3.07.15c-2,.1-4,.23-6,.51a29.49,29.49,0,0,0-3,.56,21.54,21.54,0,0,0-2.89.92,11.88,11.88,0,0,0-3.07,1.75A8,8,0,0,0,266.84,14.13Z" fill="#fff"/><path d="M9.55,67l.58.78A35.92,35.92,0,0,0,25.21,79a29.2,29.2,0,0,0,3.46,1.15,21.77,21.77,0,0,0,6.68.68c5.41-.32,10.41-2.84,14.71-7.43h0A27.91,27.91,0,0,0,53.39,69,35.82,35.82,0,0,0,58,57.15a8.92,8.92,0,0,0,.15-2.66,9.53,9.53,0,0,0-.17-1.07A7.31,7.31,0,0,0,53.11,48a6.36,6.36,0,0,0-5.55.66c-.18.12-.36.24-.54.38a9.46,9.46,0,0,0-2.67,3.48c-.19.41-.36.82-.53,1.24-.59,1.44-1.12,2.9-1.78,4.29-.13.27-.24.55-.38.81a15.29,15.29,0,0,1-1.24,1.93,7.32,7.32,0,0,1-4.67,3.07,8.39,8.39,0,0,1-4.26-.57,13.88,13.88,0,0,1-1.9-.88,16.42,16.42,0,0,1-3-2.13q-.48-.42-.93-.87a23.22,23.22,0,0,1-3.24-4.11c-.48-.76-.93-1.56-1.34-2.38a34.43,34.43,0,0,1-3.52-15c0-.47,0-.93,0-1.39a26.5,26.5,0,0,1,1.1-6.63,18.53,18.53,0,0,1,2.79-5.65,14.56,14.56,0,0,1,1.4-1.61,12.52,12.52,0,0,1,2.4-1.87,12.23,12.23,0,0,1,3.67-1.45,12.55,12.55,0,0,1,3-.27H32a14.6,14.6,0,0,1,4.13.75,16.73,16.73,0,0,1,3.94,2c.4.27.78.55,1.17.84.79.6,1.55,1.23,2.32,1.88a10.72,10.72,0,0,0,1,.79,9.06,9.06,0,0,0,2.14,1.1,6.14,6.14,0,0,0,2.75.3c.21,0,.41-.06.62-.11a6.5,6.5,0,0,0,1.15-.39,7.08,7.08,0,0,0,1.16-.65,8.63,8.63,0,0,0,1.08-.85,6.88,6.88,0,0,0,1.67-2.33c0-.1.09-.21.13-.32a7.44,7.44,0,0,0,.46-2.81h0a10.89,10.89,0,0,0-.39-2.64,15.23,15.23,0,0,0-.84-2.35c-.13-.29-.27-.57-.41-.84a12.19,12.19,0,0,0-2.6-3.34l0,0a37.22,37.22,0,0,0-9-6.08c-.66-.3-1.32-.59-2-.84-.41-.16-.82-.3-1.23-.44a26.2,26.2,0,0,0-16.66.2A31,31,0,0,0,6.14,15.8a35.68,35.68,0,0,0-2.61,4.85A42.54,42.54,0,0,0,0,37.89C.13,39,.23,40.2.34,41.36s.27,2.54.51,3.79C2.39,53.43,5,60.9,9.55,67Z" fill="#fff"/><path d="M133.84,15.68A129.49,129.49,0,0,0,148,30.15l1,.92c1,.91,1.95,1.77,2.84,2.6l.34.34c.25.27.54.59.83.94a23.31,23.31,0,0,1,1.44,1.94c.19.28.36.55.54.84A11.16,11.16,0,0,1,156.83,43h0c0,.41,0,.83,0,1.26,0,3.48.05,7.83.07,12.07,0,.53,0,1.06,0,1.59V61c0,.5,0,1,0,1.49,0,1.46,0,2.84-.07,4.08a4.71,4.71,0,0,1-.36,1.74c-.62,1.45-2,2.13-3.6,2.6l-.65.18-1.54.37-.55.14a14.91,14.91,0,0,0-1.89.58,8.51,8.51,0,0,0-.91.44,4,4,0,0,0-1.25,1.1,4.28,4.28,0,0,0-.26.42,5.12,5.12,0,0,0-.41,3c.23,1.93,1.48,3,3.5,3.52a13.89,13.89,0,0,0,2.26.4,50.54,50.54,0,0,0,5.82.14c2.18,0,4.59-.13,7.15-.16l4.25,0c5.62,0,9.55-.09,11.77-1.12a3.42,3.42,0,0,0,2.15-3.43,5.11,5.11,0,0,0-.76-3,2.88,2.88,0,0,0-.3-.39h0a4.2,4.2,0,0,0-1-.79,4.42,4.42,0,0,0-.61-.32,7.45,7.45,0,0,0-1-.36c-.33-.11-.68-.2-1-.29l-.53-.13L176,70.94c-2.64-.67-5.07-1.71-4.83-6.24,0-.43,0-1,0-1.58V63c0-1.25,0-2.82,0-4.48h0V57.27c0-2.15,0-4.39,0-6.29,0-1.51,0-2.81,0-3.68.09-4.17.62-6.3,1.84-8.13.16-.23.32-.46.5-.68a17.52,17.52,0,0,1,1.19-1.36c.44-.46.94-1,1.49-1.49l1.34-1.32c.47-.47,1-1,1.51-1.53q2-2,3.86-4.14c3.81-4.19,7.45-8.53,11.07-12.86a12.86,12.86,0,0,0,3-7.77V7.91c-.08-1.58-.74-2.81-2.25-3.13a3.76,3.76,0,0,0-.84-.07c-13.3.09-26.12.31-37.09.55-3.66.07-7.11.15-10.31.23l-11.31.26C130,5.87,129.67,10.6,133.84,15.68Z" fill="#fff"/><path d="M709.2,21.84c.24.09.49.18.75.26q.66.2,1.32.36a26.53,26.53,0,0,0,5.37.82,23.43,23.43,0,0,0,4-.15,10.53,10.53,0,0,1,1.31-.08,4.8,4.8,0,0,1,.55,0c1.92.21,2.53,1.41,2.67,3.53q0,.55,0,1.17c0,8.44.26,16.87.68,25.3q.39,8,1,15.92c.45,6.38,4.3,10.46,9.55,10.23s8.51-4.18,8.46-10.62l-.06-4.69q-.1-7.28-.41-14.53c-.07-1.6-.14-3.2-.23-4.8-.26-4.8-.6-9.6-1-14.39-.35-3.69-.53-5.61.2-6.69s2.75-1.37,6.88-1.71c.26,0,.53,0,.8,0l.8,0,.78-.1a10.6,10.6,0,0,0,6.9-3.58,3.3,3.3,0,0,0,.22-.3,6.15,6.15,0,0,0,.37-.52,8.9,8.9,0,0,0,1.36-5.18,8.8,8.8,0,0,0-3.5-6.91c-.24-.18-.48-.35-.74-.51A11.55,11.55,0,0,0,751.58,3c-1.76-.07-8.26.13-15,.4h-.18l-4.58.19-1.3,0c-3.81.17-7.23.32-9.34.43-4,.21-8,.49-11.81,2a11.26,11.26,0,0,0-3.52,2.11,7.94,7.94,0,0,0-2.65,6A7.81,7.81,0,0,0,707.39,21,11.21,11.21,0,0,0,709.2,21.84Z" fill="#fff"/><path d="M882.5,6.59c-.06.18-.12.35-.17.53-.16.54-.28,1.1-.39,1.65-2.24,12.12-2.56,24.41-2.88,36.67-.2,7.32-.85,14.71.53,22a20.19,20.19,0,0,0,3.19,8.15,12,12,0,0,0,7.28,4.7,71.11,71.11,0,0,0,9.4,1.55q.94.09,1.89.15c1.25.08,2.51.12,3.77.13a58.35,58.35,0,0,0,15.07-1.85,9.83,9.83,0,0,0,5.51-3.51,8.46,8.46,0,0,0,1.72-4.83v-.06a7.38,7.38,0,0,0,0-.94,7.29,7.29,0,0,0-.08-.79c-.68-4.57-4.17-7.56-9.37-7.51h-2c-2.58,0-5.16-.09-7.74,0a45.21,45.21,0,0,0-5.91.53c-.2,0-.4.06-.58.08-2.53.29-3.63-.65-3.61-3.85.08-13.62,0-27.24.84-39.43,0-4.73.11-8.06,0-11.37V8.5A8.57,8.57,0,0,0,892.49.32a7.89,7.89,0,0,0-4.88.45,8.06,8.06,0,0,0-1.46.81,8.38,8.38,0,0,0-.9.7,10.48,10.48,0,0,0-1,1.08,10.37,10.37,0,0,0-1.24,2A12.48,12.48,0,0,0,882.5,6.59Z" fill="#fff"/><path d="M860.25,72c.13-1.15.23-2.3.31-3.45.48-6.62.29-13.12.26-18.66V48.43c0-1,0-1.9,0-2.8,0-9.65.15-16.87-.05-24.08-.14-5.05-.38-10.15-1.89-15a9.1,9.1,0,0,0-3.67-4.89,7.68,7.68,0,0,0-.78-.47,7.76,7.76,0,0,0-4-.88,10.44,10.44,0,0,0-2.45.43,8,8,0,0,0-5.56,5.73,38.49,38.49,0,0,0-1.38,6.75c-.08.76-.13,1.53-.16,2.28q-.21,7.12-.14,14.22c.11,14.22.92,28.41,1.82,42.6.26,4.08,2.05,7.08,4.66,8.58.2.12.41.23.62.33a8.28,8.28,0,0,0,3.86.75C856.58,81.76,859.58,78,860.25,72Z" fill="#fff"/><path d="M775.93,73.59c.38-.59.74-1.19,1.08-1.81s.66-1.24,1-1.87l1.12-2.4c.18-.4.37-.79.55-1.18a1.77,1.77,0,0,1,.36-.53,2,2,0,0,1,.5-.41,2.39,2.39,0,0,1,1.19-.3H782c3.66.19,7.31.37,11,.49l5.92.21,1.07,0c2.56.08,5.51.17,8.4.23a2.66,2.66,0,0,1,2.13,1.16,2.45,2.45,0,0,1,.24.38q.27.57.54,1.11c1.24,2.5,2.49,4.4,2.94,5.5l0,0s0,0,0,.06a8.72,8.72,0,0,0,1,1.76c.09.12.17.24.27.35a7.61,7.61,0,0,0,1,1,7.23,7.23,0,0,0,1.82,1.17,8.11,8.11,0,0,0,.82.31,7.51,7.51,0,0,0,1.95.33,7.62,7.62,0,0,0,2.91-.49l.28-.12a7.41,7.41,0,0,0,4.5-5.58,9.51,9.51,0,0,0-.06-3.86,32.32,32.32,0,0,0-1.06-3.73c0-.11-.07-.22-.1-.33-7.35-20.57-10-25.48-17.49-46l-.21-.59c-.73-2-1.41-4.05-2.17-6a28.92,28.92,0,0,0-2.94-5.86A8.62,8.62,0,0,0,797.79,3,8.06,8.06,0,0,0,791,5.8a40.5,40.5,0,0,0-3.59,5.37c-6.86,12.77-16.32,34.64-21.56,47-1.63,3.83-2.86,6.76-3.47,8.21a8.21,8.21,0,0,0-.4,5.53,7.8,7.8,0,0,0,3.13,4.3,9.17,9.17,0,0,0,.86.5,7.11,7.11,0,0,0,7.54-.58,8.82,8.82,0,0,0,.91-.73A9.26,9.26,0,0,0,775.93,73.59ZM786.5,48.4c2.41-5.83,5.42-12.68,8.77-20.48a1.36,1.36,0,0,1,2.56.13c2.12,6.69,4.62,14.89,6.88,21.38a1.4,1.4,0,0,1-1.35,1.89c-5-.25-10.7-.72-15.65-1A1.41,1.41,0,0,1,786.5,48.4Z" fill="#fff"/><path d="M1139.72,13a19,19,0,0,0-8.81-8.38,22.58,22.58,0,0,0-2.36-1c-1-.36-2-.67-3-.95A42.69,42.69,0,0,0,1114.45,1q-1.77,0-3.54.12c-.59.05-1.18.1-1.77.17-1.18.15-2.36.34-3.53.58a47.36,47.36,0,0,0-5.31,1.41,18.4,18.4,0,0,0-3,1.24,15,15,0,0,0-1.69,1,11.16,11.16,0,0,0-4.42,6.56,15.2,15.2,0,0,0-.41,2.64c-.1,1.66-.17,3.33-.21,5-.19,7.36.18,14.73.52,22.09,0,2.53,0,5.07,0,7.6v0h0c0,2.54,0,5.08.08,7.61.07,2.29.16,4.58.31,6.87l0,.44c.14,2.26.34,4.52.63,6.77.59,4.59,3.81,7.43,7.72,7.44a7.18,7.18,0,0,0,5.16-2.14l0,0a8.6,8.6,0,0,0,1.16-1.49c.18-.3.35-.6.51-.93a10.91,10.91,0,0,0,.9-3.21c.31-2.52.45-5.07.53-7.61,0-1,.06-1.75.12-2.38.25-2.83,1.1-2.71,5.5-3.64a10.15,10.15,0,0,1,2.09-.25,3.79,3.79,0,0,1,3.22,1.45,10.7,10.7,0,0,1,1.45,2.8c1.3,3.38,5.8,14,8.27,16.88a10.73,10.73,0,0,0,2,1.87l.54.34a6,6,0,0,0,.66.35l.17.07a6.44,6.44,0,0,0,2.59.51,8.15,8.15,0,0,0,5.58-2.5l0,0a6.72,6.72,0,0,0,1.5-3.06,9.89,9.89,0,0,0,.21-2.47,13.41,13.41,0,0,0-1.43-5.14c-.33-.7-.63-1.37-.93-2-1.09-2.4-2.1-4.64-3.66-7.69-2.22-4.33-2.59-6.44,1-10.12h0c.23-.24.48-.5.75-.75C1146.05,39.57,1145.31,23.71,1139.72,13ZM1121.9,40.09a23.82,23.82,0,0,1-5.63,1.85c-6.68,1.27-9.17-.71-9.21-7.13,0-1.78,0-9.2-.16-12.54-.15-3.15,1.2-4.42,4.19-4.52s6.14-.54,9.11.35c5.08,1.52,6.67,5.53,7.26,10C1128.19,33.63,1126,38.17,1121.9,40.09Z" fill="#fff"/><path d="M1014.7,31.49c.77-7.81-.85-14.78-5.09-20.42a26.22,26.22,0,0,0-2.57-3,31.18,31.18,0,0,0-4.85-3.89A25.58,25.58,0,0,0,992.71.4a29,29,0,0,0-12.83.77c-.62.17-1.25.36-1.87.56-1,.34-2.08.73-3.11,1.15l-.85.34c-.55.24-1.1.48-1.65.74a10.15,10.15,0,0,0-2.82,2,.81.81,0,0,1-.1.09,13.09,13.09,0,0,0-1,1.12,16.11,16.11,0,0,0-.93,1.35c-.27.45-.53.92-.77,1.41l0,.07c-.18.37-.34.75-.49,1.14a22.66,22.66,0,0,0-.73,2.2c-.16.56-.3,1.12-.42,1.69s-.18.88-.25,1.32a53.2,53.2,0,0,0-.57,5.36c-.2,3.25-.24,6.48-.18,9.71.18,8.88,1.18,17.72,2,26.56.07.81.14,1.61.2,2.41a75.42,75.42,0,0,0,2,13.45c.28,1,.57,2,.93,3a8.37,8.37,0,0,0,6.45,5.35,7.42,7.42,0,0,0,1.41.08,7.56,7.56,0,0,0,1.41-.18,6,6,0,0,0,4-2.71,5.86,5.86,0,0,0,.53-1.13,9.33,9.33,0,0,0,.5-2.8,16,16,0,0,0,0-1.68c-.1-1.46-.22-2.93-.34-4.39L982.8,65h.05c-.05-.83-.09-1.66-.14-2.5s-.09-1.66-.14-2.49c-.09-1.67-.2-3.33-.34-5a7,7,0,0,1,0-.75,2.69,2.69,0,0,1,.16-1.1,1.46,1.46,0,0,1,1.14-.82c.2,0,.43-.07.68-.1s.55,0,.87,0a54.11,54.11,0,0,0,8-.45,25.45,25.45,0,0,0,3.1-.64c.51-.13,1-.29,1.53-.46C1006.87,47.45,1013.69,41.78,1014.7,31.49Zm-21.59,3.77a29.33,29.33,0,0,1-8.37,1.08c-2.84,0-4.47-.74-4.43-4.26.05-3.85-.19-7.7-.23-11.55,0-1.47.19-2.94,1.57-3.89,5-3.42,14.79-.75,17.43,4.76C1002.07,27.63,999.7,33.19,993.11,35.26Z" fill="#fff"/><path d="M1079.93,76.35c.09-.11.17-.23.25-.35s.19-.28.28-.43a8.12,8.12,0,0,0,1-3.12,1.1,1.1,0,0,1,0-.18,9.83,9.83,0,0,0-.18-3.08c-.14-.69-.32-1.37-.51-2s-.42-1.35-.65-2l-1.09-3c-1.8-5-3.32-9-4.71-12.62l-.49-1.29c-3.44-8.85-6.25-15.59-11.19-29-.65-1.75-1.25-3.54-1.89-5.27a33.07,33.07,0,0,0-3.44-7.17A7.92,7.92,0,0,0,1054.33,4a9.48,9.48,0,0,0-8.56,0,5.85,5.85,0,0,0-.79.5,6.26,6.26,0,0,0-1.3,1.27l-1,1.29c-.63.87-1.24,1.75-1.8,2.67-.29.46-.56.92-.81,1.4l-.41.76-.75,1.44c-.48.93-1,1.89-1.48,2.89-.91,1.81-1.84,3.72-2.79,5.7-.64,1.32-1.28,2.67-1.92,4l-1.93,4.16c-1.1,2.42-2.21,4.86-3.29,7.28-.34.78-.69,1.56-1,2.33-5.39,12.15-10,23.29-11.44,26.62a8,8,0,0,0,1,8.25c.14.18.3.35.46.52a7.87,7.87,0,0,0,2.11,1.56c3.54,1.8,7.56.57,10-3.13a31.29,31.29,0,0,0,2-3.68l1.67-3.57a2,2,0,0,1,.36-.54,2.2,2.2,0,0,1,1.16-.65,2,2,0,0,1,.6,0c3.74.18,7.49.37,11.23.5l1.52,0h0l2.38.09,3,.1h.08l2.21.07,1.22,0,1.22,0c1.22,0,2.47.07,3.71.09a2.78,2.78,0,0,1,1.08.28,2.65,2.65,0,0,1,1.29,1.27c.35.76.72,1.48,1.07,2.15l.52,1c.86,1.54,1.59,2.74,1.91,3.52a8.38,8.38,0,0,0,1.68,2.67,7.39,7.39,0,0,0,3,2,7.07,7.07,0,0,0,2.1.37,7.8,7.8,0,0,0,2.91-.48,8,8,0,0,0,1.9-1A7.32,7.32,0,0,0,1079.93,76.35Zm-23.9-25c-5-.25-10.7-.72-15.65-1a1.4,1.4,0,0,1-1.2-2c2.4-5.83,5.41-12.68,8.76-20.48a1.36,1.36,0,0,1,2.56.12c2.12,6.7,4.62,14.9,6.89,21.38A1.41,1.41,0,0,1,1056,51.32Z" fill="#fff"/><path d="M1279.71,13.78c5.17-4.89,3.23-9.2-1.89-9.2-12.42,0-31.64.28-54.31.28h-.06a7.22,7.22,0,0,0-5,1.51c-1.7,1.56-1.61,4.06.26,6.4a128.18,128.18,0,0,0,9.17,9.93c1.88,1.9,3.78,3.81,5.65,5.84,1,1.13,2,2.16,2.79,3.14a30.51,30.51,0,0,1,2.17,2.87c2.06,3.15,3,6.37,3.16,11.58,0,1.95,0,6.09,0,10,0,3,0,5.88.08,7.43.2,4-1.61,5.29-3.8,6-.39.13-.8.24-1.22.34l-.23.06c-2.69.68-5.4,1.23-5.4,5.34a3.63,3.63,0,0,0,.9,2.6,6,6,0,0,0,3.49,1.53l1.17.16q1.23.14,2.73.18l1.56.05c2.18,0,4.71,0,7.6.06l1.22,0c2,0,3.86.11,5.58.14l1.93,0a26,26,0,0,0,5.15-.38,6.18,6.18,0,0,0,.68-.16,4.3,4.3,0,0,0,3.13-2.37,3.86,3.86,0,0,0,.29-1.17,5.93,5.93,0,0,0-.09-2.15,3.63,3.63,0,0,0-.85-1.67,4.41,4.41,0,0,0-.89-.71c-3.12-1.91-9-1-9.13-6.06s-.23-9-.32-13.5c0-1.51-.06-3-.09-4.69-.17-9.11-.56-10.52,4.35-15.29.71-.69,1.52-1.44,2.46-2.29,3.58-3.26,6.42-5.78,8.77-7.84L1274,19,1275,18C1276.79,16.47,1278.27,15.15,1279.71,13.78Z" fill="#fff"/><path d="M1206.63,6l-.05,0a10.49,10.49,0,0,0-6.46-2.9c-.27,0-.54,0-.82-.06l-.8,0h0c-2.33,0-7.54.16-13.09.37l-4.77.19-3.47.15-2.14.09-2.06.09-1.81.09-2.25.11-1.49.08-1.63.12a32.63,32.63,0,0,0-7.25,1.28c-.48.15-1,.32-1.43.51a9.68,9.68,0,0,0-5.13,4.09,7.9,7.9,0,0,0-.54,1.18,9,9,0,0,0-.5,2.78c-.1,3.61,2.63,6.73,6.75,8a25.72,25.72,0,0,0,10.69,1c2.18-.27,3.35.12,4,1.15a7,7,0,0,1,.61,3.5c0,13.76.67,27.5,1.65,41.22a15.27,15.27,0,0,0,.52,3.06,10.92,10.92,0,0,0,2.45,4.53h0a8.86,8.86,0,0,0,1.27,1.11,8.3,8.3,0,0,0,5.29,1.52A8.64,8.64,0,0,0,1188.4,78a9.32,9.32,0,0,0,4-6.88,16.28,16.28,0,0,0,.16-2.47c-.1-11.11-.43-22.2-1.3-33.27-.14-1.71-.28-3.43-.44-5.14-.14-1.46-.25-2.64-.3-3.6,0-.32,0-.62,0-.9,0-1.92.52-2.77,2.1-3.23a31,31,0,0,1,5.28-.67l.44,0c.39,0,.78,0,1.16-.06a11.12,11.12,0,0,0,7.26-3.19,8.82,8.82,0,0,0,1.41-2,9.13,9.13,0,0,0,1-4.47v0a9.58,9.58,0,0,0-.43-2.55A8.59,8.59,0,0,0,1206.63,6Z" fill="#fff"/></svg>