<svg xmlns="http://www.w3.org/2000/svg" viewBox="0 0 126.31 178.77"><path d="M126.3,60.64a2.55,2.55,0,0,0-.94-1.81,2.6,2.6,0,0,0-2-.56h0l-.7.13a3.81,3.81,0,0,0-.35-4.44,3.84,3.84,0,0,0,.39-2.51,3.78,3.78,0,0,0-.82-1.75,3.79,3.79,0,0,0,.37-2.45,3.71,3.71,0,0,0-3.87-3.15l-.69.07-.6-4.57,6.65-9.47A1.8,1.8,0,0,0,122,27.31l-3,.4.58-3.18a.48.48,0,0,0-.39-.56.48.48,0,0,0-.56.39L118,27.84,109.61,29A5.17,5.17,0,1,0,105,36.46a5,5,0,0,0,2.68-.74L113,40.15l.36,2.71a4.27,4.27,0,0,0-1.7-1.42,2.73,2.73,0,0,0-2.47.14l0,0A2.41,2.41,0,0,0,108,43.11a3.33,3.33,0,0,0,.56,2.47c.94,1.49.91,1.83.76,2.16a11.16,11.16,0,0,1-1.46,2.17c-1.53,2-3.44,4.4-2.65,9.31.1.58.19,1.42.28,2.5a11.39,11.39,0,0,1-1.33,6.51c-1.9,3.4-5.15,5.21-9.68,5.36a18.06,18.06,0,0,1-2.36-.07,3.28,3.28,0,0,0-1.88-1.65,3.66,3.66,0,0,0-2.17.34c-.42-1-1.19-2.66-2.25-4.6a2.28,2.28,0,0,0,.43-1.43,3.82,3.82,0,0,0-2-2.88,22.6,22.6,0,0,1-4.77-4.73A10.06,10.06,0,0,0,83,53.71c4.58-.54,6.19-1.88,6.29-2a.66.66,0,0,0,.13-.83c-1.55-2.5-4.56-4.19-7.5-5.31A5.51,5.51,0,0,0,80,36.4,43.88,43.88,0,0,1,87.33,18a26.14,26.14,0,0,1,5.37-5.8.66.66,0,0,0,.27-.59.68.68,0,0,0-.38-.53c-4-1.84-8.1.14-10.13,1.43,1.11-7.58.08-9.9,0-10.15A.65.65,0,0,0,81.67,2c-2.42.64-4.82,2.45-7.13,5.38a25.62,25.62,0,0,0-1.75,2.48C71.64,1.85,69.6.27,69.36.11a.64.64,0,0,0-.7,0c-4.75,2.91-6.85,9-7.62,12-3.21-5.55-5.67-6.12-6-6.17a.65.65,0,0,0-.63.25c-3,4-3.32,9-3.25,11.5a17.2,17.2,0,0,0-4.21-2,.66.66,0,0,0-.53.06.68.68,0,0,0-.3.44C45,22.7,47.32,29.26,49.53,33.61A46,46,0,0,0,54.23,41l-.9.78c-2,1.73-3.52,3.1-6.86,3.45a3.63,3.63,0,0,0-3.24,2.37,3.84,3.84,0,0,0,.91,3.94,3.31,3.31,0,0,0,1.57.87,3.3,3.3,0,0,0-.59,1.4,3.83,3.83,0,0,0,1.52,3.76,3.32,3.32,0,0,0,1.71.62A3.67,3.67,0,0,0,47.9,60a3.59,3.59,0,0,0,2,3.18A3.8,3.8,0,0,0,53.34,63c-.19,4-1,9.28-1.2,10.59C41.24,79.91,39.23,88.81,36.9,99.09c-.45,2-.92,4-1.47,6.15a25.12,25.12,0,0,1-1.24-3.06,82.46,82.46,0,0,1-4.27-26c-.15-5.74-.24-9.21-4.45-9.54a5.59,5.59,0,0,0-4.72,1.63,5.77,5.77,0,0,0-1.4,3,5.44,5.44,0,0,0-2.58-1.62,6.35,6.35,0,0,0-6.37,1.71A6.1,6.1,0,0,0,9,76.24,5.33,5.33,0,0,0,6.2,75.3,5.94,5.94,0,0,0,.81,78c-.71,1.16-1.59,3.63.48,7.17,9,16.38,15.57,24.55,28.23,34.79-.72,1.23-1.53,2.45-2.42,3.68a4,4,0,0,0-1.29.49,3.86,3.86,0,0,0-2.24-.77,3.94,3.94,0,0,0-4.06,3.68l-.24,3.56a2.77,2.77,0,0,0,.36,1.59,4.82,4.82,0,0,0-.94,2.61,2.71,2.71,0,0,0,3.71,2.73,8.06,8.06,0,0,1,6.58-.14L28.72,141a.64.64,0,0,0,.25.55l-2,35.21a1.91,1.91,0,0,0,1.8,2h.11a1.9,1.9,0,0,0,1.9-1.74l3.08-35.18h0a.63.63,0,0,0,.35-.51l.36-3.49.86-.41a2.8,2.8,0,0,0,2.22,1.08,3.05,3.05,0,0,0,.6-.06h0l2-.52a12.14,12.14,0,0,0,2.29-1c.33.54.67,1.08,1,1.64C47.39,144.42,54,152.17,63.81,156a24.5,24.5,0,0,0,5.81,1.37,10,10,0,0,1-1.57,1.54c-3.35,2.62-4.21,5.23-2.64,8a4.65,4.65,0,0,0,3,2.35,3.63,3.63,0,0,0,2.35-.22,5.37,5.37,0,0,0,4.56,2.87,4.36,4.36,0,0,0,2-.52,4.15,4.15,0,0,0,1.73-1.77,3.84,3.84,0,0,0,.72.65,4.15,4.15,0,0,0,2.4.73,4.62,4.62,0,0,0,.65,0A5.91,5.91,0,0,0,88,174.61c.31,0,.6,0,.87,0a4.81,4.81,0,0,0,3.5-1.23A5,5,0,0,0,96,174.83h.41c3-.16,4.47-1.61,5-3.21h.33a4.52,4.52,0,0,0,4.48-2.58,5.71,5.71,0,0,0-1-5.93,4.92,4.92,0,0,0-5.32-1.42,6.29,6.29,0,0,1-3,.12c-1.18-.33-2.26-.87-2.53-3.77a22.24,22.24,0,0,1,1.37-8.39,81.53,81.53,0,0,1,6.9-12.29c2.72-4.18,4.86-7.48,5.61-12a25.11,25.11,0,0,0-.15-8.21l.4-.87A86.88,86.88,0,0,0,114.87,94a139.76,139.76,0,0,0,1.51-27.27c0-1.68.3-2.45,1.24-2.94l-.22-.41h0l.23.4a5.52,5.52,0,0,1,2.86-.58l3.23.21h0a2.56,2.56,0,0,0,1.86-.83A2.5,2.5,0,0,0,126.3,60.64Zm-88.63,41-.1.27c.07-.27.13-.54.19-.81Zm47.06,60.07a30.27,30.27,0,0,1-2-6.79l-.13-.59c-.77-3.66-1.5-7.12-5.13-7.41a4.1,4.1,0,0,0-3.92,1.68c0-1.69,0-4.59.15-8.33h.17a39.14,39.14,0,0,0,7.95-.77c.36,1.57.75,3.06,1.14,4.53A58.43,58.43,0,0,1,85.29,157,16.62,16.62,0,0,1,84.73,161.75Z" fill="#fff"/></svg>