<?xml version="1.0" encoding="utf-8"?>
<!-- Generator: Adobe Illustrator 26.0.2, SVG Export Plug-In . SVG Version: 6.00 Build 0)  -->
<svg version="1.1" id="Layer_1" xmlns="http://www.w3.org/2000/svg" xmlns:xlink="http://www.w3.org/1999/xlink" x="0px" y="0px"
	 viewBox="0 0 692.68 805.43" style="enable-background:new 0 0 692.68 805.43;" xml:space="preserve">
<style type="text/css">
	.st0{fill:#F7C000;}
	.st1{fill:#FFFFFF;}
	.st2{fill:#EF9A00;}
	.st3{fill:#FB5700;}
	.st4{fill:#C8E1FC;}
	.st5{fill:#F5F6F7;}
	.st6{fill:#C8C6C6;}
	.st7{fill:#F3C100;}
	.st8{fill:#F14950;}
	.st9{fill:#FF4166;}
</style>
<g>
	<path class="st0" d="M599.32,344.78c-1.79,2.64-2.33,5.92-1.47,8.99c1.48,5.31,6.7,8.6,12.02,7.81c0.14-0.03,0.27-0.08,0.41-0.11
		c0.13-0.03,0.26-0.03,0.39-0.04c0.17-0.04,0.33-0.06,0.5-0.11l24.38-6.69c9.7-2.66,15.55-12.44,13.3-22.25
		c-2.14-9.37-10.32-15.63-19.04-14.56c-1.44,0.18-2.95,0.39-4.53,0.64l1.51,8.51l6.94-1.22c2.59-0.45,5.06,1.28,5.51,3.87
		c0.45,2.59-1.28,5.06-3.87,5.51l-28.25,4.94C603.95,340.43,601.11,342.14,599.32,344.78z"/>
	<path class="st0" d="M324.41,464.59c2.76-14.16,7.51-27.83,10.12-34.76c-18.77-16.32-30.96-39.73-35.26-67.81
		c-1.17-7.61-1.61-14.59-1.7-20.46c-8.04,9.48-20.03,15.52-33.4,15.52c-24.15,0-43.79-19.64-43.79-43.79
		c0-12.86,5.57-24.43,14.42-32.45c-14.02,0.67-35.89,4.55-57.15,19.91c-8.54,6.17-15.18,12.56-21.6,18.73
		c-13.93,13.4-27.09,26.05-54.57,30.16c-7.94,1.19-13.38,5.38-15.31,11.8c-1.98,6.6,0.17,14.38,5.23,18.91
		c4.79,4.3,11.5,5.14,19.03,2.45c0.23-0.09,0.46-0.18,0.7-0.26c0.35-0.14,0.7-0.27,1.06-0.42c0.49-0.21,0.99-0.3,1.49-0.34
		c0.04,0,0.07-0.01,0.1-0.01c0.17-0.01,0.34-0.01,0.5,0c2,0.03,3.84,1.3,4.47,3.31c0.79,2.51-0.6,5.18-3.11,5.97
		c-0.36,0.11-0.7,0.24-1.04,0.36c-0.25,0.1-0.5,0.19-0.75,0.28c-6.6,2.6-10.65,7.3-11.48,13.41c-0.92,6.83,2.42,14.17,8.12,17.86
		c5.82,3.76,13.21,3.23,20.81-1.51c2.23-1.39,5.17-0.71,6.56,1.52c1.28,2.06,0.79,4.7-1.05,6.19c-0.02,0.02-0.05,0.03-0.07,0.05
		c-0.14,0.11-0.26,0.22-0.41,0.32c-0.06,0.04-0.13,0.07-0.2,0.11c-0.04,0.03-0.08,0.06-0.12,0.09c-6.98,3.97-10.54,9.85-10.01,16.53
		c0.54,6.87,5.35,13.35,11.7,15.75c6.49,2.46,13.6,0.37,20.03-5.85c0.19-0.18,0.39-0.34,0.6-0.49c0.05-0.04,0.11-0.07,0.17-0.1
		c0.18-0.12,0.37-0.22,0.57-0.31c0.07-0.03,0.14-0.07,0.21-0.09c0.26-0.1,0.52-0.19,0.78-0.24c0.03-0.01,0.07-0.01,0.1-0.02
		c0.25-0.05,0.5-0.07,0.76-0.08c0.04,0,0.08-0.01,0.12-0.01c0.03,0,0.07,0.01,0.1,0.01c0.28,0.01,0.57,0.03,0.85,0.09
		c0.02,0,0.03,0.01,0.05,0.01c0.2,0.04,0.41,0.1,0.61,0.17c0.05,0.02,0.1,0.04,0.15,0.06c0.08,0.03,0.16,0.07,0.23,0.1
		c0.19,0.09,0.38,0.19,0.55,0.3c0.06,0.04,0.12,0.07,0.17,0.11c0.22,0.15,0.43,0.33,0.62,0.51c0.04,0.04,0.08,0.09,0.12,0.13
		c0.15,0.16,0.29,0.33,0.41,0.5c0.05,0.07,0.09,0.13,0.14,0.2c0.13,0.2,0.25,0.42,0.35,0.64c0.01,0.03,0.03,0.06,0.04,0.09
		c0.1,0.24,0.18,0.5,0.24,0.76l82.88-19.28L324.41,464.59z"/>
	<path class="st0" d="M396.24,521.14l8.39,10.01c0.69-0.48,1.39-0.96,2.09-1.43c-3.17-6.52-9-17.95-16.99-31.29
		c-7.86,3.99-16.43,0.55-22.86-4.16c-0.54,2.09-1.24,3.99-2.11,5.73l6.36,7.44L396.24,521.14z"/>
	<path class="st0" d="M549.19,440.84c0.71,5.45,0.96,10.88,0.77,16.23c21.73,18.81,50.32,17.38,61.39,15.95
		c-1.61-11.01,3.54-22,13.42-27.74l0.22-0.13c7.53-4.34,16.45-6.56,25.65-6.38l23.58,0.45c2.62-0.2,4.98-1.41,6.68-3.43
		c1.73-2.06,2.51-4.66,2.2-7.33c-0.31-2.68-1.68-5.04-3.85-6.65c-2.14-1.59-4.77-2.21-7.38-1.76l-21.6,4.95
		c-0.92,0.36-1.86,0.68-2.84,0.94l-24.38,6.69c-1.79,0.49-3.6,0.73-5.38,0.73c-8.92,0-17.14-5.92-19.64-14.91
		c-1.53-5.5-0.78-11.14,2.1-15.9c0.73-1.21,1.6-2.32,2.56-3.36c-4.41-2.58-7.86-6.8-9.34-12.09c-1.49-5.35-0.78-10.83,2-15.43
		c0.73-1.2,1.58-2.31,2.53-3.34c-4.35-2.59-7.75-6.77-9.21-12.01c-1.61-5.77-0.6-11.93,2.77-16.89c1.52-2.24,3.44-4.12,5.64-5.57
		c-8.05-25.39-17.3-32.24-22.15-34.04c-3.33-1.24-6.57-0.9-9.64,0.99c-2.14,1.46-3.37,3.2-3.77,5.32c-0.57,3.06,0.61,6.89,3.33,10.8
		c7.37,10.59,10.35,16.98,7.33,24.59c-2.64,6.64-6.75,12.4-11.11,18.49c-10.56,14.77-21.49,30.05-14.87,61.86
		C547.11,426.28,548.12,432.66,549.19,440.84z"/>
	<path class="st1" d="M302.73,292.56c3.33,6.17,5.23,13.23,5.23,20.73c0,2.23-0.17,4.42-0.49,6.56c7.23,0.81,23.66,3.05,42.21,8.13
		c0.12,0.03,0.25,0.07,0.37,0.1c8.09-5.83,12.9-15.16,12.9-25.15c0-17.1-13.91-31-31-31C318.48,271.92,307,280.55,302.73,292.56z
		 M347.25,299.83c0,4.96-4.02,8.99-8.99,8.99c-4.96,0-8.99-4.02-8.99-8.99c0-4.96,4.02-8.99,8.99-8.99
		C343.22,290.85,347.25,294.87,347.25,299.83z"/>
	<path class="st2" d="M314.81,384.28c57.6,1.47,83.53-9.73,92.21-14.79c-23.97-29.03-82.62-38.01-99.57-40.05
		C306.77,338.81,306.34,361.32,314.81,384.28z"/>
	<path class="st2" d="M318.91,393.89c4.74,9.71,11.3,19.19,20.37,27.44c11.49-6.38,18.38-20.78,21.61-29.31
		C349.19,393.37,335.32,394.14,318.91,393.89z"/>
	<path class="st3" d="M172.07,293.02c35.17-25.4,71.03-22.2,78.17-21.24c4.38-1.47,9.05-2.28,13.92-2.28
		c12.7,0,24.15,5.44,32.16,14.11c6.87-12.62,20.26-21.21,35.62-21.21c0.81,0,1.61,0.03,2.4,0.08
		c8.27-66.88,31.44-113.97,49.66-141.9c13.3-20.39,25.76-33.65,33.01-40.56c-12.77-2.97-26.86-0.87-41.99,6.28
		c-13.98,6.6-23.59,15.24-23.69,15.32c-1.47,1.33-3.63,1.61-5.39,0.7c-1.77-0.92-2.78-2.83-2.53-4.81
		c5.26-42.42,2.91-66.48,0.17-76.33c-35.24,14.44-59.14,66.21-59.39,66.75c-0.87,1.91-2.9,3.03-4.98,2.75
		c-2.08-0.28-3.73-1.9-4.06-3.98c-8.08-51.57-19.61-70.08-24.34-75.76c-19.62,14.83-31.24,38.75-37.6,56.64
		c-7.34,20.63-9.47,37.83-9.49,38c-0.25,2.04-1.77,3.69-3.78,4.1c-2.01,0.41-4.06-0.51-5.08-2.29
		c-20.68-35.95-36.76-46.07-42.87-48.8c-24.07,38.21-15.38,87.19-15.29,87.69c0.39,2.11-0.68,4.22-2.62,5.16
		c-1.93,0.93-4.25,0.46-5.66-1.16c-7.24-8.32-23.03-14.3-31.29-16.99c-4.25,43.77,13.68,86.63,29.87,115.36
		c14.23,25.25,29.54,44.14,35.9,51.58C165.73,297.82,168.75,295.42,172.07,293.02z"/>
	<path d="M271.71,673.23c0.12-1.01-0.2-2.02-0.88-2.78c-0.67-0.76-1.64-1.19-2.66-1.19H214.7l21.2-80.75
		c1.74,2.84,4.05,5.33,6.9,7.37c4.98,3.56,11.06,5.37,17.15,5.37c5.05,0,10.12-1.24,14.6-3.76c0.33-0.19,0.65-0.4,0.97-0.6
		c1.4,5.63,3.25,11,5.36,15.61c5.97,13.08,13.81,20.26,21.92,20.26c1.07,0,2.15-0.13,3.23-0.38c7.33-1.73,15.05-4.65,22.34-8.26
		l34.18,181.3h9.69l-35.09-186.1c8.96-5.39,16.59-11.6,21.01-17.5c0.45,0.01,1.04,0.02,1.77,0.02c6.68,0,24.06-0.81,35.72-8.61
		c5.53,2.33,14.91,5.09,24.92,5.9l15.8,206.28h9.55l-15.79-206.18c7.17-0.47,14.14-2.32,19.73-6.41c4.91-3.59,7.51-10.14,7.71-18.76
		l47.64,53.85l-31.08,16.47c-1.4,0.74-2.14,2.33-1.81,3.89l33.68,157.14h74.22c8.28-13.82,25.82-46.06,39.63-91.59
		c10.76-35.49,16.95-71.66,18.38-107.49c1.79-44.82-3.88-89.24-16.86-132.02c-2.44-8.04,0.93-16.6,8.19-20.82
		c0,0,0.13-0.08,0.14-0.08c6.09-3.5,13.25-5.29,20.77-5.14l23.78,0.46c0.12,0,0.25,0,0.37-0.01c5.25-0.31,10.2-2.79,13.58-6.82
		c3.38-4.03,4.97-9.34,4.36-14.56c-0.61-5.25-3.4-10.06-7.64-13.2c-4.24-3.14-9.65-4.41-14.85-3.47c-0.07,0.01-0.14,0.03-0.21,0.04
		l-4.88,1.12c3.04-5.77,4.09-12.61,2.52-19.47c-1.09-4.77-3.45-9.19-6.74-12.78c2.68-5.57,3.55-12.06,2.06-18.55
		c-1.09-4.75-3.35-9.04-6.56-12.6c2.54-5.49,3.34-11.83,1.89-18.18c-3.24-14.15-15.91-23.56-29.49-21.88
		c-1.6,0.2-3.28,0.44-5.03,0.71l-5.93-33.4l45.85-71.83c2.88-4.52,2.83-10.09-0.15-14.55s-8.11-6.64-13.38-5.7l-124.34,22.08
		c-5.28,0.94-9.34,4.75-10.6,9.96c-1.26,5.21,0.6,10.46,4.86,13.71l67.78,51.65l3.52,19.82c-4.66-5.65-9.19-8.52-12.97-9.93
		c-6.09-2.27-12.52-1.6-18.09,1.89l-0.14,0.09c-4.28,2.89-7.01,6.87-7.87,11.52c-1.04,5.59,0.69,11.97,4.87,17.99
		c7.39,10.61,7.27,13.17,6.29,15.63c-2.21,5.56-6,10.86-10.01,16.47c-10.65,14.9-23.91,33.44-16.44,69.34
		c0.87,4.17,1.84,10.31,2.88,18.25c2.23,17-0.44,33.71-7.73,48.32c-12.8,25.67-36.15,40.01-69.41,42.61
		c-6.09,0.48-11.98,0.5-17.42,0.25c-4.18-6.22-9.12-10.68-14.34-11.57c-4.87-0.83-10.38,0.66-15.83,3.26
		c-3.45-7.11-9.61-19.16-18.03-33.11c2.03-3.18,2.99-6.88,2.67-10.68c-0.63-7.61-6.16-14.89-15.55-20.5
		c-10.41-6.21-21.19-15.97-36.64-33.26c14.53-10.28,21.73-29.55,24.02-36.85c33.5-5.51,44.92-15.85,45.58-16.47
		c1.7-1.6,1.99-4.21,0.67-6.14c-10.44-15.35-29.56-27.64-56.91-36.59c7.38-7.51,11.63-17.66,11.63-28.4
		c0-18.25-12.12-33.71-28.74-38.77c7.96-65.11,30.38-110.87,47.99-137.97c19.49-29.99,37.45-44.26,37.62-44.4
		c1.34-1.04,2.02-2.72,1.79-4.4s-1.34-3.11-2.91-3.76c-29.9-12.27-59.54,3.63-74.09,13.77c5.7-56.07-2.59-72.81-3.61-74.63
		c-1.1-1.96-3.43-2.88-5.58-2.21c-17.62,5.54-34.68,19.64-50.72,41.91c-4.96,6.89-9.02,13.47-12.07,18.82
		c-11.08-58.52-26.57-69.49-28.42-70.61c-1.59-0.96-3.59-0.91-5.13,0.13c-33.98,22.99-47.42,68.59-52.12,90.87
		c-25.45-39.81-43.73-43.22-45.89-43.48c-1.76-0.22-3.51,0.57-4.51,2.03c-20.88,30.44-21.54,67.07-20.18,85.7
		c-13.26-8.56-30.69-13.21-31.62-13.45c-1.32-0.35-2.72-0.11-3.85,0.64c-1.13,0.75-1.89,1.95-2.08,3.3
		c-6.8,48.39,12.81,95.82,30.46,127.09c14.82,26.25,30.41,45.44,36.98,53.06c-2.18,2.03-4.28,4.04-6.35,6.04
		c-13.91,13.38-24.9,23.95-49.37,27.6c-11.63,1.74-20.02,8.48-23.02,18.49c-3.05,10.17,0.16,21.72,7.99,28.74
		c3.4,3.05,7.42,5.01,11.81,5.88c-2.05,3.1-3.39,6.63-3.91,10.5c-1.42,10.52,3.56,21.42,12.39,27.13c4.02,2.6,8.52,3.92,13.23,3.99
		c-1.65,3.73-2.37,7.8-2.04,12.06c0.83,10.58,7.99,20.19,17.83,23.92c7.14,2.7,14.78,1.98,21.88-1.87
		c-0.52,34.04-4.02,53.76-12.98,74.99c-4.07,9.65-3.2,19.62,2.33,27.59c-0.27,1.09-0.53,2.18-0.81,3.27
		c-9.87,38.94-25.27,76.53-45.78,111.72C73.62,730.14,40.32,770.1,0,805.43h256.25L271.71,673.23z M658.2,394.51
		c2.25,9.81-3.6,19.58-13.3,22.25l-24.38,6.69c-5.75,1.58-11.72-1.81-13.32-7.55c-0.83-2.98-0.46-5.88,1.07-8.4
		c1.81-2.98,5.04-5.09,9.09-5.95c0.03-0.01,0.06-0.02,0.09-0.03c0.3-0.07,0.61-0.13,0.91-0.22l24.38-6.69
		c4.8-1.32,8.96-3.79,12.28-7.03C656.54,389.61,657.62,391.96,658.2,394.51z M650.58,356.56c1.39,1.97,2.39,4.21,2.94,6.61
		c2.25,9.81-3.6,19.58-13.3,22.25l-24.38,6.69c-5.75,1.58-11.72-1.81-13.32-7.55c-0.79-2.84-0.45-5.59,0.98-7.96
		c1.64-2.71,4.64-4.75,8.27-5.67c0.64-0.11,1.27-0.24,1.91-0.42l24.38-6.69C642.98,362.47,647.22,359.91,650.58,356.56z
		 M635.38,335.14c2.59-0.45,4.32-2.92,3.87-5.51c-0.45-2.59-2.92-4.32-5.51-3.87l-6.94,1.22l-1.51-8.51
		c1.57-0.25,3.09-0.46,4.53-0.64c8.71-1.07,16.9,5.18,19.04,14.56c2.25,9.81-3.6,19.58-13.3,22.25l-24.38,6.69
		c-0.17,0.05-0.33,0.07-0.5,0.11c-0.13,0.02-0.26,0.02-0.39,0.04c-0.14,0.03-0.27,0.08-0.41,0.11c-5.32,0.78-10.55-2.5-12.02-7.81
		c-0.86-3.07-0.32-6.35,1.47-8.99c1.79-2.64,4.64-4.35,7.81-4.7L635.38,335.14z M549.6,240.01l-23.91-18.22
		c-1.82-1.39-1.52-3.33-1.38-3.89c0.14-0.56,0.76-2.43,3.01-2.83l124.34-22.08c0.27-0.05,0.52-0.07,0.76-0.06
		c0.07,0,0.14,0.01,0.21,0.02c0.16,0.01,0.32,0.02,0.46,0.05c0.08,0.02,0.15,0.04,0.23,0.06c0.13,0.03,0.25,0.07,0.37,0.12
		c0.07,0.03,0.14,0.06,0.2,0.09c0.11,0.05,0.21,0.1,0.3,0.16c0.06,0.04,0.12,0.07,0.17,0.11c0.09,0.06,0.17,0.12,0.25,0.19
		c0.05,0.04,0.1,0.08,0.14,0.11c0.08,0.07,0.14,0.13,0.21,0.2c0.03,0.03,0.07,0.07,0.1,0.1c0.06,0.07,0.12,0.13,0.17,0.2
		c0.02,0.02,0.04,0.05,0.06,0.07c0.06,0.08,0.11,0.15,0.15,0.21c0.32,0.48,1.27,2.2,0.04,4.13l-16.32,25.57l0,0l-30.53,47.83
		c-0.67,1.05-0.86,2.26-0.66,3.39l-0.01,0l7.09,39.91c0,0,0,0,0,0c0,0,0,0,0,0l2.34,13.19l-11.24,1.97l-9.43-53.08l-0.01,0
		c-0.2-1.13-0.8-2.2-1.79-2.96L549.6,240.01z M561.06,360.02c4.36-6.09,8.48-11.85,11.11-18.49c3.02-7.61,0.05-13.99-7.33-24.59
		c-2.72-3.9-3.9-7.74-3.33-10.8c0.4-2.12,1.63-3.86,3.77-5.32c3.07-1.9,6.32-2.23,9.64-0.99c4.85,1.8,14.1,8.64,22.15,34.04
		c-2.2,1.45-4.12,3.33-5.64,5.57c-3.36,4.96-4.37,11.12-2.77,16.89c1.46,5.24,4.86,9.42,9.21,12.01c-0.95,1.03-1.81,2.14-2.53,3.34
		c-2.78,4.6-3.48,10.08-2,15.43c1.47,5.29,4.93,9.5,9.34,12.09c-0.96,1.03-1.82,2.15-2.56,3.36c-2.88,4.76-3.63,10.4-2.1,15.9
		c2.5,8.99,10.72,14.91,19.64,14.91c1.78,0,3.58-0.24,5.38-0.73l24.38-6.69c0.97-0.27,1.92-0.58,2.84-0.94l21.6-4.95
		c2.62-0.45,5.24,0.18,7.38,1.76c2.17,1.61,3.54,3.97,3.85,6.65c0.31,2.67-0.47,5.28-2.2,7.33c-1.69,2.02-4.06,3.23-6.68,3.43
		l-23.58-0.45c-9.19-0.19-18.11,2.04-25.65,6.38l-0.22,0.13c-9.88,5.74-15.03,16.73-13.42,27.74c-11.07,1.44-39.65,2.86-61.39-15.95
		c0.19-5.36-0.06-10.78-0.77-16.23c-1.07-8.17-2.08-14.55-3-18.95C539.57,390.07,550.5,374.79,561.06,360.02z M303.83,623.13
		c-4.19,0.98-9.8-4.73-14.29-14.57c-8.72-19.11-9.64-44.32-1.82-49.94c11.89-8.55,40.41-0.94,53.62,3.81
		c0.33,7.24,1.88,23.71,9.07,33.86C343.23,605.73,322.9,618.62,303.83,623.13z M390.75,585.06c-9.62,6.8-26.08,7.29-31.37,7.26
		c-6.23-6.75-8.18-22.48-8.54-30.68c13.62-8.29,30.03-7.54,35.85-6.94C393.01,567.02,391.5,580.56,390.75,585.06z M429.25,531.07
		c5.04,0.86,13.46,13.63,17.18,29.44c2.81,11.94,1.95,21.62-2.2,24.65c-11.56,8.45-33.51,3.9-43.82-0.23
		c0.92-6.6,1.69-20.46-4.84-33.77c2.52-2.43,6.76-6.34,11.65-10.09C420.01,531.28,426.52,530.61,429.25,531.07z M379.23,468.83
		c6.59,3.93,10.58,8.71,10.94,13.11c0.27,3.29-1.49,5.53-3.03,6.83c-7.96,6.75-20.01-7.12-20.13-7.25c-1.27-1.5-3.34-2.06-5.19-1.41
		c-1.86,0.65-3.12,2.37-3.19,4.33c-0.24,7.06-2.03,12.27-5.18,15.07c-2.37,2.11-5.61,3-9.65,2.66c-7.13-0.6-11.11-5.38-11.84-14.21
		c-1.35-16.38,6.21-40.15,10.46-51.95C357.5,452.68,368.43,462.39,379.23,468.83z M339.27,421.32
		c-9.06-8.25-15.63-17.73-20.37-27.44c16.41,0.25,30.29-0.51,41.98-1.87C357.66,400.55,350.77,414.94,339.27,421.32z M407.03,369.49
		c-8.68,5.06-34.62,16.25-92.21,14.79c-8.47-22.95-8.04-45.46-7.36-54.83C324.4,331.47,383.06,340.46,407.03,369.49z M362.95,302.92
		c0,10-4.81,19.32-12.9,25.15c-0.12-0.03-0.25-0.07-0.37-0.1c-18.55-5.08-34.99-7.32-42.21-8.13c0.32-2.14,0.49-4.33,0.49-6.56
		c0-7.49-1.89-14.55-5.23-20.73c4.27-12.01,15.75-20.64,29.22-20.64C349.04,271.92,362.95,285.83,362.95,302.92z M127,248.64
		c-16.19-28.73-34.12-71.58-29.87-115.36c8.26,2.69,24.05,8.67,31.29,16.99c1.41,1.62,3.73,2.1,5.66,1.16
		c1.93-0.93,3-3.04,2.62-5.16c-0.09-0.5-8.78-49.49,15.29-87.69c6.11,2.72,22.19,12.85,42.87,48.8c1.02,1.78,3.07,2.7,5.08,2.29
		c2.01-0.41,3.53-2.06,3.78-4.1c0.02-0.17,2.15-17.38,9.49-38c6.37-17.89,17.98-41.81,37.6-56.64c4.72,5.68,16.26,24.18,24.34,75.76
		c0.33,2.08,1.98,3.7,4.06,3.98c2.08,0.29,4.11-0.83,4.98-2.75c0.25-0.54,24.15-52.31,59.39-66.75c2.74,9.85,5.08,33.9-0.17,76.33
		c-0.25,1.98,0.77,3.89,2.53,4.81c1.77,0.92,3.92,0.64,5.39-0.7c0.1-0.09,9.71-8.72,23.69-15.32c15.14-7.15,29.22-9.25,41.99-6.28
		c-7.24,6.91-19.71,20.17-33.01,40.56c-18.22,27.93-41.4,75.01-49.66,141.9c-0.79-0.05-1.59-0.08-2.4-0.08
		c-15.36,0-28.75,8.59-35.62,21.21c-8.01-8.67-19.46-14.11-32.16-14.11c-4.87,0-9.54,0.81-13.92,2.28
		c-7.15-0.95-43.01-4.16-78.17,21.24c-3.32,2.4-6.34,4.8-9.16,7.2C156.54,292.78,141.23,273.89,127,248.64z M298.43,313.29
		c0,18.89-15.37,34.26-34.26,34.26s-34.27-15.37-34.27-34.26s15.37-34.26,34.27-34.26S298.43,294.39,298.43,313.29z M199.31,582.36
		c-4.67-4.64-5.87-11.29-3.4-18.77c0.1-0.25,0.2-0.49,0.3-0.75c0.91-2.31-0.11-4.94-2.34-6.03c-2.23-1.09-4.93-0.27-6.19,1.87
		l-0.12,0.2c-0.15,0.26-0.28,0.53-0.38,0.81c-0.06,0.18-0.12,0.35-0.19,0.53c-3.45,8.14-9.01,13.13-15.74,14.08
		c-6.4,0.9-13.2-1.97-17.32-7.33c-2.42-3.14-5.89-9.82-1.92-19.22c10.32-24.46,13.8-46.71,13.8-88.17c0-0.37-0.05-0.73-0.13-1.08
		l0,0c-0.06-0.26-0.14-0.52-0.24-0.76c-0.01-0.03-0.03-0.06-0.04-0.09c-0.1-0.22-0.22-0.44-0.35-0.64c-0.04-0.07-0.09-0.13-0.14-0.2
		c-0.13-0.18-0.27-0.34-0.41-0.5c-0.04-0.04-0.08-0.09-0.12-0.13c-0.19-0.19-0.4-0.36-0.62-0.51c-0.06-0.04-0.11-0.07-0.17-0.11
		c-0.18-0.11-0.36-0.21-0.55-0.3c-0.08-0.04-0.15-0.07-0.23-0.1c-0.05-0.02-0.1-0.05-0.15-0.06c-0.2-0.07-0.4-0.13-0.61-0.17
		c-0.02,0-0.03-0.01-0.05-0.01c-0.28-0.06-0.56-0.08-0.85-0.09c-0.03,0-0.07-0.01-0.1-0.01c-0.04,0-0.08,0.01-0.12,0.01
		c-0.26,0.01-0.51,0.03-0.76,0.08c-0.03,0.01-0.07,0.01-0.1,0.02c-0.27,0.06-0.53,0.14-0.78,0.24c-0.07,0.03-0.14,0.06-0.21,0.09
		c-0.2,0.09-0.38,0.19-0.57,0.31c-0.06,0.04-0.11,0.07-0.17,0.1c-0.21,0.15-0.41,0.31-0.6,0.49c-6.43,6.23-13.54,8.31-20.03,5.85
		c-6.35-2.4-11.17-8.88-11.7-15.75c-0.52-6.69,3.03-12.56,10.01-16.53c0.05-0.03,0.08-0.06,0.12-0.09c0.07-0.04,0.13-0.07,0.2-0.11
		c0.15-0.09,0.27-0.21,0.41-0.32c0.02-0.02,0.05-0.03,0.07-0.05c1.83-1.49,2.33-4.13,1.05-6.19c-1.39-2.23-4.33-2.92-6.56-1.52
		c-7.6,4.73-14.99,5.27-20.81,1.51c-5.7-3.69-9.04-11.03-8.12-17.86c0.82-6.11,4.88-10.81,11.48-13.41c0.25-0.09,0.5-0.19,0.75-0.28
		c0.34-0.12,0.69-0.25,1.04-0.36c2.51-0.79,3.9-3.47,3.11-5.97c-0.63-2.01-2.47-3.28-4.47-3.31c-0.17-0.01-0.33-0.01-0.5,0
		c-0.03,0-0.07,0.01-0.1,0.01c-0.5,0.04-1,0.14-1.49,0.34c-0.36,0.15-0.71,0.28-1.06,0.42c-0.23,0.09-0.47,0.17-0.7,0.26
		c-7.53,2.69-14.24,1.85-19.03-2.45c-5.06-4.54-7.21-12.31-5.23-18.91c1.93-6.42,7.36-10.62,15.31-11.8
		c27.48-4.11,40.64-16.76,54.57-30.16c6.42-6.18,13.06-12.56,21.6-18.73c21.26-15.36,43.13-19.24,57.15-19.91
		c-8.85,8.02-14.42,19.6-14.42,32.45c0,24.15,19.64,43.79,43.79,43.79c13.38,0,25.37-6.04,33.4-15.52
		c0.09,5.87,0.54,12.85,1.7,20.46c4.3,28.09,16.49,51.49,35.26,67.81c-2.61,6.93-7.36,20.6-10.12,34.76
		c-1.62,8.32-2.55,16.8-1.94,24.17c1.1,13.35,8.78,21.92,20.53,22.91c0.82,0.07,1.62,0.1,2.41,0.1c5.63,0,10.56-1.75,14.37-5.13
		c2.03-1.8,3.69-4.03,4.99-6.64c0.86-1.74,1.57-3.64,2.11-5.73c6.43,4.71,15,8.15,22.86,4.16c7.99,13.35,13.82,24.78,16.99,31.29
		c-0.71,0.47-1.4,0.95-2.09,1.43c-7.36,5.18-13.62,11.08-16.66,14.11c-6.85-0.77-26.07-1.74-42.53,8.54
		c-10.15-3.75-45.77-15.49-63.28-2.9c-8.85,6.37-10.61,20.88-8.64,35.57c-1.07,1.05-2.28,1.97-3.64,2.74
		c-6.62,3.72-15.48,3.29-21.55-1.06c-4.91-3.51-7.22-9.09-6.67-15.9c0.16-0.93,0.29-1.88,0.39-2.85c0.03-0.18,0.05-0.37,0.06-0.55
		l0.01-0.22c0.12-2.59-1.85-4.79-4.44-4.97c-2.55-0.16-4.83,1.75-5.06,4.33c0,0.04-0.01,0.07-0.01,0.1c-0.17,0.98-0.3,1.96-0.4,2.92
		c-1.44,7.88-5.65,13.42-12.05,15.76C213.09,589.35,204.51,587.54,199.31,582.36z"/>
	<path class="st1" d="M264.16,279.02c-18.89,0-34.27,15.37-34.27,34.26s15.37,34.26,34.27,34.26s34.26-15.37,34.26-34.26
		S283.06,279.02,264.16,279.02z M263.92,322.96c-5.36,0-9.71-4.35-9.71-9.71c0-5.36,4.35-9.71,9.71-9.71s9.71,4.35,9.71,9.71
		C273.63,318.61,269.28,322.96,263.92,322.96z"/>
	<polygon class="st4" points="606.18,330.6 617.41,328.62 615.07,315.44 615.07,315.43 615.07,315.43 607.98,275.52 596.75,277.52 	
		"/>
	<path class="st4" d="M639.19,224.3L639.19,224.3l16.32-25.57c1.23-1.93,0.28-3.65-0.04-4.13c-0.04-0.06-0.09-0.13-0.15-0.21
		c-0.02-0.02-0.04-0.05-0.06-0.07c-0.05-0.06-0.11-0.13-0.17-0.2c-0.03-0.03-0.07-0.07-0.1-0.1c-0.06-0.06-0.13-0.13-0.21-0.2
		c-0.04-0.04-0.09-0.08-0.14-0.11c-0.08-0.06-0.16-0.12-0.25-0.19c-0.06-0.04-0.11-0.07-0.17-0.11c-0.1-0.06-0.2-0.11-0.3-0.16
		c-0.07-0.03-0.13-0.06-0.2-0.09c-0.11-0.05-0.24-0.08-0.37-0.12c-0.07-0.02-0.15-0.04-0.23-0.06c-0.15-0.03-0.3-0.04-0.46-0.05
		c-0.07,0-0.14-0.02-0.21-0.02c-0.24,0-0.49,0.01-0.76,0.06l-124.34,22.08c-2.25,0.4-2.87,2.27-3.01,2.83
		c-0.14,0.56-0.44,2.5,1.38,3.89l23.91,18.22L639.19,224.3L639.19,224.3z"/>
	<path class="st0" d="M618.36,401.29c-0.3,0.08-0.61,0.15-0.91,0.22c-0.03,0.01-0.06,0.02-0.09,0.03c-4.05,0.86-7.28,2.97-9.09,5.95
		c-1.53,2.52-1.9,5.43-1.07,8.4c1.6,5.74,7.57,9.13,13.32,7.55l24.38-6.69c9.7-2.67,15.55-12.44,13.3-22.25
		c-0.58-2.55-1.66-4.89-3.18-6.94c-3.32,3.24-7.49,5.72-12.28,7.03L618.36,401.29z"/>
	<path class="st0" d="M613.68,370.51c-0.64,0.17-1.27,0.31-1.91,0.42c-3.64,0.92-6.64,2.96-8.27,5.67
		c-1.43,2.37-1.77,5.12-0.98,7.96c1.6,5.74,7.57,9.13,13.32,7.55l24.38-6.69c9.7-2.66,15.55-12.44,13.3-22.25
		c-0.55-2.41-1.55-4.64-2.94-6.61c-3.36,3.36-7.61,5.91-12.52,7.26L613.68,370.51z"/>
	<path class="st5" d="M306.03,632.4c-1.08,0.26-2.16,0.38-3.23,0.38c-8.11,0-15.95-7.18-21.92-20.26
		c-2.11-4.61-3.96-9.98-5.36-15.61c-0.32,0.2-0.64,0.41-0.97,0.6c-4.48,2.52-9.55,3.76-14.6,3.76c-6.1,0-12.17-1.81-17.15-5.37
		c-2.85-2.04-5.16-4.53-6.9-7.37l-21.2,80.75h53.49c1.01,0,1.98,0.43,2.66,1.19c0.67,0.76,0.99,1.77,0.88,2.78l-15.46,132.2h106.29
		l-34.18-181.3C321.07,627.74,313.35,630.66,306.03,632.4z"/>
	<path class="st5" d="M474.11,644.41l31.08-16.47l-47.64-53.85c-0.19,8.62-2.8,15.17-7.71,18.76c-5.59,4.09-12.56,5.93-19.73,6.41
		l15.79,206.18h60.07L472.3,648.3C471.97,646.74,472.71,645.16,474.11,644.41z"/>
	<path class="st6" d="M395.64,593.25c-11.65,7.8-29.03,8.61-35.72,8.61c-0.72,0-1.31-0.01-1.77-0.02
		c-4.41,5.9-12.04,12.11-21.01,17.5l35.09,186.1h64.12l-15.8-206.28C410.55,598.34,401.17,595.57,395.64,593.25z M374.71,631.86
		c-0.05-4.5,3.56-8.2,8.06-8.25c4.5-0.05,8.2,3.56,8.25,8.06c0.05,4.5-3.56,8.2-8.06,8.25
		C378.45,639.98,374.76,636.37,374.71,631.86z M380.69,679.98c-0.05-4.5,3.56-8.2,8.06-8.25c4.5-0.05,8.2,3.56,8.25,8.06
		c0.05,4.5-3.56,8.2-8.06,8.25S380.74,684.48,380.69,679.98z M386.67,728.1c-0.05-4.5,3.56-8.2,8.06-8.25
		c4.5-0.05,8.2,3.56,8.25,8.06c0.05,4.5-3.56,8.2-8.06,8.25C390.41,736.21,386.72,732.6,386.67,728.1z M400.9,784.28
		c-4.5,0.05-8.2-3.56-8.25-8.06c-0.05-4.5,3.56-8.2,8.06-8.25c4.5-0.05,8.2,3.56,8.25,8.06C409.01,780.53,405.4,784.23,400.9,784.28
		z"/>
	<path class="st7" d="M232.21,571.01c0.09-0.96,0.22-1.93,0.4-2.92c0-0.03,0.01-0.07,0.01-0.1c0.23-2.58,2.51-4.49,5.06-4.33
		c2.58,0.17,4.56,2.38,4.44,4.97l-0.01,0.22c-0.01,0.19-0.03,0.37-0.06,0.55c-0.1,0.97-0.23,1.92-0.39,2.85
		c-0.56,6.81,1.76,12.39,6.67,15.9c6.07,4.34,14.93,4.78,21.55,1.06c1.36-0.76,2.57-1.69,3.64-2.74
		c-1.97-14.69-0.21-29.2,8.64-35.57c17.51-12.59,53.13-0.85,63.28,2.9c16.47-10.27,35.69-9.3,42.53-8.54
		c3.04-3.02,9.3-8.93,16.66-14.11l-8.39-10.01l-25.11-13.71l-6.36-7.44c-1.3,2.62-2.96,4.84-4.99,6.64
		c-3.8,3.38-8.74,5.13-14.37,5.13c-0.79,0-1.59-0.03-2.41-0.1c-11.75-1-19.43-9.56-20.53-22.91c-0.61-7.37,0.32-15.85,1.94-24.17
		l-75.85-25.36l-82.88,19.28l0,0c0.08,0.35,0.13,0.71,0.13,1.08c0,41.46-3.48,63.71-13.8,88.17c-3.97,9.4-0.5,16.08,1.92,19.22
		c4.12,5.35,10.92,8.23,17.32,7.33c6.73-0.95,12.29-5.93,15.74-14.08c0.06-0.18,0.12-0.35,0.19-0.53c0.1-0.28,0.23-0.55,0.38-0.81
		l0.12-0.2c1.26-2.14,3.96-2.96,6.19-1.87c2.24,1.09,3.26,3.71,2.34,6.03c-0.1,0.25-0.2,0.5-0.3,0.75
		c-2.47,7.48-1.27,14.12,3.4,18.77c5.21,5.17,13.78,6.99,20.85,4.4C226.56,584.43,230.77,578.89,232.21,571.01z"/>
	<path class="st8" d="M400.41,584.94c10.3,4.12,32.26,8.68,43.82,0.23c4.15-3.03,5.01-12.71,2.2-24.65
		c-3.72-15.8-12.14-28.58-17.18-29.44c-2.73-0.47-9.23,0.21-22.03,10.01c-4.89,3.75-9.13,7.66-11.65,10.09
		C402.1,564.48,401.33,578.34,400.41,584.94z"/>
	<path class="st8" d="M287.72,558.62c-7.82,5.63-6.9,30.83,1.82,49.94c4.49,9.84,10.11,15.55,14.29,14.57
		c19.07-4.51,39.4-17.4,46.58-26.83c-7.19-10.15-8.74-26.63-9.07-33.86C328.12,557.68,299.61,550.07,287.72,558.62z"/>
	<path class="st8" d="M350.84,561.64c0.36,8.2,2.31,23.94,8.54,30.68c5.29,0.03,21.75-0.47,31.37-7.26
		c0.75-4.51,2.26-18.05-4.06-30.36C380.87,554.1,364.46,553.35,350.84,561.64z"/>
	<path class="st3" d="M331.96,487.97c0.73,8.82,4.71,13.6,11.84,14.21c4.04,0.34,7.27-0.55,9.65-2.66c3.15-2.8,4.94-8.01,5.18-15.07
		c0.07-1.96,1.33-3.69,3.19-4.33c1.86-0.65,3.92-0.09,5.19,1.41c0.12,0.13,12.17,14,20.13,7.25c1.53-1.3,3.3-3.54,3.03-6.83
		c-0.37-4.4-4.35-9.18-10.94-13.11c-10.8-6.44-21.73-16.15-36.81-32.82C338.17,447.82,330.61,471.59,331.96,487.97z"/>
	<path d="M329.27,299.83c0,4.96,4.02,8.99,8.99,8.99c4.96,0,8.99-4.02,8.99-8.99c0-4.96-4.02-8.99-8.99-8.99
		C333.3,290.85,329.27,294.87,329.27,299.83z"/>
	<circle cx="263.92" cy="313.25" r="9.71"/>
	<path d="M391.02,631.68c-0.05-4.5-3.74-8.11-8.25-8.06c-4.5,0.05-8.11,3.74-8.06,8.25c0.05,4.5,3.74,8.11,8.25,8.06
		C387.46,639.87,391.07,636.18,391.02,631.68z"/>
	<path d="M397,679.79c-0.05-4.5-3.74-8.11-8.25-8.06c-4.5,0.05-8.11,3.74-8.06,8.25c0.05,4.5,3.74,8.11,8.25,8.06
		S397.05,684.3,397,679.79z"/>
	<path d="M402.98,727.91c-0.05-4.5-3.74-8.11-8.25-8.06c-4.5,0.05-8.11,3.74-8.06,8.25c0.05,4.5,3.74,8.11,8.25,8.06
		C399.42,736.11,403.03,732.42,402.98,727.91z"/>
	<path d="M400.71,767.97c-4.5,0.05-8.11,3.74-8.06,8.25c0.05,4.5,3.74,8.11,8.25,8.06c4.5-0.05,8.11-3.74,8.06-8.25
		C408.91,771.53,405.22,767.92,400.71,767.97z"/>
	<path class="st9" d="M596.74,277.52l0.01,0l11.23-1.99l0.01,0c-0.2-1.13-0.01-2.34,0.66-3.39l30.53-47.83l-89.58,15.71l45.35,34.56
		C595.94,275.32,596.53,276.38,596.74,277.52z"/>
	<polygon class="st9" points="639.19,224.3 639.19,224.3 639.19,224.3 	"/>
</g>
</svg>
