<?xml version="1.0" encoding="utf-8"?>
<!-- Generator: Adobe Illustrator 26.0.2, SVG Export Plug-In . SVG Version: 6.00 Build 0)  -->
<svg version="1.1" id="Layer_1" xmlns="http://www.w3.org/2000/svg" xmlns:xlink="http://www.w3.org/1999/xlink" x="0px" y="0px"
	 viewBox="0 0 303.82 303.82" style="enable-background:new 0 0 303.82 303.82;" xml:space="preserve">
<style type="text/css">
	.st0{clip-path:url(#SVGID_00000023983661334239201080000002010328462288934557_);}
	.st1{fill:#FFAB89;}
	.st2{fill:none;}
	.st3{fill:#FF966C;}
</style>
<g>
	<defs>
		<rect id="SVGID_1_" width="303.82" height="303.82"/>
	</defs>
	<clipPath id="SVGID_00000140007720877639528240000007432595630897469590_">
		<use xlink:href="#SVGID_1_"  style="overflow:visible;"/>
	</clipPath>
	<g style="clip-path:url(#SVGID_00000140007720877639528240000007432595630897469590_);">
		<path class="st1" d="M29.6,76.46c-0.33-0.45-0.53-1-0.53-1.6c0-1.49,1.21-2.7,2.7-2.7h3.75h0V47.19c0,0-8.93-6-12.49-8.87
			c-1.45-1.17-2.05-3.1-1.5-4.89l7.51-24.46h19.5l7.51,24.46c0.55,1.78-0.04,3.72-1.5,4.89c-3.57,2.87-12.49,8.87-12.49,8.87v24.97
			h3.75c1.49,0,2.7,1.21,2.7,2.7c0,0.6-0.2,1.15-0.53,1.6c16.98-4.12,29.6-19.43,29.6-37.68C77.56,17.36,60.19,0,38.78,0
			S0,17.36,0,38.78C0,57.03,12.61,72.33,29.6,76.46z"/>
		<polygon class="st1" points="38.78,77.56 38.78,77.56 38.78,77.56 		"/>
		<polygon class="st1" points="113.14,151.91 113.12,151.91 113.13,151.91 		"/>
		<path class="st1" d="M103.97,150.82c-0.33-0.45-0.53-1-0.53-1.6c0-1.49,1.2-2.69,2.69-2.69h3.74v-23.81
			c-3.36-1.26-5.79-4.4-6.01-8.14c-0.02-0.36-0.01-0.73,0.01-1.09l1.74-31.1h15.03l1.74,31.1c0.02,0.36,0.04,0.73,0.01,1.09
			c-0.22,3.74-2.65,6.88-6.01,8.14v23.81h3.74c1.49,0,2.69,1.2,2.69,2.69c0,0.6-0.2,1.15-0.53,1.6c17-4.12,29.62-19.43,29.62-37.69
			c0-21.42-17.36-38.78-38.78-38.78s-38.78,17.36-38.78,38.78C74.35,131.39,86.98,146.7,103.97,150.82z"/>
		<path class="st1" d="M103.34,302.57c-0.33-0.47-0.53-1.05-0.53-1.68c0-1.61,1.31-2.92,2.92-2.92h3.85v-26.96
			c-11.13-1.59-18.69-8.4-18.69-25.18h44.46c0,16.77-7.56,23.59-18.69,25.18v26.96h0.21h4.07c1.61,0,2.92,1.31,2.92,2.92
			c0,0.56-0.16,1.09-0.44,1.54c16.42-4.51,28.48-19.54,28.48-37.39c0-21.42-17.36-38.78-38.78-38.78s-38.78,17.36-38.78,38.78
			C74.35,283.07,86.67,298.23,103.34,302.57z"/>
		<path class="st1" d="M181.22,228.3c-0.34-0.47-0.55-1.04-0.55-1.67c0-1.57,1.27-2.84,2.84-2.84h3.74v-26.28l-10.16-5.32
			c-4.78-2.51-8-7.23-8.59-12.6c-0.41-3.8,0.53-7.63,2.67-10.8l4.59-6.83h29.85l4.59,6.83c2.14,3.17,3.08,7,2.67,10.8
			c-0.58,5.37-3.8,10.09-8.59,12.6l-10.16,5.32v26.28h0.2h3.95c1.57,0,2.84,1.27,2.84,2.84c0,0.57-0.17,1.1-0.46,1.54
			c16.59-4.4,28.82-19.51,28.82-37.48c0-21.42-17.36-38.78-38.78-38.78s-38.78,17.36-38.78,38.78
			C151.91,208.84,164.38,224.07,181.22,228.3z"/>
		<path class="st1" d="M29.14,228.26c-0.34-0.47-0.54-1.05-0.54-1.68c0-1.59,1.29-2.88,2.88-2.88h3.8v-26.36
			c-4.01-1.05-6.85-3.79-7.62-9.28c-7.38-2.44-12.01-7.65-12.01-17.21h30.72l3.01-9.35c0.26-0.8,1.11-1.24,1.92-0.98
			c0.8,0.26,1.24,1.12,0.98,1.92l-2.71,8.41h12.32c0,9.56-4.63,14.77-12.01,17.21c-0.77,5.49-3.61,8.23-7.62,9.28v26.36h0.21h4.01
			c1.59,0,2.88,1.29,2.88,2.88c0,0.57-0.17,1.09-0.45,1.54c16.49-4.46,28.63-19.53,28.63-37.43c0-21.42-17.36-38.78-38.78-38.78
			S0,169.27,0,190.69C0,208.77,12.39,223.97,29.14,228.26z"/>
		<polygon class="st1" points="265.04,151.91 265.03,151.91 265.04,151.91 		"/>
		<path class="st1" d="M249.64,148.73l-3.14-32.65c-0.04-1.41-1.19-2.54-2.61-2.54l-1.14-14.56h44.55l-1.29,14.56H286
			c-1.4,0-2.56,1.11-2.61,2.52l-3.5,32.9c14.04-5.83,23.92-19.67,23.92-35.83c0-21.42-17.36-38.78-38.78-38.78
			s-38.78,17.36-38.78,38.78C226.26,129.08,235.89,142.77,249.64,148.73z"/>
		<path class="st1" d="M151.91,38.78c0,18.18,12.51,33.44,29.4,37.63c-0.33-0.45-0.52-1.01-0.52-1.6c0-1.52,1.23-2.75,2.75-2.75
			h3.83V47.19l-12.17-13.23c-1.31,0.64-2.79,1.01-4.35,1.01c-5.48,0-9.92-4.44-9.92-9.92c0-5.48,4.44-9.92,9.92-9.92
			c4.51,0,8.3,3.01,9.51,7.12h30.43c2.37,0,3.6,2.81,2,4.56l-18.76,20.38v24.86h3.83c1.52,0,2.75,1.23,2.75,2.75
			c0,0.6-0.19,1.15-0.52,1.6c16.88-4.2,29.39-19.45,29.39-37.63C229.46,17.36,212.1,0,190.69,0S151.91,17.36,151.91,38.78z"/>
		<polygon class="st1" points="190.69,77.56 190.68,77.56 190.69,77.56 		"/>
		<g>
			<polygon class="st2" points="265.04,151.91 265.03,151.91 265.04,151.91 			"/>
			<path class="st2" d="M29.14,228.26c-0.34-0.47-0.54-1.05-0.54-1.68c0-1.59,1.29-2.88,2.88-2.88h3.8v-26.36
				c-4.01-1.05-6.85-3.79-7.62-9.28c-7.38-2.44-12.01-7.65-12.01-17.21h30.72l3.01-9.35c0.26-0.8,1.11-1.24,1.92-0.98
				c0.8,0.26,1.24,1.12,0.98,1.92l-2.71,8.41h12.32c0,9.56-4.63,14.77-12.01,17.21c-0.77,5.49-3.61,8.23-7.62,9.28v26.36h0.21h4.01
				c1.59,0,2.88,1.29,2.88,2.88c0,0.57-0.17,1.09-0.45,1.54c16.49-4.46,28.63-19.53,28.63-37.43c0-21.42-17.36-38.78-38.78-38.78
				S0,169.27,0,190.69C0,208.77,12.39,223.97,29.14,228.26z"/>
			<path class="st2" d="M29.6,76.46c-0.33-0.45-0.53-1-0.53-1.6c0-1.49,1.21-2.7,2.7-2.7h3.75h0V47.19c0,0-8.93-6-12.49-8.87
				c-1.45-1.17-2.05-3.1-1.5-4.89l7.51-24.46h19.5l7.51,24.46c0.55,1.78-0.04,3.72-1.5,4.89c-3.57,2.87-12.49,8.87-12.49,8.87v24.97
				h3.75c1.49,0,2.7,1.21,2.7,2.7c0,0.6-0.2,1.15-0.53,1.6c16.98-4.12,29.6-19.43,29.6-37.68C77.56,17.36,60.19,0,38.78,0
				S0,17.36,0,38.78C0,57.03,12.61,72.33,29.6,76.46z"/>
			<path class="st2" d="M181.22,228.3c-0.34-0.47-0.55-1.04-0.55-1.67c0-1.57,1.27-2.84,2.84-2.84h3.74v-26.28l-10.16-5.32
				c-4.78-2.51-8-7.23-8.59-12.6c-0.41-3.8,0.53-7.63,2.67-10.8l4.59-6.83h29.85l4.59,6.83c2.14,3.17,3.08,7,2.67,10.8
				c-0.58,5.37-3.8,10.09-8.59,12.6l-10.16,5.32v26.28h0.2h3.95c1.57,0,2.84,1.27,2.84,2.84c0,0.57-0.17,1.1-0.46,1.54
				c16.59-4.4,28.82-19.51,28.82-37.48c0-21.42-17.36-38.78-38.78-38.78c-21.42,0-38.78,17.36-38.78,38.78
				C151.91,208.84,164.38,224.07,181.22,228.3z"/>
			<path class="st2" d="M151.91,38.78c0,18.18,12.51,33.44,29.4,37.63c-0.33-0.45-0.52-1.01-0.52-1.6c0-1.52,1.23-2.75,2.75-2.75
				h3.83V47.19l-12.17-13.23c-1.31,0.64-2.79,1.01-4.35,1.01c-5.48,0-9.92-4.44-9.92-9.92c0-5.48,4.44-9.92,9.92-9.92
				c4.51,0,8.3,3.01,9.51,7.12h30.43c2.37,0,3.6,2.81,2,4.56l-18.76,20.38v24.86h3.83c1.52,0,2.75,1.23,2.75,2.75
				c0,0.6-0.19,1.15-0.52,1.6c16.88-4.2,29.39-19.45,29.39-37.63C229.46,17.36,212.1,0,190.69,0C169.27,0,151.91,17.36,151.91,38.78
				z"/>
			<path class="st2" d="M265.04,74.35c-21.42,0-38.78,17.36-38.78,38.78c0,15.94,9.62,29.64,23.38,35.6l-3.14-32.65
				c-0.04-1.41-1.19-2.54-2.61-2.54l-1.14-14.56h44.55l-1.29,14.56H286c-1.4,0-2.56,1.11-2.61,2.52l-3.5,32.9
				c14.04-5.83,23.92-19.67,23.92-35.83C303.82,91.71,286.45,74.35,265.04,74.35z"/>
			<path class="st2" d="M103.97,150.82c-0.33-0.45-0.53-1-0.53-1.6c0-1.49,1.2-2.69,2.69-2.69h3.74v-23.81
				c-3.36-1.26-5.79-4.4-6.01-8.14c-0.02-0.36-0.01-0.73,0.01-1.09l1.74-31.1h15.03l1.74,31.1c0.02,0.36,0.04,0.73,0.01,1.09
				c-0.22,3.74-2.65,6.88-6.01,8.14v23.81h3.74c1.49,0,2.69,1.2,2.69,2.69c0,0.6-0.2,1.15-0.53,1.6c17-4.12,29.62-19.43,29.62-37.69
				c0-21.42-17.36-38.78-38.78-38.78s-38.78,17.36-38.78,38.78C74.35,131.39,86.98,146.7,103.97,150.82z"/>
			<path class="st2" d="M103.34,302.57c-0.33-0.47-0.53-1.05-0.53-1.68c0-1.61,1.31-2.92,2.92-2.92h3.85v-26.96
				c-11.13-1.59-18.69-8.4-18.69-25.18h44.46c0,16.77-7.56,23.59-18.69,25.18v26.96h0.21h4.07c1.61,0,2.92,1.31,2.92,2.92
				c0,0.56-0.16,1.09-0.44,1.54c16.42-4.51,28.48-19.54,28.48-37.39c0-21.42-17.36-38.78-38.78-38.78s-38.78,17.36-38.78,38.78
				C74.35,283.07,86.67,298.23,103.34,302.57z"/>
			<polygon class="st2" points="113.14,151.91 113.12,151.91 113.13,151.91 			"/>
			<path class="st3" d="M38.78,0H0v38.78C0,17.36,17.36,0,38.78,0z"/>
			<path class="st3" d="M303.82,303.82v-38.78c0,18.2-12.53,33.46-29.44,37.64c0.31-0.44,0.49-0.97,0.49-1.54
				c0-1.48-1.2-2.68-2.68-2.68h-3.72h-0.19v-20.29v-4.51c0,0,12.27-0.75,12.27-37.9h-31.03c0,37.14,12.27,37.9,12.27,37.9v4.51
				v20.29h-3.53c-1.48,0-2.68,1.2-2.68,2.68c0,0.63,0.22,1.2,0.58,1.66c-17.14-4.01-29.91-19.39-29.91-37.76
				c0-21.42,17.36-38.78,38.78-38.78s38.78,17.36,38.78,38.78V113.13c0,16.15-9.88,29.99-23.92,35.83l3.5-32.9
				c0.05-1.4,1.2-2.52,2.61-2.52h0.03l1.29-14.56h-44.55l1.14,14.56c1.42,0,2.57,1.13,2.61,2.54l3.14,32.65
				c-13.76-5.96-23.38-19.65-23.38-35.6c0-21.42,17.36-38.78,38.78-38.78s38.78,17.36,38.78,38.78V0H190.69
				c21.42,0,38.78,17.36,38.78,38.78c0,18.18-12.51,33.43-29.39,37.63c0.32-0.45,0.52-1,0.52-1.6c0-1.52-1.23-2.75-2.75-2.75h-3.83
				V47.19l18.76-20.38c1.6-1.74,0.37-4.56-2-4.56h-30.43c-1.21-4.11-5.01-7.12-9.51-7.12c-5.48,0-9.92,4.44-9.92,9.92
				c0,5.48,4.44,9.92,9.92,9.92c1.56,0,3.04-0.37,4.35-1.01l12.17,13.23v24.86h-3.83c-1.52,0-2.75,1.23-2.75,2.75
				c0,0.6,0.19,1.15,0.52,1.6c-16.88-4.2-29.4-19.45-29.4-37.63C151.91,17.36,169.27,0,190.69,0H38.78
				c21.42,0,38.78,17.36,38.78,38.78c0,18.25-12.61,33.56-29.6,37.68c0.33-0.45,0.53-1,0.53-1.6c0-1.49-1.21-2.7-2.7-2.7h-3.75
				V47.19c0,0,8.93-6,12.49-8.87c1.45-1.17,2.05-3.1,1.5-4.89L48.53,8.98h-19.5l-7.51,24.46c-0.55,1.78,0.04,3.72,1.5,4.89
				c3.57,2.87,12.49,8.87,12.49,8.87v24.97h0h-3.75c-1.49,0-2.7,1.21-2.7,2.7c0,0.6,0.2,1.15,0.53,1.6C12.61,72.33,0,57.03,0,38.78
				v151.91c0-21.42,17.36-38.78,38.78-38.78s38.78,17.36,38.78,38.78c0,17.91-12.14,32.97-28.63,37.43
				c0.28-0.45,0.45-0.97,0.45-1.54c0-1.59-1.29-2.88-2.88-2.88h-4.01h-0.21v-26.36c4.01-1.05,6.85-3.79,7.62-9.28
				c7.38-2.44,12.01-7.65,12.01-17.21H49.58l2.71-8.41c0.26-0.8-0.18-1.66-0.98-1.92c-0.8-0.26-1.66,0.18-1.92,0.98l-3.01,9.35
				H15.66c0,9.56,4.63,14.77,12.01,17.21c0.77,5.49,3.61,8.23,7.62,9.28v26.36h-3.8c-1.59,0-2.88,1.29-2.88,2.88
				c0,0.63,0.2,1.2,0.54,1.68C12.39,223.97,0,208.77,0,190.69v113.13H303.82z M265.04,151.91
				C265.04,151.91,265.04,151.91,265.04,151.91c-0.01,0-0.01,0-0.01,0H265.04z M190.69,151.91c21.42,0,38.78,17.36,38.78,38.78
				c0,17.97-12.23,33.09-28.82,37.48c0.29-0.44,0.46-0.97,0.46-1.54c0-1.57-1.27-2.84-2.84-2.84h-3.95h-0.2v-26.28l10.16-5.32
				c4.78-2.51,8-7.23,8.59-12.6c0.41-3.8-0.53-7.63-2.67-10.8l-4.59-6.83h-29.85l-4.59,6.83c-2.14,3.17-3.08,7-2.67,10.8
				c0.58,5.37,3.8,10.09,8.59,12.6l10.16,5.32v26.28h-3.74c-1.57,0-2.84,1.27-2.84,2.84c0,0.63,0.2,1.2,0.55,1.67
				c-16.84-4.23-29.31-19.46-29.31-37.61C151.91,169.27,169.27,151.91,190.69,151.91z M74.35,113.13
				c0-21.42,17.36-38.78,38.78-38.78s38.78,17.36,38.78,38.78c0,18.26-12.62,33.57-29.62,37.69c0.33-0.45,0.53-1,0.53-1.6
				c0-1.49-1.2-2.69-2.69-2.69h-3.74v-23.81c3.36-1.26,5.79-4.4,6.01-8.14c0.02-0.36,0.01-0.73-0.01-1.09l-1.74-31.1h-15.03
				l-1.74,31.1c-0.02,0.36-0.04,0.73-0.01,1.09c0.22,3.74,2.65,6.88,6.01,8.14v23.81h-3.74c-1.49,0-2.69,1.2-2.69,2.69
				c0,0.6,0.2,1.15,0.53,1.6C86.98,146.7,74.35,131.39,74.35,113.13z M113.14,151.91C113.13,151.91,113.13,151.91,113.14,151.91
				c-0.01,0-0.01,0-0.01,0H113.14z M113.13,226.26c21.42,0,38.78,17.36,38.78,38.78c0,17.85-12.06,32.88-28.48,37.39
				c0.28-0.45,0.44-0.97,0.44-1.54c0-1.61-1.31-2.92-2.92-2.92h-4.07h-0.21v-26.96c11.13-1.59,18.69-8.4,18.69-25.18H90.9
				c0,16.77,7.56,23.59,18.69,25.18v26.96h-3.85c-1.61,0-2.92,1.31-2.92,2.92c0,0.62,0.2,1.2,0.53,1.68
				c-16.68-4.34-28.99-19.5-28.99-37.53C74.35,243.62,91.71,226.26,113.13,226.26z"/>
			<path class="st1" d="M265.04,226.26c-21.42,0-38.78,17.36-38.78,38.78c0,18.36,12.77,33.75,29.91,37.76
				c-0.36-0.46-0.58-1.03-0.58-1.66c0-1.48,1.2-2.68,2.68-2.68h3.53v-20.29v-4.51c0,0-12.27-0.75-12.27-37.9h31.03
				c0,37.14-12.27,37.9-12.27,37.9v4.51v20.29h0.19h3.72c1.48,0,2.68,1.2,2.68,2.68c0,0.57-0.18,1.1-0.49,1.54
				c16.9-4.18,29.44-19.45,29.44-37.64C303.82,243.62,286.45,226.26,265.04,226.26z"/>
		</g>
	</g>
</g>
</svg>
