<?xml version="1.0" encoding="utf-8"?>
<!-- Generator: Adobe Illustrator 26.0.2, SVG Export Plug-In . SVG Version: 6.00 Build 0)  -->
<svg version="1.1" id="Layer_1" xmlns="http://www.w3.org/2000/svg" xmlns:xlink="http://www.w3.org/1999/xlink" x="0px" y="0px"
	 viewBox="0 0 285.01 285.01" style="enable-background:new 0 0 285.01 285.01;" xml:space="preserve">
<style type="text/css">
	.st0{clip-path:url(#SVGID_00000072254592424279452090000014510331450389936800_);}
	.st1{fill:#22B573;}
	.st2{fill:#50C691;}
</style>
<g>
	<defs>
		<rect id="SVGID_1_" width="285.01" height="285.01"/>
	</defs>
	<clipPath id="SVGID_00000116948100064686101150000005859204208520700575_">
		<use xlink:href="#SVGID_1_"  style="overflow:visible;"/>
	</clipPath>
	<g style="clip-path:url(#SVGID_00000116948100064686101150000005859204208520700575_);">
		<path class="st1" d="M285.01,0h-43.98c-5.22,10.56-24.02,20.18-26.9,34.97c-0.08,0.41-0.66,0.41-0.74,0
			c-2.88-14.8-21.68-24.42-26.9-34.97H142.5l71.25,71.25L285.01,0z"/>
		<polygon class="st1" points="142.5,0 100.13,0 71.25,33.35 42.38,0 0,0 71.25,71.25 		"/>
		<path class="st1" d="M285.01,142.5l-71.25-71.25L142.5,142.5l71.25,71.25L285.01,142.5z M213.38,177.21
			c-3.2-16.41-25.98-26.45-28.09-38.47c-2.05-11.62,5.57-17.71,10.9-19.1c0.85-0.22,1.75-0.35,2.67-0.4
			c6.67-0.34,12.61,4.22,14.49,10.62l0.4,1.35l0.4-1.35c1.88-6.4,7.82-10.96,14.49-10.62c0.92,0.05,1.82,0.18,2.67,0.4
			c5.33,1.39,12.95,7.48,10.9,19.1c-2.11,12.01-24.9,22.06-28.09,38.47C214.05,177.63,213.47,177.63,213.38,177.21z"/>
		<path class="st1" d="M142.5,142.5L71.25,71.25L0,142.5l71.25,71.25L142.5,142.5z M71.25,108.72l29.25,33.78l-29.25,33.78L42,142.5
			L71.25,108.72z"/>
		<path class="st1" d="M185.29,281.47c-2.05-11.62,5.57-17.71,10.9-19.1c0.85-0.22,1.75-0.35,2.67-0.4
			c6.67-0.34,12.61,4.22,14.49,10.62l0.4,1.35l0.4-1.35c1.88-6.4,7.82-10.96,14.49-10.62c0.92,0.05,1.82,0.18,2.67,0.4
			c5.33,1.39,12.95,7.48,10.9,19.1c-0.21,1.19-0.63,2.37-1.21,3.53h44l-71.25-71.25l-71.25,71.25h44
			C185.92,283.84,185.5,282.67,185.29,281.47z"/>
		<polygon class="st1" points="71.25,251.45 100.31,285.01 142.5,285.01 71.25,213.76 0,285.01 42.2,285.01 		"/>
		<path class="st2" d="M285.01,142.5v-40.86h-12.15c-1.74,0-1.44-1.72-0.51-1.72c4.99,0,10.6-3.67,10.6-9.63
			c-3.63,3.98-10.39,5.92-15.51,4.58c-5.33-1.39-12.95-7.48-10.9-19.1c2.11-12.01,24.9-22.06,28.09-38.47
			c0.04-0.21,0.21-0.31,0.37-0.31V0l-71.25,71.25L285.01,142.5z"/>
		<path class="st2" d="M142.5,142.5l71.25-71.25L142.5,0L71.25,71.25L142.5,142.5z M114.65,60.37c6.96-4.26,16.53,2.48,17.68,3.32
			c-0.97-0.74-7.96-6.35-7.04-14.79c1.28-11.73,15.34-11.7,17.21-11.64c1.87-0.06,15.94-0.08,17.21,11.64
			c0.92,8.44-6.07,14.05-7.04,14.79c1.15-0.84,10.72-7.58,17.68-3.32c7.41,4.54,14.46,26.4-6.49,34.13
			c-6.67,2.46-12.49-0.95-15.97-8.05c-2.61-5.33-4-5-4-5c0,11.99,1.12,18.23,11.23,18.23c0.93,0,1.37,1.72-0.51,1.72h-24.29
			c-1.74,0-1.44-1.72-0.51-1.72c10.09,0,11.12-6.24,11.12-18.22c0,0-1.55-0.15-3.83,4.99c-3.2,7.23-9.3,10.51-15.97,8.05
			C100.19,86.77,107.23,64.9,114.65,60.37z"/>
		<path class="st2" d="M285.01,285.01v-40.63h-12.15c-1.74,0-1.44-1.72-0.51-1.72c4.99,0,10.6-3.67,10.6-9.63
			c-3.63,3.98-10.39,5.92-15.51,4.58c-5.33-1.39-12.95-7.48-10.9-19.1c2.11-12.01,24.9-22.06,28.09-38.47
			c0.04-0.21,0.21-0.31,0.37-0.31V142.5l-71.25,71.25L285.01,285.01z"/>
		<path class="st2" d="M0,0v37c0.17,0,0.33,0.1,0.37,0.31c3.2,16.41,25.98,26.46,28.09,38.47c2.05,11.62-5.57,17.71-10.9,19.1
			c-5.11,1.34-11.87-0.6-15.5-4.58c0,6.15,4.48,9.63,10.6,9.63c0.93,0,1.37,1.72-0.51,1.72H0v40.86l71.25-71.25L0,0z"/>
		<path class="st2" d="M142.5,142.5l-71.25,71.25l71.25,71.25l71.25-71.25L142.5,142.5z M163.87,237.23
			c-6.67,2.46-12.49-0.95-15.97-8.05c-2.61-5.33-4-5-4-5c0,11.99,1.12,18.23,11.23,18.23c0.93,0,1.37,1.72-0.51,1.72h-24.29
			c-1.74,0-1.44-1.72-0.51-1.72c10.09,0,11.12-6.24,11.12-18.22c0,0-1.55-0.15-3.83,4.99c-3.2,7.23-9.3,10.51-15.97,8.05
			c-20.95-7.73-13.9-29.6-6.49-34.13c6.96-4.26,16.53,2.48,17.68,3.32c-0.97-0.74-7.96-6.35-7.04-14.79
			c1.28-11.73,15.34-11.7,17.21-11.64c1.87-0.06,15.94-0.08,17.21,11.64c0.92,8.44-6.07,14.05-7.04,14.79
			c1.15-0.84,10.72-7.58,17.68-3.32C177.77,207.63,184.82,229.5,163.87,237.23z"/>
		<path class="st2" d="M0,142.5v37.22c0.17,0,0.33,0.1,0.37,0.31c3.2,16.41,25.98,26.46,28.09,38.47
			c2.05,11.62-5.57,17.71-10.9,19.1c-5.11,1.34-11.87-0.6-15.5-4.58c0,6.15,4.48,9.63,10.6,9.63c0.93,0,1.37,1.72-0.51,1.72H0v40.63
			l71.25-71.25L0,142.5z"/>
		<path class="st1" d="M284.64,37.31c-3.2,16.41-25.98,26.46-28.09,38.47c-2.05,11.62,5.57,17.71,10.9,19.1
			c5.12,1.34,11.87-0.6,15.51-4.58c0,5.96-5.61,9.63-10.6,9.63c-0.93,0-1.22,1.72,0.51,1.72h12.15V37
			C284.84,37,284.68,37.1,284.64,37.31z"/>
		<path class="st1" d="M12.15,101.65c1.88,0,1.44-1.72,0.51-1.72c-6.12,0-10.6-3.48-10.6-9.63c3.63,3.98,10.39,5.92,15.5,4.58
			c5.33-1.39,12.95-7.48,10.9-19.1C26.35,63.76,3.57,53.72,0.37,37.31C0.33,37.1,0.17,37,0,37v64.65H12.15z"/>
		<path class="st1" d="M121.14,94.5c6.67,2.46,12.76-0.82,15.97-8.05c2.28-5.14,3.83-4.99,3.83-4.99c0,11.98-1.03,18.22-11.12,18.22
			c-0.93,0-1.22,1.72,0.51,1.72h24.29c1.88,0,1.44-1.72,0.51-1.72c-10.11,0-11.23-6.24-11.23-18.23c0,0,1.39-0.33,4,5
			c3.47,7.1,9.3,10.51,15.97,8.05c20.95-7.73,13.9-29.6,6.49-34.13c-6.96-4.26-16.54,2.48-17.68,3.32
			c0.97-0.74,7.96-6.35,7.04-14.79c-1.28-11.73-15.34-11.7-17.21-11.64c-1.87-0.06-15.94-0.08-17.21,11.64
			c-0.92,8.44,6.07,14.05,7.04,14.79c-1.15-0.84-10.72-7.58-17.68-3.32C107.23,64.9,100.19,86.77,121.14,94.5z"/>
		<path class="st1" d="M284.64,180.04c-3.2,16.41-25.98,26.46-28.09,38.47c-2.05,11.62,5.57,17.71,10.9,19.1
			c5.12,1.34,11.87-0.6,15.51-4.58c0,5.96-5.61,9.63-10.6,9.63c-0.93,0-1.22,1.72,0.51,1.72h12.15v-64.65
			C284.84,179.73,284.68,179.83,284.64,180.04z"/>
		<path class="st1" d="M12.15,244.38c1.88,0,1.44-1.72,0.51-1.72c-6.12,0-10.6-3.48-10.6-9.63c3.63,3.98,10.39,5.92,15.5,4.58
			c5.33-1.39,12.95-7.48,10.9-19.1c-2.11-12.01-24.9-22.06-28.09-38.47c-0.04-0.21-0.21-0.31-0.37-0.31v64.65H12.15z"/>
		<path class="st1" d="M170.36,203.1c-6.96-4.26-16.54,2.48-17.68,3.32c0.97-0.74,7.96-6.35,7.04-14.79
			c-1.28-11.73-15.34-11.7-17.21-11.64c-1.87-0.06-15.94-0.08-17.21,11.64c-0.92,8.44,6.07,14.05,7.04,14.79
			c-1.15-0.84-10.72-7.58-17.68-3.32c-7.41,4.54-14.46,26.4,6.49,34.13c6.67,2.46,12.76-0.82,15.97-8.05
			c2.28-5.14,3.83-4.99,3.83-4.99c0,11.98-1.03,18.22-11.12,18.22c-0.93,0-1.22,1.72,0.51,1.72h24.29c1.88,0,1.44-1.72,0.51-1.72
			c-10.11,0-11.23-6.24-11.23-18.23c0,0,1.39-0.33,4,5c3.47,7.1,9.3,10.51,15.97,8.05C184.82,229.5,177.77,207.63,170.36,203.1z"/>
		<path class="st2" d="M214.13,177.21c3.2-16.41,25.98-26.45,28.09-38.47c2.05-11.62-5.57-17.71-10.9-19.1
			c-0.85-0.22-1.75-0.35-2.67-0.4c-6.67-0.34-12.61,4.22-14.49,10.62l-0.4,1.35l-0.4-1.35c-1.88-6.4-7.82-10.96-14.49-10.62
			c-0.92,0.05-1.82,0.18-2.67,0.4c-5.33,1.39-12.95,7.48-10.9,19.1c2.11,12.01,24.9,22.06,28.09,38.47
			C213.47,177.63,214.05,177.63,214.13,177.21z"/>
		<polygon class="st2" points="100.51,142.5 71.25,108.72 42,142.5 71.25,176.29 		"/>
		<polygon class="st2" points="100.13,0 42.38,0 71.25,33.35 		"/>
		<polygon class="st2" points="42.2,285.01 100.31,285.01 71.25,251.45 		"/>
		<path class="st2" d="M213.38,34.97c0.08,0.41,0.66,0.41,0.74,0c2.88-14.8,21.68-24.42,26.9-34.97h-54.55
			C191.71,10.56,210.5,20.18,213.38,34.97z"/>
		<path class="st2" d="M231.32,262.37c-0.85-0.22-1.75-0.35-2.67-0.4c-6.67-0.34-12.61,4.22-14.49,10.62l-0.4,1.35l-0.4-1.35
			c-1.88-6.4-7.82-10.96-14.49-10.62c-0.92,0.05-1.82,0.18-2.67,0.4c-5.33,1.39-12.95,7.48-10.9,19.1c0.21,1.19,0.63,2.37,1.21,3.53
			h54.51c0.58-1.16,1-2.34,1.21-3.53C244.27,269.86,236.65,263.77,231.32,262.37z"/>
	</g>
</g>
</svg>
