<svg xmlns="http://www.w3.org/2000/svg" xmlns:xlink="http://www.w3.org/1999/xlink" width="712.92" height="576.01" viewBox="0 0 712.92 576.01"><defs><clipPath id="a"><rect x="159.6" y="258.66" width="307.55" height="53.36" rx="24.97" fill="none"/></clipPath><clipPath id="b"><rect x="159.6" y="337.95" width="307.55" height="53.36" rx="24.97" fill="none"/></clipPath></defs><rect x="500.39" y="172.36" width="23.36" height="287.8" fill="#b3b3b3" stroke="#000" stroke-linecap="round" stroke-linejoin="round" stroke-width="5"/><rect x="428.37" y="29.28" width="168.19" height="168.19" rx="13.41" transform="translate(230.27 -329.16) rotate(45)" fill="#f7c000"/><path d="M512.47,216.76a3.39,3.39,0,0,1-2.41-1l-100-100a3.4,3.4,0,0,1,0-4.82l100-100a3.4,3.4,0,0,1,4.82,0l100,100a3.4,3.4,0,0,1,0,4.82l-100,100A3.39,3.39,0,0,1,512.47,216.76Z" fill="#f7c000"/><path d="M512.47,216.76a3.39,3.39,0,0,1-2.41-1l-100-100a3.4,3.4,0,0,1,0-4.82l100-100a3.4,3.4,0,0,1,4.82,0l100,100a3.4,3.4,0,0,1,0,4.82l-100,100A3.39,3.39,0,0,1,512.47,216.76Z" fill="none" stroke="#000" stroke-linecap="round" stroke-linejoin="round" stroke-width="6"/><path d="M514.15,146.46h-2v0C512.85,146.49,513.52,146.48,514.15,146.46Z" fill="none"/><path d="M487.36,119.3l.06-.38c0,.19-.09.37-.13.56Z" fill="none"/><path d="M518.12,146.84a27.91,27.91,0,0,1-5.43.49h-.56c0,1.42,0,2.61-.06,3.51a3,3,0,0,1,2.1-.88c2.55-.13,3.37,2.2,4.25,4.67l.14.4a25.73,25.73,0,0,0,1.52,3.69c0-.41,0-.85,0-1.35a40.3,40.3,0,0,0-1.58-8.89C518.41,147.94,518.26,147.39,518.12,146.84Z" fill="none"/><path d="M548.36,91.05a1.77,1.77,0,0,0-2-1.63h0l-.49.09a2.61,2.61,0,0,0-.24-3.05,2.62,2.62,0,0,0,.27-1.73,2.51,2.51,0,0,0-.56-1.2,2.64,2.64,0,0,0,.25-1.69,2.55,2.55,0,0,0-2.66-2.17l-.47,0L542,76.57l4.58-6.52a1.24,1.24,0,0,0-1.18-1.94l-2.1.27.4-2.18a.34.34,0,0,0-.27-.39.33.33,0,0,0-.38.27l-.44,2.4-5.76.76a3.65,3.65,0,0,0-1-1.21,3.6,3.6,0,0,0-2.63-.7,3.56,3.56,0,0,0,.46,7.08,3.59,3.59,0,0,0,.47,0,3.56,3.56,0,0,0,1.37-.48l3.66,3,.24,1.86a3,3,0,0,0-1.17-1,1.87,1.87,0,0,0-1.69.1h0a1.65,1.65,0,0,0-.78,1,2.3,2.3,0,0,0,.38,1.7c.65,1,.63,1.26.52,1.49a7.25,7.25,0,0,1-1,1.5,7.25,7.25,0,0,0-1.82,6.4c.06.4.13,1,.19,1.72a7.78,7.78,0,0,1-.92,4.48c-1.3,2.35-3.54,3.59-6.66,3.69a12.14,12.14,0,0,1-1.62,0,2.27,2.27,0,0,0-1.3-1.13,2.53,2.53,0,0,0-1.49.23c-.29-.67-.82-1.83-1.55-3.16a1.59,1.59,0,0,0,.3-1,2.66,2.66,0,0,0-1.37-2,15.28,15.28,0,0,1-3.28-3.26,6.93,6.93,0,0,0,2.39-3.34c3.15-.37,4.26-1.29,4.33-1.35a.46.46,0,0,0,.09-.57,10.31,10.31,0,0,0-5.16-3.66,3.78,3.78,0,0,0-1.33-6.34,30.33,30.33,0,0,1,5-12.68,18.43,18.43,0,0,1,3.7-4,.48.48,0,0,0,.19-.41.47.47,0,0,0-.26-.36c-2.74-1.27-5.58.09-7,1,.77-5.21.06-6.81,0-7a.43.43,0,0,0-.51-.22,9.81,9.81,0,0,0-4.91,3.7,19.92,19.92,0,0,0-1.2,1.71c-.79-5.51-2.2-6.6-2.36-6.71a.44.44,0,0,0-.48,0c-3.27,2-4.72,6.21-5.25,8.27-2.21-3.83-3.9-4.22-4.1-4.25a.44.44,0,0,0-.43.17,12.82,12.82,0,0,0-2.24,7.92,11.77,11.77,0,0,0-2.9-1.39.42.42,0,0,0-.36,0,.41.41,0,0,0-.21.3c-.83,4.49.8,9,2.32,12a32.63,32.63,0,0,0,3.23,5.11l-.61.54a7.56,7.56,0,0,1-4.73,2.37,2.51,2.51,0,0,0-2.23,1.63,2.67,2.67,0,0,0,.63,2.72,2.32,2.32,0,0,0,1.08.6,2.43,2.43,0,0,0-.41,1,2.67,2.67,0,0,0,1,2.59,2.28,2.28,0,0,0,1.18.42,2.43,2.43,0,0,0-.31,1.24,2.46,2.46,0,0,0,1.35,2.19,2.59,2.59,0,0,0,2.39-.12c-.13,2.74-.68,6.39-.82,7.29-7.51,4.33-8.89,10.45-10.49,17.53-.31,1.38-.64,2.79-1,4.24a16.13,16.13,0,0,1-.86-2.11A56.8,56.8,0,0,1,482,101.75c-.1-3.94-.16-6.33-3.06-6.56a3.86,3.86,0,0,0-3.25,1.12,4.05,4.05,0,0,0-1,2.08A3.75,3.75,0,0,0,473,97.27a4.34,4.34,0,0,0-4.38,1.18,4.16,4.16,0,0,0-1,3.33,3.75,3.75,0,0,0-1.9-.64A4.09,4.09,0,0,0,462,103c-.49.8-1.1,2.51.33,4.94h0c6.2,11.28,10.72,16.9,19.43,24-.5.84-1.05,1.68-1.67,2.53a2.67,2.67,0,0,0-.88.33,2.81,2.81,0,0,0-1.55-.53,2.72,2.72,0,0,0-2.79,2.54l-.17,2.45a1.91,1.91,0,0,0,.25,1.09,3.32,3.32,0,0,0-.65,1.8,1.87,1.87,0,0,0,2.56,1.88,5.59,5.59,0,0,1,4.53-.1l-.18,2.45a.43.43,0,0,0,.17.38L480,171a1.32,1.32,0,0,0,.33.95,1.34,1.34,0,0,0,.91.44h.08a1.31,1.31,0,0,0,1.3-1.2l2.13-24.22h0a.43.43,0,0,0,.23-.35l.25-2.4.59-.28a2,2,0,0,0,1.53.75,2,2,0,0,0,.42,0h0l1.35-.37a8,8,0,0,0,1.58-.66c.22.37.46.74.71,1.13,2.65,4,7.21,9.34,14,12a16.61,16.61,0,0,0,4.47,1,7.15,7.15,0,0,1-1.11,1.48c-2.08,2.13-2.43,4-1.09,5.79a3.26,3.26,0,0,0,2.27,1.35h.27a2.52,2.52,0,0,0,1.35-.38,3.44,3.44,0,0,0,1.45,1.22,3.66,3.66,0,0,0,1.57.38,3.06,3.06,0,0,0,1.79-.58,2.91,2.91,0,0,0,1-1.4,2.41,2.41,0,0,0,.57.39l.33.15a3.87,3.87,0,0,0,3.71,3.41l.6,0a3.33,3.33,0,0,0,2.41-.85,3.44,3.44,0,0,0,2.55,1h.28c2.06-.11,3.08-1.1,3.42-2.21h.23a3.11,3.11,0,0,0,3.09-1.77,4,4,0,0,0-.71-4.08,3.38,3.38,0,0,0-3.66-1,4.21,4.21,0,0,1-2,.08c-.82-.22-1.56-.6-1.75-2.59a15.4,15.4,0,0,1,.94-5.77,56.11,56.11,0,0,1,4.76-8.47c1.86-2.87,3.34-5.14,3.86-8.23a17.19,17.19,0,0,0-.11-5.65l.28-.6A59.73,59.73,0,0,0,540.49,114a95.86,95.86,0,0,0,1-18.77c0-1.15.21-1.68.85-2h0a3.73,3.73,0,0,1,2-.39l2.22.14h0a1.78,1.78,0,0,0,1.74-1.9Zm-61,28.25-.07.18c0-.19.09-.37.13-.56Zm32.72,39.42a25.73,25.73,0,0,1-1.52-3.69l-.14-.4c-.88-2.47-1.7-4.8-4.25-4.67a3,3,0,0,0-2.1.88c0-.9,0-2.09.06-3.51h.56a27.91,27.91,0,0,0,5.43-.49c.14.55.29,1.1.43,1.64a40.3,40.3,0,0,1,1.58,8.89C520.13,157.87,520.12,158.31,520.08,158.72Z"/><rect x="508.04" y="443.72" width="8.06" height="8.06"/><rect x="508.04" y="427.6" width="8.06" height="8.06"/><rect x="508.04" y="411.48" width="8.06" height="8.06"/><rect x="508.04" y="395.36" width="8.06" height="8.06"/><rect x="508.04" y="379.24" width="8.06" height="8.06"/><rect x="508.04" y="363.13" width="8.06" height="8.06"/><rect x="508.04" y="347.01" width="8.06" height="8.06"/><rect x="508.04" y="330.89" width="8.06" height="8.06"/><rect x="508.04" y="314.77" width="8.06" height="8.06"/><rect x="508.04" y="298.65" width="8.06" height="8.06"/><rect x="508.04" y="282.54" width="8.06" height="8.06"/><rect x="508.04" y="266.42" width="8.06" height="8.06"/><rect x="508.04" y="250.3" width="8.06" height="8.06"/><rect x="508.04" y="234.18" width="8.06" height="8.06"/><rect x="187.6" y="234.18" width="29.97" height="220.09" fill="#b3b3b3" stroke="#000" stroke-linecap="round" stroke-linejoin="round" stroke-width="5"/><rect x="411.75" y="234.18" width="29.97" height="220.09" fill="#b3b3b3" stroke="#000" stroke-linecap="round" stroke-linejoin="round" stroke-width="5"/><rect x="172.44" y="448.39" width="60.3" height="11.77" rx="5.51" fill="#b3b3b3" stroke="#000" stroke-linecap="round" stroke-linejoin="round" stroke-width="5"/><rect x="397.52" y="448.39" width="60.3" height="11.77" rx="5.51" fill="#b3b3b3" stroke="#000" stroke-linecap="round" stroke-linejoin="round" stroke-width="5"/><g clip-path="url(#a)"><polygon points="200.49 244.98 200.25 244.98 132.82 335.51 133.05 335.51 165.31 335.51 232.74 244.98 200.49 244.98" fill="#f7c000"/><polygon points="265.46 244.98 265.23 244.98 197.79 335.51 198.03 335.51 230.28 335.51 297.71 244.98 265.46 244.98" fill="#f7c000"/><polygon points="330.44 244.98 330.2 244.98 262.77 335.51 263 335.51 295.26 335.51 362.69 244.98 330.44 244.98" fill="#f7c000"/><polygon points="395.41 244.98 395.18 244.98 327.75 335.51 327.98 335.51 360.23 335.51 427.67 244.98 395.41 244.98" fill="#f7c000"/><polygon points="460.39 244.98 460.15 244.98 392.72 335.51 392.96 335.51 425.21 335.51 492.64 244.98 460.39 244.98" fill="#f7c000"/><polygon points="525.37 244.98 525.13 244.98 457.7 335.51 457.93 335.51 490.19 335.51 557.62 244.98 525.37 244.98" fill="#f7c000"/><polygon points="167.76 244.98 100.33 335.51 132.82 335.51 200.25 244.98 167.76 244.98" fill="#f45259"/><polygon points="232.97 244.98 232.74 244.98 165.31 335.51 165.54 335.51 197.79 335.51 265.23 244.98 232.97 244.98" fill="#f45259"/><polygon points="297.95 244.98 297.71 244.98 230.28 335.51 230.52 335.51 262.77 335.51 330.2 244.98 297.95 244.98" fill="#f45259"/><polygon points="362.93 244.98 362.69 244.98 295.26 335.51 295.49 335.51 327.75 335.51 395.18 244.98 362.93 244.98" fill="#f45259"/><polygon points="427.9 244.98 427.67 244.98 360.23 335.51 360.47 335.51 392.72 335.51 460.15 244.98 427.9 244.98" fill="#f45259"/><polygon points="492.88 244.98 492.64 244.98 425.21 335.51 425.45 335.51 457.7 335.51 525.13 244.98 492.88 244.98" fill="#f45259"/><polygon points="557.86 244.98 557.62 244.98 490.19 335.51 490.42 335.51 522.67 335.51 590.11 244.98 557.86 244.98" fill="#f45259"/><polygon points="590.34 244.98 590.11 244.98 522.67 335.51 522.91 335.51 555.4 335.51 622.83 244.98 590.34 244.98" fill="#f7c000"/></g><rect x="159.6" y="258.66" width="307.55" height="53.36" rx="24.97" fill="none" stroke="#000" stroke-linecap="round" stroke-linejoin="round" stroke-width="5"/><g clip-path="url(#b)"><polygon points="200.49 324.27 200.25 324.27 132.82 414.8 133.05 414.8 165.31 414.8 232.74 324.27 200.49 324.27" fill="#f7c000"/><polygon points="265.46 324.27 265.23 324.27 197.79 414.8 198.03 414.8 230.28 414.8 297.71 324.27 265.46 324.27" fill="#f7c000"/><polygon points="330.44 324.27 330.2 324.27 262.77 414.8 263 414.8 295.26 414.8 362.69 324.27 330.44 324.27" fill="#f7c000"/><polygon points="395.41 324.27 395.18 324.27 327.75 414.8 327.98 414.8 360.23 414.8 427.67 324.27 395.41 324.27" fill="#f7c000"/><polygon points="460.39 324.27 460.15 324.27 392.72 414.8 392.96 414.8 425.21 414.8 492.64 324.27 460.39 324.27" fill="#f7c000"/><polygon points="525.37 324.27 525.13 324.27 457.7 414.8 457.93 414.8 490.19 414.8 557.62 324.27 525.37 324.27" fill="#f7c000"/><polygon points="167.76 324.27 100.33 414.8 132.82 414.8 200.25 324.27 167.76 324.27" fill="#f45259"/><polygon points="232.97 324.27 232.74 324.27 165.31 414.8 165.54 414.8 197.79 414.8 265.23 324.27 232.97 324.27" fill="#f45259"/><polygon points="297.95 324.27 297.71 324.27 230.28 414.8 230.52 414.8 262.77 414.8 330.2 324.27 297.95 324.27" fill="#f45259"/><polygon points="362.93 324.27 362.69 324.27 295.26 414.8 295.49 414.8 327.75 414.8 395.18 324.27 362.93 324.27" fill="#f45259"/><polygon points="427.9 324.27 427.67 324.27 360.23 414.8 360.47 414.8 392.72 414.8 460.15 324.27 427.9 324.27" fill="#f45259"/><polygon points="492.88 324.27 492.64 324.27 425.21 414.8 425.45 414.8 457.7 414.8 525.13 324.27 492.88 324.27" fill="#f45259"/><polygon points="557.86 324.27 557.62 324.27 490.19 414.8 490.42 414.8 522.67 414.8 590.11 324.27 557.86 324.27" fill="#f45259"/><polygon points="590.34 324.27 590.11 324.27 522.67 414.8 522.91 414.8 555.4 414.8 622.83 324.27 590.34 324.27" fill="#f7c000"/></g><rect x="159.6" y="337.95" width="307.55" height="53.36" rx="24.97" fill="none" stroke="#000" stroke-linecap="round" stroke-linejoin="round" stroke-width="5"/><circle cx="202.59" cy="285.34" r="10.38" fill="#b3b3b3" stroke="#000" stroke-linecap="round" stroke-linejoin="round" stroke-width="5"/><circle cx="202.59" cy="364.63" r="10.38" fill="#b3b3b3" stroke="#000" stroke-linecap="round" stroke-linejoin="round" stroke-width="5"/><circle cx="427.67" cy="285.34" r="10.38" fill="#b3b3b3" stroke="#000" stroke-linecap="round" stroke-linejoin="round" stroke-width="5"/><circle cx="427.67" cy="364.63" r="10.38" fill="#b3b3b3" stroke="#000" stroke-linecap="round" stroke-linejoin="round" stroke-width="5"/><polygon points="649.91 306.71 626.44 306.71 587.02 452.92 689.33 452.92 649.91 306.71" fill="#ef9a00" stroke="#000" stroke-linecap="round" stroke-linejoin="round" stroke-width="5"/><rect x="572.52" y="445.69" width="131.3" height="14.47" rx="5.51" fill="#ef9a00" stroke="#000" stroke-linecap="round" stroke-linejoin="round" stroke-width="5"/><rect x="597.52" y="405.04" width="81.3" height="17.84" fill="#fff"/><rect x="607.14" y="369.36" width="62.06" height="17.84" fill="#fff"/><rect x="616.59" y="333.68" width="43.17" height="17.84" fill="#fff"/><polyline points="687.38 445.69 649.91 306.71 626.44 306.71 588.97 445.69" fill="none" stroke="#000" stroke-linecap="round" stroke-linejoin="round" stroke-width="5"/><polygon points="79.89 306.71 56.41 306.71 16.99 452.92 119.31 452.92 79.89 306.71" fill="#ef9a00" stroke="#000" stroke-linecap="round" stroke-linejoin="round" stroke-width="5"/><rect x="2.5" y="445.69" width="131.3" height="14.47" rx="5.51" fill="#ef9a00" stroke="#000" stroke-linecap="round" stroke-linejoin="round" stroke-width="5"/><rect x="27.5" y="405.04" width="81.3" height="17.84" fill="#fff"/><rect x="37.12" y="369.36" width="62.06" height="17.84" fill="#fff"/><rect x="46.56" y="333.68" width="43.17" height="17.84" fill="#fff"/><polyline points="117.35 445.69 79.89 306.71 56.41 306.71 18.95 445.69" fill="none" stroke="#000" stroke-linecap="round" stroke-linejoin="round" stroke-width="5"/><path d="M286.69,509.43c-2.5.88-3.74,2.92-4.51,5.28a27.06,27.06,0,0,0-1.35,8.22c0,7.7,0,15.39,0,23.09v1.78c-.47-.65-.73-1-.95-1.32-3.8-5.92-7.61-11.83-11.38-17.77-3.48-5.45-6.89-11-11.07-15.91S246.76,509,244.48,515a29.88,29.88,0,0,0-1.8,8.4c-.4,5.41-.83,10.82-1.17,16.23-.41,6.63-.81,13.26-1.06,19.9a24,24,0,0,0,1.05,8.28,6.51,6.51,0,0,0,7.22,4.78c2.72-.27,5.36-3.19,5.55-6.3.4-6.41.73-12.82,1.07-19.24.25-4.62.59-9.23,1.09-14.14l.93,1.37c6.55,9.76,12.45,19.94,19.34,29.47a44.88,44.88,0,0,0,5.78,7.12,7.31,7.31,0,0,0,11.94-3.08,15,15,0,0,0,.87-4.74q.16-22.11.31-44.21a17.17,17.17,0,0,0-.32-3.91C294.29,510.5,290.57,508.06,286.69,509.43Z" fill="#fff"/><path d="M349.56,535a36.17,36.17,0,0,0-9.74.88c-3.61.69-6.25,3.92-5.81,7.12a7,7,0,0,0,7.77,6c1.29-.16,2.56-.53,3.83-.8,2.76-.6,4.48,1.11,3.95,3.93a14.24,14.24,0,0,1-2.17,4.87,11.43,11.43,0,0,1-13.26,5.22c-4.53-1.16-7.41-4.22-9.32-8.23a34.34,34.34,0,0,1-2.3-23.13c1.36-5.78,5.21-9.32,11.05-10.65a17.9,17.9,0,0,1,9.57.56,14.35,14.35,0,0,0,6.8.93,6,6,0,0,0,4.82-3.59,5.37,5.37,0,0,0-.7-5.79,11.59,11.59,0,0,0-4.1-3.21,27.39,27.39,0,0,0-18.2-2.62c-9.15,1.77-16.3,6.42-20.36,15a43.31,43.31,0,0,0-4,18.41,46.45,46.45,0,0,0,7,23.8c4.78,8,12.16,11.82,21.21,12.24a24.55,24.55,0,0,0,21.05-9.59c5-6.18,7-13.25,4.95-21.08A13.42,13.42,0,0,0,349.56,535Z" fill="#fff"/><path d="M225.06,520.5a33.42,33.42,0,0,0-1.42-8.36,7.06,7.06,0,0,0-7.19-5.16c-3.25,0-5.63,2-6.61,5.33a31.75,31.75,0,0,0-1.27,8.27c-.28,13.4.24,26.77,1.08,40.13a53,53,0,0,0,.71,8.35c.77,3.5,3.4,5.85,6.57,6,3.54.14,6-1.66,7.2-5.31a25,25,0,0,0,.93-6.19c.52-7.17.11-14.34.27-21C225.3,534.84,225.49,527.67,225.06,520.5Z" fill="#fff"/><path d="M48.06,546.6c-3-.91-5.72.59-7.3,4-.42.91-.75,1.85-1.13,2.78A13.16,13.16,0,0,1,37,557.86a5.51,5.51,0,0,1-5.34,1.72,13.07,13.07,0,0,1-7.46-4.78,25.86,25.86,0,0,1-5-22.2c1.48-5.68,5-9.1,10.21-9.68a11.85,11.85,0,0,1,8.25,2.44c1.25.88,2.39,1.92,3.66,2.76a5.3,5.3,0,0,0,6.28.1,5.79,5.79,0,0,0,2.76-6.06,11.31,11.31,0,0,0-4.28-7.4c-6.25-5.1-13.14-7.71-21.29-5.76C11.48,512.19,3.9,524.23,3.82,538.13a42.38,42.38,0,0,0,2.46,13.2c3.18,9.86,9.16,17.17,19,20.92,6.35,2.4,12.34,1.76,17.78-2.45,5.17-4,7.94-9.45,9.15-15.73C53,550.45,51.2,547.56,48.06,546.6Z" fill="#fff"/><path d="M425,534a82,82,0,0,1-9.87-2.64c-1.93-.62-2.56-2-1.86-3.9a6,6,0,0,1,4.58-3.9,32.66,32.66,0,0,1,5.5-.36c2.92-.12,5.87-.07,8.64-1.23s4.28-2.91,4.39-5.92a6.14,6.14,0,0,0-4-6.27,28.19,28.19,0,0,0-20-1.45c-11.54,3.44-15.69,15.69-13.58,23.78,1.65,6.36,6.18,10,12.15,12.17,4.29,1.51,8.81,2.13,13.17,3.4a6.88,6.88,0,0,1,5.07,5.62c.87,4.19-1,6.49-5.3,6.82a15.87,15.87,0,0,1-7.14-1.27,53.81,53.81,0,0,0-8.35-3.05,7.19,7.19,0,0,0-5.86,12.76c5.77,4.45,12.34,6.38,20.17,6.31a43,43,0,0,0,5.16-.38c5.33-.83,9.69-3.16,12.41-8a21.86,21.86,0,0,0,2.64-12.12A21.28,21.28,0,0,0,425,534Z" fill="#fff"/><path d="M103.53,514.82c-7-8-17.23-9.53-26.27-4A26,26,0,0,0,68,520.48c-5.45,9.76-6.46,20.14-4,30.91,1.63,7,4.8,13.29,10.42,18.07a19.39,19.39,0,0,0,14.37,4.92,20.85,20.85,0,0,0,14.19-7.33c6.71-7.43,9.21-16.37,9.29-26.15a52.77,52.77,0,0,0-.61-7.84A35.2,35.2,0,0,0,103.53,514.82Zm-8.32,40.4c-3.4,6.86-11.69,5.26-14.6.73a25.48,25.48,0,0,1-3.31-9.16A24.43,24.43,0,0,1,77,542a39,39,0,0,1,2.14-13.76c1.16-3.15,2.94-5.87,6.28-6.94a8.93,8.93,0,0,1,10.49,3.87,24.46,24.46,0,0,1,3.13,9.37C100.2,541.84,98.48,548.62,95.21,555.22Z" fill="#fff"/><path d="M183.79,518.45c-.92-2.58-1.7-5.23-3.37-7.48a7.54,7.54,0,0,0-8.23-2.92c-2.41.62-3.84,2.34-4.94,4.39a71.79,71.79,0,0,0-3.17,7.45c-2.13,5.25-4.22,10.52-6.39,15.94a12.29,12.29,0,0,1-1.76-3.26c-1.23-3.08-2.4-6.18-3.69-9.23a40.11,40.11,0,0,0-5.62-9.88,7.68,7.68,0,0,0-12.71.61,13.24,13.24,0,0,0-1.94,4.4c-1.32,5.69-2.61,11.38-3.92,17.07q-3,12.93-5.19,26c-.35,2.09-.83,4.17-.38,6.36a7.41,7.41,0,0,0,9,6,7.87,7.87,0,0,0,5.78-7.14c.24-2.69.54-5.38.95-8,.85-5.52,1.79-11,2.71-16.54a28,28,0,0,1,2.17-7.77,1.45,1.45,0,0,1,.21.26q2.1,5.07,4.19,10.15c1.23,3,2.38,6,3.73,8.94,2.47,5.38,8.44,6,12,1.25a23.87,23.87,0,0,0,2.45-4.17c1.66-3.51,3-7.17,4.44-10.76,1-2.36,1.92-4.72,3-7.43.58,1.49,1.05,2.61,1.45,3.75,3.16,9.15,5.75,18.47,8.67,27.69a15.52,15.52,0,0,0,3.43,6.39,6.37,6.37,0,0,0,10.49-1.75,9.58,9.58,0,0,0,.44-7.13C193.11,547.2,188.85,532.7,183.79,518.45Z" fill="#fff"/><path d="M552.14,515.32c-3.95-4.67-8.88-7.68-15.13-7.75-7.63-.09-13.62,3.4-18.26,9.24-5.59,7-7.55,15.3-7.8,24.3a55.2,55.2,0,0,0,.81,8c1.46,7.54,4.42,14.32,10.15,19.67,7.56,7.07,18,7.57,26.18,1.2a30.7,30.7,0,0,0,9.66-13.46,44.35,44.35,0,0,0,2.39-21.9C559.25,527.44,556.87,520.89,552.14,515.32Zm-8.57,39.5c-1.53,2.95-3.53,5.09-7.13,5a8.85,8.85,0,0,1-8.35-5.12,26.6,26.6,0,0,1-2.82-14.42,36.34,36.34,0,0,1,2.24-12.47c1.19-3,3-5.64,6.25-6.62a9,9,0,0,1,10.58,4.22,25.24,25.24,0,0,1,2.87,8.64A32.32,32.32,0,0,1,543.57,554.82Z" fill="#fff"/><path d="M617,509.45c-2.54.94-3.74,3-4.5,5.44a34.17,34.17,0,0,0-1.36,10.35v22.52c-.49-.69-.76-1.06-1-1.44q-6.18-9.66-12.37-19.31a137.88,137.88,0,0,0-9.76-14c-1.91-2.33-4.25-3.77-7.44-3.16s-4.93,2.69-5.87,5.56a33.75,33.75,0,0,0-1.67,8.46c-.34,5.28-.73,10.55-1.08,15.83-.5,7.4-1.15,14.81-1,22.24a19.64,19.64,0,0,0,1,6,6.41,6.41,0,0,0,7.17,4.61c2.67-.29,5.1-3,5.47-6.08.48-4,.54-8,.74-12,.37-7.07.74-14.13,1.45-21.61,1.24,1.9,2.29,3.49,3.34,5.08,5.73,8.67,11,17.66,17.13,26.06,1.85,2.54,3.54,5.24,6,7.22a7.19,7.19,0,0,0,11.25-2.88,12.66,12.66,0,0,0,1.05-4.7c.45-15,.13-30.09.44-45.13a12.34,12.34,0,0,0-1.28-6A6.23,6.23,0,0,0,617,509.45Z" fill="#fff"/><path d="M647.74,552.63a9.68,9.68,0,0,0-9.57,9.37,9.53,9.53,0,0,0,9.54,9.35,9.34,9.34,0,0,0,9.45-9.24A9.61,9.61,0,0,0,647.74,552.63Z" fill="#fff"/><path d="M675.66,552.63a9.68,9.68,0,0,0-9.58,9.35,9.51,9.51,0,0,0,9.52,9.37,9.32,9.32,0,0,0,9.46-9.22A9.59,9.59,0,0,0,675.66,552.63Z" fill="#fff"/><path d="M491.43,514.3c-5.31-5.63-11.79-8.06-19.46-6.15a23.92,23.92,0,0,0-15,11.38c-5.8,9.54-7,19.89-4.81,30.67,1.51,7.49,4.71,14.16,10.65,19.22a19.26,19.26,0,0,0,15.39,4.84c5.94-.75,10.5-3.87,14.2-8.36,6-7.24,8.24-15.72,8.26-24.93a44.55,44.55,0,0,0-.54-7.57C499.13,526.17,496.47,519.66,491.43,514.3ZM483.65,555c-1.49,2.83-3.47,4.81-6.88,4.82a8.7,8.7,0,0,1-8.15-4.55,24.66,24.66,0,0,1-3.19-12.41v-1.18a38.35,38.35,0,0,1,2.15-13.52c1.09-3,2.77-5.53,5.9-6.79a9,9,0,0,1,10.85,3.72,24.68,24.68,0,0,1,3.2,9.73C488.58,542,487,548.69,483.65,555Z" fill="#fff"/><path d="M703.46,552.63a9.69,9.69,0,0,0-9.48,9.31,9.52,9.52,0,0,0,9.62,9.41,9.24,9.24,0,0,0,9.32-9.32A9.5,9.5,0,0,0,703.46,552.63Z" fill="#fff"/></svg>