<svg xmlns="http://www.w3.org/2000/svg" viewBox="0 0 1017.14 168.5"><path d="M157.21,26.56c-26.78,31.15-26.17,85.86.89,116.77,22.16,25.32,56.41,25.9,79.16,1.11,15.73-17.15,21.5-37.78,22-58.89-.15-20.65-4.13-39.13-15.85-55.46C217.8-5.6,178.07,2.3,157.21,26.56Zm58.44,93.29c-3.77,6.27-10.22,9.5-18.1,8.66-9.28-1-15.67-6.12-19.28-14.07-4.28-9.44-6.61-19.35-5.83-29.06,0-11.21,1.47-21.5,5.29-31.42,4-10.46,11.93-16.92,21.25-17,11.37-.14,18.89,6,22.74,15.25C231.48,75.52,228.62,98.29,215.65,119.85Z"/><path d="M655.77,5.93c-6.85-.28-48.53,1.49-62.49,2.21-8.14.42-16.48,1-24.26,4.08-7.5,3-12.44,8.16-12.68,16.56-.21,7.4,5.42,13.82,13.87,16.38a53.13,53.13,0,0,0,22,2.13c8-1,9.39,2.34,9.38,9.55,0,28.27,1.39,56.51,3.39,84.71.93,13.12,8.84,21.5,19.62,21s17.5-8.6,17.38-21.84c-.23-26.34-1.11-52.68-3.58-78.92-1.51-16-1.65-15.94,14.54-17.26,1.09-.09,2.2-.07,3.29-.16,12.21-1,20.15-9,19.8-19.88C675.67,14,667.61,6.43,655.77,5.93Z"/><path d="M510.42,63.46c-2.55-5.43-1.48-8.55,3-12.38a198.88,198.88,0,0,0,16.39-16.46c6.86-7.46,7.28-15.87,1.51-21.91C525.85,7,516,6.58,508,11.81c-5.49,3.58-9.56,8.57-14.07,13.13-10.33,10.45-20.75,20.82-31.13,31.22a1.18,1.18,0,0,1-2-.7c-.75-11-1.26-22-2.29-33-.85-9.07-6.77-14.77-14.83-15.1C435,7,428.49,12.61,426.78,22.39a24.53,24.53,0,0,0-.26,5.87c1.37,21,.33,42,1,62.95.56,17.48.81,35,4,52.31,1.91,10.23,8.87,15.79,17.75,15,8.54-.75,14.4-7.09,14.71-17a210.59,210.59,0,0,0-.21-21.78c-.67-12,2.12-27.92,12.51-34.72,5.53-3.62,7.18-4.42,9.37,1.72,6.78,19,14,38,21.05,56.9,1.56,4.19,3,8.47,6.15,11.87,4.86,5.19,10.85,7.08,17.81,4.61s10.22-7.62,10.28-14.58c0-6.59-3-12.66-4.92-18.71C529,105.16,520.15,84.16,510.42,63.46Z"/><path d="M389.37,98.4c-7.19-2.38-14.17,1.13-18,9.28-2,4.27-3.32,8.89-5.54,13C360,131.57,351.74,133.87,341,128c-23.51-12.85-32.85-56.7-16.72-78.42,7.13-9.61,18.5-13,30.16-9.15,5.89,2,10.61,5.68,15.26,9.66,5.53,4.71,11.81,6.43,18.19,2.14s8-10.93,6.05-18.43a26.94,26.94,0,0,0-8-13.45C368.81,5,349.34-1.76,326.68,5.65c-28.35,9.28-46.38,37.57-46.46,72,.57,5,.83,10,1.74,14.93,5.81,31.22,19.21,56.93,50.08,69.49,19.13,7.78,36.92,3.61,51.08-11.52,8.81-9.41,13.61-20.85,16.2-33.31C401.09,108.63,396.73,100.82,389.37,98.4Z"/><path d="M109.15,98.4C102,96,95,99.53,91.15,107.68c-2,4.27-3.32,8.89-5.54,13-5.83,10.86-14.09,13.16-24.8,7.3C37.3,115.16,28,71.31,44.08,49.59c7.14-9.61,18.51-13,30.17-9.15,5.89,2,10.61,5.68,15.26,9.66,5.53,4.71,11.81,6.43,18.18,2.14s8-10.93,6.06-18.43a26.94,26.94,0,0,0-8-13.45C88.59,5,69.12-1.76,46.46,5.65,18.11,14.93.07,43.22,0,77.61c.56,5,.82,10,1.74,14.93C7.54,123.76,21,149.47,51.82,162c19.13,7.78,36.92,3.61,51.08-11.52,8.81-9.41,13.61-20.85,16.19-33.31C120.87,108.63,116.51,100.82,109.15,98.4Z"/><path d="M997.66,128.43c-10.68.1-21.42-.69-32.06,1.08-6.05,1-8.66-.68-8.61-7.74.16-28-.06-56,1.74-81,0-9.79.22-16.66-.06-23.51C958.34,8.85,952.73,2,945.35.4c-7.84-1.74-15.72,2.32-19.52,10.32a28.23,28.23,0,0,0-2.16,7c-4.61,24.91-5.26,50.16-5.93,75.36-.4,15-1.75,30.23,1.09,45.19,2.38,12.57,8,23.28,21.52,26.42,20.55,4.76,41.32,5.27,61.91,0,10.41-2.69,16.1-11.2,14.67-20.82C1015.53,134.47,1008.35,128.34,997.66,128.43Z"/><path d="M880.23,44c-.28-10.38-.77-20.87-3.89-30.9C873.88,5.25,866.6,0,859.09.33c-8.27.42-14.15,4.8-16.46,12.64a74.4,74.4,0,0,0-3.16,18.58c-1.15,39,1,77.89,3.45,116.76.79,12.61,8.72,20.26,18.78,19.86,9.84-.39,16-8,17.38-20.43,2.18-19.72.88-39.49,1.26-54.22C880.34,73.68,880.64,58.85,880.23,44Z"/><path d="M814.21,141.94a65.11,65.11,0,0,0-2.4-8.34c-15.1-42.28-20.45-52.37-35.92-94.51-3.32-9-6.09-18.5-10.94-25.57-6.44-9.82-22.13-9.82-28.16-1.85a84.28,84.28,0,0,0-7.37,11C710.94,57.09,683.3,123.61,678,136.17c-3.62,8.51-.2,17.38,7.37,21.23,7.28,3.71,15.54,1.17,20.47-6.43a63.09,63.09,0,0,0,4.17-7.56c1.21-2.56,2.35-5,3.44-7.34a4.53,4.53,0,0,1,4.36-2.56c7.69.39,15.39.77,23.08,1,3.81.13,18.08.69,31.62,1a5.49,5.49,0,0,1,4.88,3.17c2.89,6.29,6.15,11.08,7.18,13.64,3.45,8.59,12,12.2,20,9.25C812.15,158.76,816.11,150.86,814.21,141.94ZM727.53,99.21c5-12,11.14-26.06,18-42.09a2.8,2.8,0,0,1,5.27.27c4.36,13.75,9.5,30.6,14.15,43.93a2.9,2.9,0,0,1-2.79,3.9c-10.19-.52-22-1.48-32.17-2A2.9,2.9,0,0,1,727.53,99.21Z"/></svg>