<svg xmlns="http://www.w3.org/2000/svg" viewBox="0 0 795.68 171.29"><path d="M360.91,28.91c-4.81-9.24-12.83-15.69-23-19.29a87.66,87.66,0,0,0-58.06-.53c-11.68,3.85-18.65,11.23-19.45,23.59-1.2,18.56-.23,37.11.64,55.66,0,10.44-.25,20.89.07,31.33.3,9.65.77,19.34,2,28.91S271,163.86,279,163.89c8.2,0,14.77-6.42,16-16.07.64-5.18.93-10.42,1.09-15.64.34-11,.48-10,11.56-12.38,8.71-1.84,11.23,1.36,13.88,8.23s11.92,28.73,17,34.69C343,168,348.77,170.8,356,168.16c7.34-2.71,10.16-8.39,9.92-15.59A27.36,27.36,0,0,0,362.94,142c-3.1-6.7-5.33-12-9.43-20-4.87-9.49-5.42-13.79,3.56-22.37C373.91,83.6,372.4,51,360.91,28.91ZM324.28,84.68a49.77,49.77,0,0,1-11.56,3.81C299,91.1,293.87,87,293.79,73.82c0-3.64,0-18.9-.32-25.76-.31-6.47,2.46-9.09,8.6-9.28s12.61-1.11,18.73.72c10.44,3.12,13.7,11.36,14.9,20.48C337.21,71.4,332.8,80.74,324.28,84.68Z"/><path d="M78.27,11C58.41-1.95,37.45,1,17.06,10.42,11,13.26,7,18.71,4.47,25.08,1.72,32.08.9,39.4.43,46.81-1.24,73.46,2.32,99.86,4.5,126.3c.94,11.41,2.08,23,6,33.83,2.92,8.06,11.41,12.56,19,10.77s11-7.37,10.31-17.09c-.42-6-1-12-1.45-18h.12c-.42-6.84-.69-13.69-1.3-20.52-.39-4.51.49-5.73,5.79-5.74,8.91,0,17.6-.33,25.93-3.2,18.93-6.51,33-18.16,35-39.31C106.27,43.67,98.21,24,78.27,11ZM59.61,74.75c-5.24,1.65-10.7,2.1-17.2,2.22-5.84.1-9.18-1.53-9.1-8.75.09-7.91-.39-15.83-.47-23.74,0-3,.37-6,3.23-8,10.23-7,30.38-1.54,35.82,9.78C78,59.07,73.16,70.49,59.61,74.75Z"/><path d="M643.74,12c-7-6-17-5.25-25.1,2.29a145.76,145.76,0,0,0-10.51,11C598.5,36.28,589,47.39,579,59a1.11,1.11,0,0,1-1.77-.16,309.68,309.68,0,0,0-28.76-41.59c-3.13-3.8-6.59-7.16-11.59-8.36-6.94-1.68-13.25-.29-17.72,5.32-5.1,6.38-4.23,13.21-.54,19.92,10,18.13,23.09,34.28,35.59,50.81A26.9,26.9,0,0,1,560,102.26c-.08,15.63-2.28,31.36,1.45,46.91,2.56,10.7,8.22,16.38,16.79,16.47s14.73-5.8,17.13-16.2a85.94,85.94,0,0,0,.63-33.57c-3.07-18.16,4.1-31.58,16.34-44.31C623.45,60,633.78,47.74,644,35.48,650.66,27.56,650.17,17.5,643.74,12Z"/><path d="M483.35,8.47c-6.85-.29-48.53,1.49-62.49,2.2-8.14.42-16.48,1-24.26,4.09-7.5,3-12.44,8.16-12.68,16.56-.21,7.4,5.42,13.81,13.87,16.37a53.14,53.14,0,0,0,22,2.14c8-1,9.39,2.34,9.38,9.55,0,28.27,1.39,56.51,3.39,84.71.93,13.11,8.84,21.49,19.62,21s17.5-8.6,17.38-21.83c-.23-26.35-1.11-52.68-3.58-78.93-1.5-15.94-1.65-15.93,14.54-17.26,1.09-.09,2.2-.06,3.29-.16,12.21-1,20.15-9,19.8-19.87C503.25,16.53,495.19,9,483.35,8.47Z"/><path d="M241,144.48a64.65,64.65,0,0,0-2.4-8.34c-15.1-42.29-20.45-52.37-35.92-94.51-3.32-9.05-6.09-18.51-10.94-25.58-6.44-9.82-22.13-9.82-28.17-1.85a85,85,0,0,0-7.36,11c-18.48,34.4-46.12,100.92-51.45,113.47-3.62,8.52-.2,17.38,7.37,21.24,7.28,3.7,15.54,1.17,20.47-6.43a63.87,63.87,0,0,0,4.17-7.56c1.21-2.57,2.35-5,3.44-7.34a4.51,4.51,0,0,1,4.35-2.56c7.7.38,15.4.77,23.09,1,3.81.12,18.07.69,31.62,1a5.47,5.47,0,0,1,4.88,3.17c2.89,6.29,6.15,11.08,7.18,13.64,3.45,8.59,12,12.19,20,9.25C238.9,161.29,242.85,153.4,241,144.48Zm-86.68-42.73c4.95-12,11.14-26.06,18-42.09a2.8,2.8,0,0,1,5.27.26c4.35,13.76,9.49,30.61,14.14,43.94a2.89,2.89,0,0,1-2.78,3.9c-10.2-.52-22-1.49-32.17-2A2.9,2.9,0,0,1,154.28,101.75Z"/><path d="M712.33,1.29c-2.57-.1-18.24.56-23.48.83a28.44,28.44,0,0,0-9.12,1.54c-2.82,1.11-4.68,3.06-4.76,6.22-.08,2.78,2,5.19,5.21,6.15a19.8,19.8,0,0,0,8.26.8c3-.37,3.52.88,3.52,3.59,0,10.63.53,21.24,1.28,31.84.35,4.92,3.32,8.07,7.37,7.9s6.58-3.24,6.53-8.21c-.09-9.9-.42-19.79-1.35-29.66-.56-6-.61-6,5.47-6.48.41,0,.82,0,1.24-.06,4.59-.39,7.57-3.39,7.44-7.47S716.78,1.48,712.33,1.29Z"/><path d="M781.59,7.47C780.25,3.78,778.42.19,773.88,0s-6.48,3.37-8,7c-2.55,6.29-5,12.6-7.6,19a13.59,13.59,0,0,1-1.62-3.12c-2.13-5.59-4.15-11.23-7.51-16.24-1.75-2.6-4.05-4.59-7.39-4.24-3.57.38-5.58,2.86-6.79,6a23.42,23.42,0,0,0-.85,3c-1,4.52-2,9.05-3.06,13.57-2.08,9-3.91,18.12-5.35,27.29-1,6.08,4,10.71,9.21,8.63,3.16-1.26,4.3-3.94,4.58-7.12.66-7.61,2.18-15.1,3.42-22.62a27.69,27.69,0,0,1,1.92-6.79c2.56,6.25,4.89,12,7.27,17.66,1.06,2.54,2.82,4.38,5.72,4.56S762.53,45.19,764,43a42,42,0,0,0,3.74-7.79c1.59-4,3.19-7.95,4.84-12.06,1.06.87,6.36,19,8.88,27.21a23.15,23.15,0,0,0,2.6,6.27c1.54,2.3,3.65,3.74,6.54,3.14s4.44-2.8,5-5.65a9.25,9.25,0,0,0-.39-4.58C790.75,35.49,786.62,21.33,781.59,7.47Z"/></svg>