<svg xmlns="http://www.w3.org/2000/svg" viewBox="0 0 947.24 982.64"><path d="M59.34,130.24c16,4.84,54.52,13,54.52,13l34.22,84.7L135.36,233a9.86,9.86,0,1,0,7.39,18.29l12.72-5.14h0l22.14-9,12.72-5.13a9.86,9.86,0,0,0-7.39-18.29L170.22,219,136,134.25s22.05-32.59,30.22-47.19a16.67,16.67,0,0,0-1.62-18.63L109.07,0H95.18L39.51,22.49l8.05,93.23A16.66,16.66,0,0,0,59.34,130.24Z" fill="#3eb3ff"/><path d="M325.56,369.84A33.52,33.52,0,0,0,356.68,389l32.18,79.65-12.52,5a9.71,9.71,0,0,0,7.27,18l12.52-5.06,21.79-8.8,12.51-5.06a9.7,9.7,0,1,0-7.27-18l-12.51,5.05-32.18-79.65a33.47,33.47,0,0,0,9.1-35.36,34.8,34.8,0,0,0-1.52-3.63L338.19,239.46l-50.27,20.31,36.22,106.4A34.76,34.76,0,0,0,325.56,369.84Z" fill="#3eb3ff"/><path d="M394.49,978.57l25.06-10.12.75-.3,14.39-5.82a11.16,11.16,0,1,0-8.36-20.69l-14.39,5.81-.75.3-38.57-95.46c37.13-21.53,54.16-56.49,30.17-115.87L245.37,800c24,59.38,60.52,72.7,102.19,62.39l38.57,95.47-13.65,5.51a11.16,11.16,0,0,0-6.16,14.53,11,11,0,0,0,3.68,4.72h14.42Z" fill="#3eb3ff"/><path d="M619.4,737.2A10.53,10.53,0,0,0,633.12,743l12.9-5.21,23.67-9.56.7-.29,13.6-5.49a10.54,10.54,0,1,0-7.9-19.55l-13.59,5.5-.71.28-36.58-90.55,27.6-32.49a60.21,60.21,0,0,0-12.17-88.86l-25.33-17.12L512.46,521.23l-6.32,29.92A60.14,60.14,0,0,0,512,592.07h0a60.21,60.21,0,0,0,47.12,31.45l42.42,4.2,36.59,90.54-12.89,5.21A10.55,10.55,0,0,0,619.4,737.2Z" fill="#3eb3ff"/><path d="M188.42,700.52l-14.49,5.85-.75.3-38.45-95.16c13-9.66,19.21-23.69,14-44.63,23.08-19.58,32.2-45.13,18.24-79.66l-45.45,18.36L119,470.93a4.93,4.93,0,0,0-9.83.72l2.75,37.81L0,554.67c14,34.53,38.26,46.57,68.46,44.62,10.78,18.71,25,24.46,41.05,22.41L148,716.86l-13.73,5.55a11.23,11.23,0,1,0,8.41,20.82l13.74-5.55,25.21-10.18.75-.31,14.49-5.85a11.23,11.23,0,0,0-8.41-20.82Z" fill="#3eb3ff"/><path d="M915.41,945.34l-12.72,5.14-.66.27-28-69.34L867.79,866s40.9-19.53-10.39-146.49l-106,42.85C802.65,889.31,845.64,875,845.64,875l6.23,15.41h0l28,69.33-12.06,4.88a9.84,9.84,0,0,0-.44,18.07h8.36L887.27,978l22.15-9,.66-.26,12.72-5.14a9.86,9.86,0,1,0-7.39-18.29Z" fill="#3eb3ff"/><path d="M775.19,381.94a9.44,9.44,0,0,1,12.21,5l60.22,115.74,30.61-12.36,40.23-16.26,28.78-11.63L911.36,336.76a9.46,9.46,0,0,1,5.34-12l.09,0L901.34,274l-149.75,60.5,23.59,47.4Z" fill="#3eb3ff"/><path d="M522.58,112.18a39.55,39.55,0,0,0,14.65-10.31l65.15,30.91,37.36,92.46L625.51,231a11,11,0,0,0,8.26,20.45L648,245.69l24.76-10L687,229.94a11,11,0,0,0-8.26-20.45l-14.23,5.74-37.36-92.46,39.13-104A10.89,10.89,0,0,0,652,4.85L538.84,50.57a39.79,39.79,0,1,0-16.26,61.61Z" fill="#3eb3ff"/></svg>