<svg xmlns="http://www.w3.org/2000/svg" viewBox="0 0 804.91 164.76"><path d="M244.53,24.5c-4.8-9.24-12.83-15.69-23-19.28a87.57,87.57,0,0,0-58-.53c-11.68,3.84-18.65,11.23-19.45,23.59-1.2,18.55-.24,37.1.63,55.65,0,10.45-.25,20.9.08,31.33.3,9.65.77,19.34,2,28.92,1.21,9.43,7.83,15.28,15.86,15.3,8.19,0,14.76-6.41,16-16.07.65-5.18.94-10.41,1.1-15.63.34-11,.47-10,11.55-12.38,8.72-1.84,11.23,1.36,13.89,8.23s11.92,28.73,17,34.68c4.5,5.27,10.25,8.08,17.43,5.44,7.34-2.7,10.17-8.39,9.93-15.58a27.55,27.55,0,0,0-2.94-10.55c-3.09-6.7-5.33-12-9.43-20-4.86-9.48-5.41-13.79,3.57-22.36C257.53,79.2,256,46.62,244.53,24.5ZM207.91,80.28a50,50,0,0,1-11.57,3.8c-13.72,2.61-18.84-1.47-18.92-14.66,0-3.65,0-18.91-.33-25.77-.31-6.46,2.47-9.09,8.6-9.28s12.62-1.11,18.74.72c10.43,3.12,13.69,11.37,14.9,20.49C220.84,67,216.42,76.33,207.91,80.28Z"/><path d="M702.84,24.69c-26.77,31.15-26.16,85.86.9,116.77,22.16,25.32,56.41,25.9,79.16,1.11,15.73-17.15,21.5-37.78,22-58.89-.15-20.65-4.13-39.13-15.85-55.46C763.44-7.47,723.71.43,702.84,24.69ZM761.29,118c-3.77,6.28-10.23,9.5-18.1,8.66-9.28-1-15.68-6.12-19.28-14.07-4.28-9.44-6.61-19.35-5.83-29.06,0-11.21,1.47-21.49,5.29-31.42,4-10.46,11.92-16.92,21.25-17,11.36-.14,18.88,6,22.74,15.25C777.12,73.65,774.25,96.42,761.29,118Z"/><path d="M503.1,10.21C483.24-2.11,462.28.65,441.89,9.67c-6.11,2.7-10.08,7.89-12.59,14-2.75,6.66-3.57,13.63-4,20.69-1.67,25.38,1.88,50.51,4.06,75.68.94,10.86,2.09,21.85,6,32.21a16.82,16.82,0,0,0,19,10.26c7.58-1.7,11-7,10.31-16.28-.42-5.72-1-11.44-1.44-17.16h.11c-.42-6.51-.69-13-1.29-19.54-.4-4.29.49-5.45,5.79-5.46,8.9,0,17.59-.32,25.92-3,18.93-6.19,33-17.3,35-37.43C531.1,41.33,523.05,22.58,503.1,10.21ZM484.45,70.92c-5.25,1.57-10.71,2-17.21,2.12-5.84.09-9.18-1.46-9.1-8.34.09-7.53-.39-15.07-.47-22.6,0-2.88.38-5.74,3.23-7.61,10.23-6.7,30.38-1.46,35.82,9.32C502.87,56,498,66.86,484.45,70.92Z"/><path d="M400.6,7.55c-7-6-17-5.26-25.09,2.28a145.8,145.8,0,0,0-10.51,11c-9.63,11-19.16,22.12-29.15,33.7a1.1,1.1,0,0,1-1.77-.15,309.39,309.39,0,0,0-28.77-41.59c-3.12-3.81-6.58-7.16-11.58-8.37-7-1.68-13.25-.28-17.73,5.32-5.09,6.38-4.22,13.21-.53,19.92,10,18.13,23.08,34.28,35.59,50.81a27,27,0,0,1,5.81,17.36c-.08,15.62-2.29,31.35,1.44,46.9,2.57,10.7,8.22,16.39,16.8,16.47s14.73-5.8,17.13-16.2a86.13,86.13,0,0,0,.63-33.57c-3.08-18.16,4.1-31.58,16.33-44.3,11.11-11.56,21.44-23.82,31.7-36.09C407.52,23.15,407,13.09,400.6,7.55Z"/><path d="M647.81,4.06c-6.85-.28-48.52,1.49-62.48,2.21-8.14.42-16.49,1-24.27,4.08-7.5,3-12.44,8.16-12.68,16.56-.21,7.4,5.42,13.82,13.87,16.38a53.17,53.17,0,0,0,22,2.13c8-1,9.38,2.34,9.38,9.55,0,28.27,1.38,56.51,3.38,84.71.93,13.12,8.84,21.5,19.62,21s17.5-8.6,17.39-21.84c-.24-26.34-1.12-52.68-3.59-78.92C628.92,44,628.78,44,645,42.69c1.1-.09,2.2-.07,3.29-.16,12.22-1,20.16-9,19.8-19.88C667.71,12.13,659.65,4.56,647.81,4.06Z"/><path d="M109.15,96.53c-7.19-2.38-14.17,1.13-18,9.28-2,4.27-3.32,8.89-5.54,13-5.83,10.86-14.09,13.16-24.8,7.3C37.3,113.29,28,69.45,44.08,47.72c7.14-9.61,18.51-13,30.17-9.15,5.89,2,10.61,5.69,15.26,9.66,5.53,4.71,11.81,6.43,18.18,2.14s8-10.93,6.06-18.43a26.94,26.94,0,0,0-8-13.45C88.59,3.11,69.12-3.63,46.46,3.78,18.11,13.06.07,41.35,0,75.74c.56,5,.82,10,1.74,14.93,5.8,31.22,19.21,56.94,50.08,69.49,19.13,7.78,36.92,3.61,51.08-11.52,8.81-9.41,13.61-20.85,16.19-33.31C120.87,106.76,116.51,99,109.15,96.53Z"/></svg>