<svg xmlns="http://www.w3.org/2000/svg" viewBox="0 0 203.85 277.69"><defs><style>.cls-1{fill:#3eb3ff;}</style></defs><g id="Layer_2" data-name="Layer 2"><g id="Layer_1-2" data-name="Layer 1"><path class="cls-1" d="M188.42,234.15,173.93,240l-.75.3-38.45-95.16c13-9.66,19.21-23.7,14-44.63,23.08-19.58,32.2-45.13,18.24-79.67L121.49,39.22,119,4.57a4.93,4.93,0,1,0-9.83.72l2.75,37.81L0,88.3c14,34.54,38.26,46.58,68.46,44.63,10.78,18.7,25,24.46,41.05,22.4L148,250.5l-13.73,5.55a11.23,11.23,0,1,0,8.41,20.82l13.74-5.55,25.21-10.19.75-.3L196.83,255a11.23,11.23,0,0,0-8.41-20.83Z"/></g></g></svg>