<svg xmlns="http://www.w3.org/2000/svg" viewBox="0 0 185.76 264.11"><defs><style>.cls-1{fill:#3eb3ff;}</style></defs><g id="Layer_2" data-name="Layer 2"><g id="Layer_1-2" data-name="Layer 1"><path class="cls-1" d="M114.57,257.52a10.53,10.53,0,0,0,13.72,5.82l12.89-5.21,23.68-9.56.7-.29,13.6-5.49a10.54,10.54,0,0,0-7.9-19.55l-13.6,5.5-.7.28-36.59-90.55L148,106a60.2,60.2,0,0,0-12.16-88.86L110.48,0,7.63,41.55,1.3,71.47a60.2,60.2,0,0,0,5.86,40.92h0a60.2,60.2,0,0,0,47.12,31.45L96.7,148l36.59,90.54-12.9,5.21A10.55,10.55,0,0,0,114.57,257.52Z"/></g></g></svg>