<svg xmlns="http://www.w3.org/2000/svg" viewBox="0 0 156.99 252.04"><defs><style>.cls-1{fill:#3eb3ff;}</style></defs><g id="Layer_2" data-name="Layer 2"><g id="Layer_1-2" data-name="Layer 1"><path class="cls-1" d="M19.83,130.24c16,4.84,54.52,13,54.52,13l34.22,84.7L95.85,233a9.86,9.86,0,0,0,7.39,18.29L116,246.18h0l22.14-9,12.72-5.13a9.86,9.86,0,0,0-7.39-18.29L130.71,219l-34.22-84.7s22.06-32.59,30.22-47.19a16.66,16.66,0,0,0-1.61-18.63L69.56,0H55.67L0,22.49l8.05,93.23A16.66,16.66,0,0,0,19.83,130.24Z"/></g></g></svg>