<?xml version="1.0" standalone="no"?>
<!DOCTYPE svg PUBLIC "-//W3C//DTD SVG 20010904//EN"
 "http://www.w3.org/TR/2001/REC-SVG-20010904/DTD/svg10.dtd">
<svg version="1.0" xmlns="http://www.w3.org/2000/svg"
 width="569.000000pt" height="569.000000pt" viewBox="0 0 569.000000 569.000000"
 preserveAspectRatio="xMidYMid meet">
<metadata>
Created by potrace 1.14, written by Peter Selinger 2001-2017
</metadata>
<g transform="translate(0.000000,569.000000) scale(0.100000,-0.100000)"
fill="#000000" stroke="none">
<path d="M2575 5680 c-548 -58 -1033 -249 -1460 -575 -280 -214 -573 -545
-732 -829 -210 -373 -326 -732 -372 -1151 -9 -81 -7 -535 3 -590 3 -16 12 -79
21 -140 68 -465 277 -936 587 -1328 86 -107 308 -336 393 -403 28 -21 52 -41
55 -44 18 -21 149 -114 248 -176 316 -203 703 -351 1067 -409 348 -55 771 -42
1099 35 919 215 1674 868 2014 1745 77 199 128 389 157 580 9 61 18 124 21
140 13 69 12 513 -1 620 -44 358 -126 637 -280 950 -144 293 -310 523 -544
755 -162 161 -259 241 -441 362 -366 243 -814 405 -1250 452 -134 14 -471 18
-585 6z"/>
</g>
</svg>
