<?xml version="1.0" standalone="no"?>
<!DOCTYPE svg PUBLIC "-//W3C//DTD SVG 20010904//EN"
 "http://www.w3.org/TR/2001/REC-SVG-20010904/DTD/svg10.dtd">
<svg version="1.0" xmlns="http://www.w3.org/2000/svg"
 width="700.000000pt" height="700.000000pt" viewBox="0 0 700.000000 700.000000"
 preserveAspectRatio="xMidYMid meet">
<metadata>
Created by potrace 1.14, written by Peter Selinger 2001-2017
</metadata>
<g transform="translate(0.000000,700.000000) scale(0.100000,-0.100000)"
fill="#000000" stroke="none">
<path d="M3295 6994 c-22 -2 -92 -9 -155 -15 -656 -62 -1297 -326 -1840 -758
-117 -93 -346 -315 -450 -436 -468 -545 -745 -1188 -832 -1930 -21 -183 -16
-598 10 -795 54 -405 166 -769 348 -1132 166 -331 353 -594 619 -866 451 -464
950 -756 1612 -946 l51 -14 -21 46 c-39 88 -23 193 41 264 69 76 91 82 320 86
l202 4 0 1119 0 1119 -546 593 c-339 367 -552 591 -563 590 -9 -1 -54 -15
-101 -32 -412 -145 -883 47 -1081 441 -21 43 -51 117 -66 165 -24 80 -27 103
-27 243 1 139 3 164 27 243 110 360 403 606 768 647 167 19 329 -10 486 -85
201 -97 357 -264 440 -469 l32 -81 1408 -5 1408 -5 40 -22 c86 -46 129 -117
130 -213 0 -51 -6 -76 -25 -113 -15 -29 -354 -404 -877 -973 l-853 -926 0
-1118 0 -1118 203 -4 c173 -3 207 -6 237 -22 49 -26 98 -74 123 -121 27 -52
29 -155 3 -203 -10 -19 -15 -36 -12 -39 17 -17 376 105 573 193 416 188 716
395 1039 718 287 287 476 546 649 887 194 383 306 750 361 1184 22 172 25 594
6 760 -117 1008 -601 1858 -1399 2456 -477 358 -1069 592 -1673 664 -128 15
-529 28 -615 19z"/>
</g>
</svg>
